<?xml version="1.0" standalone="no"?>
<!DOCTYPE svg PUBLIC "-//W3C//DTD SVG 20010904//EN"
 "http://www.w3.org/TR/2001/REC-SVG-20010904/DTD/svg10.dtd">
<svg version="1.0" xmlns="http://www.w3.org/2000/svg"
 width="1120.000000pt" height="1280.000000pt" viewBox="0 0 1120.000000 1280.000000"
 preserveAspectRatio="xMidYMid meet">
<metadata>
Created by potrace 1.15, written by Peter Selinger 2001-2017
</metadata>
<g transform="translate(0.000000,1280.000000) scale(0.100000,-0.100000)"
fill="#000000" stroke="none">
<path d="M5485 12766 c-60 -22 -170 -48 -320 -75 -272 -49 -315 -60 -295 -71
16 -8 185 -19 404 -26 90 -3 165 -11 212 -23 63 -16 73 -17 76 -4 2 12 8 11
30 -6 41 -33 84 -38 100 -12 16 26 24 27 31 2 10 -41 63 -56 177 -50 40 2 157
-37 193 -65 19 -15 62 -32 103 -40 106 -23 347 -92 380 -109 16 -8 61 -25 99
-37 62 -19 110 -23 410 -35 199 -7 352 -17 368 -24 16 -6 45 -11 65 -10 32 0
34 1 14 9 -24 10 -342 58 -761 116 -145 20 -274 40 -287 44 -12 5 -102 73
-199 152 -97 79 -198 160 -225 181 l-47 37 -95 -20 -96 -21 -121 60 c-66 34
-122 61 -123 60 -2 0 -44 -15 -93 -33z"/>
<path d="M4795 12623 c-11 -2 -30 -6 -43 -9 -13 -2 -20 -9 -17 -14 6 -9 26 -7
78 7 9 2 17 9 17 14 0 9 -2 9 -35 2z"/>
<path d="M4220 12513 c-236 -40 -232 -38 -505 -173 -230 -113 -394 -188 -630
-287 l-70 -30 -22 -74 c-13 -41 -23 -80 -23 -86 0 -22 29 -14 45 11 9 14 36
33 61 43 24 10 44 21 44 26 0 4 -24 7 -52 7 -51 1 -52 1 -28 15 14 8 39 15 55
15 17 0 41 7 55 15 14 8 39 14 57 15 17 0 38 7 47 15 20 20 26 19 26 -4 0 -11
7 -27 16 -36 15 -15 18 -15 38 4 12 12 29 21 38 21 9 0 18 9 21 20 3 11 12 20
21 20 9 0 16 5 16 10 0 6 5 10 11 10 7 0 18 8 25 18 10 13 15 14 25 5 10 -10
18 -9 38 2 14 8 44 19 66 25 22 5 56 20 76 33 20 12 50 31 68 42 99 60 96 57
93 111 -3 57 15 86 37 60 11 -13 15 -12 31 4 10 10 36 23 57 28 21 5 67 17
103 26 36 10 88 23 115 30 64 17 135 47 135 58 0 8 -44 9 -90 1z m-990 -417
c0 -3 -4 -8 -10 -11 -5 -3 -10 -1 -10 4 0 6 5 11 10 11 6 0 10 -2 10 -4z"/>
<path d="M7580 12180 c0 -5 22 -16 49 -24 69 -20 89 -32 141 -81 25 -23 68
-59 95 -79 67 -49 205 -196 205 -217 0 -10 15 -28 33 -40 66 -45 87 -71 87
-106 0 -41 19 -80 54 -110 19 -16 26 -33 26 -57 0 -25 7 -40 26 -55 32 -25 44
-26 44 -6 0 23 24 18 50 -10 20 -21 22 -29 13 -44 -10 -16 -9 -20 8 -24 18 -5
19 -9 9 -27 -7 -12 -25 -29 -41 -38 -20 -12 -29 -25 -29 -43 0 -15 -7 -46 -15
-69 -8 -23 -15 -49 -15 -56 0 -17 43 -18 69 -2 24 15 51 -4 51 -37 0 -33 -11
-37 -37 -13 -20 18 -23 19 -23 5 0 -10 5 -26 12 -37 7 -10 9 -23 4 -27 -7 -7
-24 9 -47 47 -8 13 -10 13 -19 0 -5 -8 -10 -25 -10 -37 0 -22 -77 -83 -106
-83 -7 0 -14 -4 -14 -10 0 -5 8 -10 18 -10 10 0 40 -14 68 -32 43 -29 46 -33
26 -36 -13 -2 -37 1 -54 7 -35 12 -58 1 -58 -28 0 -9 16 -50 36 -91 22 -47 38
-98 44 -143 5 -38 13 -74 19 -80 6 -6 11 -23 11 -38 0 -14 9 -38 21 -53 18
-23 19 -34 13 -98 -9 -100 -17 -118 -52 -118 -23 0 -32 7 -45 35 -9 19 -23 35
-30 35 -7 0 -27 20 -45 45 -17 25 -36 45 -41 45 -6 0 -11 -18 -13 -40 -2 -22
-7 -39 -13 -38 -13 4 -8 87 6 104 7 9 7 18 0 31 -6 10 -11 12 -11 6 0 -7 -8
-13 -18 -13 -10 0 -27 -6 -37 -14 -18 -13 -21 -10 -39 28 -17 36 -20 38 -24
18 -2 -17 -8 -21 -22 -17 -32 10 -33 -25 -2 -69 44 -64 66 -126 44 -126 -4 0
-33 23 -64 50 -31 28 -59 50 -63 50 -4 0 2 -16 14 -36 27 -45 26 -54 -4 -54
-14 0 -25 -3 -25 -6 0 -4 21 -52 46 -106 25 -55 43 -102 40 -105 -2 -3 -22 30
-44 73 l-40 79 -6 -50 c-5 -34 0 -90 13 -171 12 -67 21 -151 21 -187 0 -39 7
-84 17 -109 12 -30 13 -43 5 -46 -7 -2 -12 -23 -12 -50 0 -46 -13 -82 -23 -66
-2 5 -8 41 -12 79 -8 73 -11 71 -30 -17 -3 -16 -10 -28 -15 -28 -6 0 -33 46
-60 103 -53 110 -88 159 -117 162 -10 1 -27 6 -37 10 -24 10 -50 -21 -41 -50
3 -11 14 -96 25 -190 11 -93 29 -215 39 -270 11 -55 27 -192 36 -305 17 -219
31 -329 47 -372 6 -16 6 -33 1 -43 -7 -11 -4 -28 8 -53 25 -49 39 -126 47
-247 7 -99 7 -100 34 -105 30 -5 62 -29 71 -51 8 -19 77 54 77 81 0 24 0 24
36 5 16 -8 44 -15 61 -15 27 0 37 7 58 40 14 22 25 50 25 64 0 13 7 29 14 36
13 10 13 16 -1 46 -16 32 -16 36 0 52 12 11 34 17 66 17 39 0 54 -6 83 -31 20
-18 42 -34 48 -36 16 -5 0 -38 -47 -92 -34 -41 -43 -76 -19 -76 7 0 21 -11 30
-24 10 -16 30 -28 58 -33 41 -8 43 -10 46 -48 3 -50 20 -85 41 -85 23 0 61
-28 61 -46 0 -8 -9 -14 -19 -14 -11 0 -27 -10 -35 -21 l-14 -21 -14 21 c-17
27 -24 27 -31 -1 -2 -13 -12 -56 -21 -96 -20 -92 -61 -197 -93 -239 -17 -24
-32 -33 -52 -33 -16 0 -69 -13 -119 -30 -70 -23 -110 -30 -169 -30 -142 0
-148 15 -138 352 l8 239 -23 24 c-13 13 -27 22 -31 19 -5 -3 -9 -45 -9 -93 0
-61 -4 -93 -15 -107 -8 -10 -15 -29 -15 -42 0 -12 -8 -49 -17 -83 -14 -50 -15
-66 -4 -94 13 -38 2 -75 -24 -75 -16 0 -20 -25 -6 -34 5 -4 6 -18 1 -34 -47
-157 -49 -161 -70 -121 -7 11 -9 32 -6 45 4 13 2 24 -3 24 -12 0 -21 -25 -21
-61 0 -16 -9 -38 -20 -49 -11 -11 -20 -29 -20 -40 0 -41 -15 -18 -17 25 -2 58
-21 117 -36 112 -7 -2 -15 -21 -18 -43 -3 -21 -13 -53 -22 -71 -9 -18 -17 -41
-17 -52 0 -11 -4 -23 -10 -26 -5 -3 -10 0 -10 8 0 19 -19 34 -50 39 -18 2 -26
-2 -28 -17 -2 -11 -10 -24 -18 -28 -8 -4 -14 -14 -14 -22 0 -17 -57 -61 -84
-66 -27 -5 -31 -25 -6 -32 27 -7 34 -30 18 -63 -15 -32 -27 -38 -48 -24 -12 7
-12 12 -2 22 19 19 14 28 -13 28 -26 0 -29 -3 -39 -53 -5 -21 -14 -29 -36 -34
-17 -3 -30 -8 -30 -12 0 -3 16 -28 35 -55 36 -51 38 -74 4 -55 -29 15 -31 8
-10 -33 l19 -35 -33 -16 c-47 -22 -69 -58 -61 -101 5 -25 3 -35 -9 -40 -8 -3
-15 -12 -15 -20 0 -19 -31 -36 -64 -36 -16 0 -26 -6 -26 -15 0 -8 9 -15 20
-15 11 0 20 -4 20 -10 0 -20 -82 -4 -127 25 -22 15 -23 18 -10 33 11 12 13 22
6 35 -8 13 -6 17 4 17 14 0 27 20 27 41 0 16 -52 10 -97 -12 -28 -13 -43 -27
-43 -39 0 -26 -17 -34 -28 -14 -7 13 -13 14 -30 5 -34 -18 -52 -14 -52 14 0
34 -29 47 -98 43 -45 -2 -59 -7 -67 -24 -15 -30 -62 -84 -74 -84 -29 0 -112
-47 -158 -91 -38 -36 -60 -49 -82 -49 -16 0 -32 -4 -35 -8 -3 -5 -20 -8 -38
-7 -18 2 -40 -1 -48 -5 -9 -5 -24 -1 -38 10 -22 19 -30 50 -12 50 20 0 9 25
-17 38 -31 14 -89 16 -97 3 -7 -10 22 -24 34 -16 4 3 13 -1 19 -9 19 -23 -12
-40 -50 -27 -17 6 -36 8 -41 5 -5 -3 -8 2 -6 12 2 12 -3 19 -12 19 -8 0 -16
-10 -18 -23 -3 -18 -8 -22 -25 -16 -12 3 -24 7 -27 7 -9 1 -95 -25 -113 -34
-20 -11 -51 2 -66 29 -9 16 -12 16 -48 -3 -30 -16 -39 -26 -41 -52 -2 -25 -8
-33 -22 -33 -28 0 -34 19 -14 41 21 23 13 35 -14 20 -12 -6 -33 -11 -47 -11
-23 0 -25 -3 -19 -22 6 -21 5 -21 -15 4 -12 15 -29 29 -39 32 -9 3 -29 26 -44
51 -15 25 -32 45 -38 45 -15 0 -12 -33 5 -56 22 -29 19 -71 -5 -77 -14 -3 -20
-14 -20 -31 0 -33 -18 -33 -66 -1 -34 23 -59 30 -92 26 -6 -1 -17 11 -23 26
l-11 28 -21 -26 c-44 -53 -59 -54 -148 -9 -45 22 -89 40 -99 40 -10 0 -21 7
-24 16 -3 9 -13 14 -21 10 -8 -3 -17 -1 -19 3 -3 5 -24 11 -47 15 -26 4 -48
15 -60 30 -10 13 -30 27 -43 30 -14 3 -33 20 -43 36 -18 30 -37 38 -48 20 -19
-31 -135 -66 -135 -41 0 5 -16 18 -36 30 -28 17 -34 25 -29 42 4 11 1 27 -6
35 -10 12 -8 20 10 44 l21 30 -41 29 c-22 17 -49 33 -60 36 -10 3 -21 15 -24
26 -8 24 -69 52 -95 44 -10 -3 -21 -1 -25 5 -4 7 2 14 14 17 37 10 22 20 -35
25 -61 5 -97 29 -76 50 9 9 16 7 32 -7 21 -19 42 -13 22 7 -7 7 -12 25 -12 40
0 35 -10 35 -40 3 -26 -28 -40 -32 -40 -11 0 7 -13 30 -29 50 -19 24 -32 54
-36 88 -4 29 -16 64 -26 78 -11 14 -22 51 -25 87 -7 61 -6 62 16 56 17 -4 21
-2 18 8 -2 8 -14 15 -26 17 -24 4 -62 66 -62 102 0 28 17 25 24 -5 7 -27 36
-35 36 -10 0 8 -4 15 -10 15 -5 0 -10 18 -10 39 0 30 -6 44 -22 55 l-22 16 22
20 c12 12 22 28 22 36 0 8 5 12 11 9 6 -4 13 2 16 14 3 12 12 21 20 21 10 0
14 -7 10 -20 -4 -16 0 -20 19 -20 15 0 24 -6 24 -15 0 -8 5 -15 11 -15 8 0 9
13 4 43 -7 42 -8 64 -3 160 2 53 3 53 20 33 l17 -21 1 23 c0 12 9 39 20 59 20
37 26 87 14 117 -8 22 -89 22 -98 1 -8 -21 -35 -19 -74 5 -18 11 -35 20 -37
20 -11 0 -4 -25 11 -42 16 -16 15 -18 -1 -24 -12 -5 -23 0 -34 15 -18 24 -31
19 -31 -12 0 -16 -3 -17 -14 -7 -9 7 -14 27 -13 51 1 25 5 35 11 29 17 -17 36
-11 36 13 0 13 6 29 13 36 10 10 9 15 -5 25 -10 7 -18 18 -18 23 0 6 -7 16
-15 23 -12 10 -18 10 -30 0 -20 -17 -21 9 0 36 21 27 19 34 -12 34 -25 0 -26
0 -8 20 18 19 17 20 -13 26 -35 7 -38 17 -18 53 17 30 11 51 -14 51 -12 0 -21
10 -25 30 -8 37 -80 110 -109 110 -18 0 -26 11 -43 68 -12 37 -27 93 -33 125
-11 54 -30 79 -30 38 0 -28 -20 -30 -67 -7 -59 29 -67 58 -61 222 l4 132 -33
-5 c-39 -7 -44 9 -8 25 31 14 32 44 5 79 -14 17 -20 41 -20 72 0 26 -5 52 -12
59 -8 8 -6 22 10 54 19 41 37 110 49 191 4 28 1 43 -12 57 -17 19 -17 20 0 20
13 0 16 5 10 23 -4 12 -7 30 -6 41 0 17 -1 17 -20 1 -10 -10 -19 -26 -19 -36
0 -10 -4 -21 -10 -24 -5 -3 -10 -17 -10 -30 0 -21 -17 -35 -42 -35 -7 0 -8 25
-3 74 4 49 3 76 -4 81 -19 11 -12 25 14 25 21 0 25 5 25 29 0 16 12 44 30 66
17 21 30 47 30 58 0 16 3 17 15 7 23 -19 18 -42 -15 -79 -51 -55 -6 -75 46
-20 16 17 43 38 59 47 24 13 26 17 13 20 -23 5 -23 10 3 31 20 16 21 20 8 47
-17 35 -59 57 -94 48 -38 -10 -30 -22 17 -26 33 -2 44 -8 46 -22 3 -16 -1 -18
-25 -13 -38 7 -93 -17 -93 -40 0 -26 -19 -43 -47 -43 -16 0 -24 -7 -29 -25 -3
-14 -15 -30 -25 -36 -11 -5 -31 -28 -45 -51 -14 -22 -82 -99 -150 -170 -100
-103 -131 -141 -154 -194 -25 -54 -36 -67 -66 -80 -40 -17 -64 -13 -64 11 0 8
-9 15 -19 15 -11 0 -22 4 -26 9 -3 5 15 64 40 131 25 66 45 123 45 127 0 3 -7
2 -16 -1 -9 -3 -14 -3 -12 1 2 5 17 35 33 68 15 33 32 62 37 63 14 6 9 32 -6
32 -43 0 -65 -30 -97 -130 -13 -42 -17 -48 -18 -27 -1 17 -7 27 -16 27 -22 0
-18 24 15 87 17 31 30 64 30 74 0 10 5 21 10 24 18 11 10 25 -14 25 -13 0 -35
-9 -49 -20 l-26 -20 -40 20 c-22 12 -45 28 -51 36 -15 17 -5 48 14 41 8 -3 22
1 33 8 10 8 28 11 42 8 29 -7 42 11 34 49 -4 20 1 35 21 59 15 18 38 53 50 78
33 64 108 164 180 240 60 63 61 63 29 56 -35 -7 -45 9 -21 33 9 9 7 12 -11 12
-42 0 -16 24 84 77 103 55 135 78 135 98 0 6 20 35 45 64 106 124 72 124 -59
0 -53 -50 -96 -87 -96 -82 0 4 10 36 22 71 20 58 21 64 6 79 -9 9 -34 19 -55
23 l-38 6 48 24 c45 23 60 40 36 40 -19 0 -4 74 22 109 12 17 35 37 51 43 15
7 28 16 28 19 0 10 -26 30 -63 48 -17 9 -36 26 -42 39 -5 12 -13 22 -16 22 -8
0 -36 -99 -109 -383 l-61 -238 -175 -315 c-123 -224 -174 -324 -174 -347 0
-18 13 -167 30 -332 40 -402 44 -508 31 -720 -6 -99 -14 -230 -18 -291 l-6
-111 238 -609 c296 -758 291 -746 378 -876 l72 -108 66 0 c36 0 86 -3 111 -6
l44 -6 184 -432 c253 -594 360 -855 360 -877 0 -34 -69 -212 -109 -280 -21
-37 -80 -123 -130 -192 -50 -68 -91 -127 -91 -130 0 -13 79 80 194 228 76 98
132 180 159 237 23 48 45 87 49 87 4 1 13 -27 19 -61 10 -51 20 -71 55 -108
23 -25 45 -59 48 -77 4 -17 14 -37 22 -44 8 -6 14 -19 14 -28 0 -9 9 -31 20
-49 17 -28 23 -32 36 -21 12 10 18 8 35 -9 11 -12 26 -22 34 -22 17 0 20 -16
4 -25 -12 -8 28 -55 47 -55 13 0 24 22 24 51 0 11 15 35 33 55 l33 36 49 -31
c27 -17 53 -31 58 -31 8 0 98 -42 147 -69 8 -4 37 -18 63 -31 26 -13 53 -32
58 -42 6 -10 22 -23 36 -29 21 -8 24 -14 18 -37 -12 -51 -38 -51 -59 2 -2 6
-11 1 -21 -12 -13 -18 -25 -23 -54 -20 -33 3 -36 1 -39 -24 -4 -32 -1 -33 38
-13 18 9 31 11 35 5 3 -6 17 -10 31 -10 28 0 33 -16 7 -23 -10 -3 8 -5 39 -6
47 -1 59 -5 68 -22 7 -11 9 -23 6 -26 -3 -3 -8 2 -12 11 -8 20 -44 21 -70 1
-18 -14 -18 -14 11 -15 17 0 40 -7 51 -15 12 -8 24 -12 27 -8 11 11 99 -9 116
-26 10 -10 25 -20 34 -24 17 -7 37 -46 37 -73 0 -10 -7 -13 -24 -8 -34 8 -41
-11 -11 -30 14 -9 25 -22 25 -28 0 -6 8 -20 17 -30 14 -16 15 -21 4 -28 -8 -4
-12 -17 -9 -27 4 -16 1 -18 -23 -15 -21 3 -29 0 -29 -11 0 -9 5 -19 10 -22 6
-3 10 -22 10 -40 0 -31 5 -38 52 -65 75 -42 128 -48 167 -19 17 12 33 20 36
17 4 -3 -31 -56 -77 -116 -46 -61 -99 -136 -118 -168 l-34 -56 35 -29 c33 -28
135 -99 192 -133 24 -15 27 -22 27 -68 l0 -51 -72 6 c-40 3 -113 15 -161 27
-49 12 -107 20 -130 18 -38 -3 -45 -8 -83 -63 -59 -85 -104 -173 -97 -190 8
-22 33 -18 33 4 0 11 4 23 10 26 6 3 10 -3 10 -14 0 -19 3 -18 45 11 44 31 47
32 198 39 168 8 224 20 236 50 7 20 10 19 76 -16 97 -50 101 -55 79 -96 -28
-56 -74 -119 -120 -166 -50 -51 -108 -145 -174 -287 -62 -132 -94 -221 -129
-364 -89 -353 -133 -725 -201 -1697 -59 -839 -68 -988 -63 -1002 6 -16 32 -17
38 0 5 15 31 357 45 597 21 360 32 498 45 620 8 69 24 224 35 345 31 335 67
582 91 628 5 9 12 39 15 65 4 26 13 57 20 69 8 12 14 41 14 65 0 38 1 40 14
22 14 -18 15 -18 21 11 13 59 15 62 29 43 16 -22 26 -23 26 -3 0 23 38 39 57
24 12 -11 18 -9 32 10 l18 24 7 -34 7 -34 16 30 c8 17 27 42 42 56 68 66 143
241 216 502 13 49 26 68 80 121 42 41 75 85 92 122 25 54 28 71 31 207 4 148
14 178 35 111 13 -40 46 -84 62 -84 16 0 25 22 25 61 0 40 16 69 39 69 26 0
46 -26 33 -43 -6 -7 -17 -45 -23 -85 -7 -40 -18 -80 -25 -90 -12 -16 -14 -16
-42 5 l-30 22 -7 -27 c-3 -15 -28 -97 -55 -182 -27 -85 -56 -182 -63 -215 -8
-34 -19 -70 -25 -80 -21 -38 -84 -277 -85 -321 0 -24 -4 -44 -8 -44 -8 0 -1
-72 12 -116 5 -17 10 -47 11 -68 1 -20 5 -39 10 -42 14 -9 9 -24 -9 -24 -15 0
-13 -4 7 -20 24 -19 24 -21 7 -34 -15 -12 -16 -18 -8 -35 6 -11 19 -24 28 -30
14 -7 15 -12 4 -24 -10 -13 -8 -25 10 -66 20 -48 20 -53 5 -70 -9 -9 -16 -32
-16 -50 0 -28 3 -31 20 -26 11 3 20 2 20 -4 0 -5 3 -17 7 -27 5 -14 2 -16 -15
-12 -20 6 -22 2 -22 -38 0 -24 -6 -53 -12 -64 -10 -16 -10 -24 0 -40 10 -17
10 -26 -4 -51 -15 -29 -15 -34 3 -68 10 -20 25 -44 33 -54 13 -17 13 -20 -3
-32 -9 -6 -17 -24 -17 -39 0 -15 -7 -37 -15 -50 -23 -35 -3 -48 88 -55 5 -1 7
-11 5 -23 -2 -15 -9 -22 -21 -22 -13 2 -17 -4 -15 -20 2 -14 9 -20 21 -18 22
4 22 -16 -3 -53 -26 -39 -26 -65 0 -65 11 0 23 -7 26 -15 9 -24 24 -17 24 10
0 21 -5 25 -31 25 -27 0 -30 2 -19 16 8 9 25 14 44 12 28 -3 31 -7 33 -38 1
-33 19 -90 36 -117 15 -23 26 -14 30 25 3 32 5 34 12 15 9 -29 25 -30 25 -2 0
18 2 19 15 9 17 -14 21 -100 4 -100 -5 0 -7 -5 -3 -11 4 -7 16 -1 33 15 32 31
64 37 38 8 -16 -18 -23 -42 -12 -42 3 0 17 7 30 16 29 19 32 9 8 -25 -16 -23
-15 -25 6 -43 32 -25 71 -24 71 2 0 11 5 20 10 20 6 0 10 -13 10 -28 0 -17 14
-48 33 -73 l32 -44 3 55 c4 68 17 87 43 64 11 -10 19 -25 19 -34 0 -9 4 -20
10 -26 5 -5 13 -27 18 -49 l9 -40 12 28 c6 16 8 39 5 52 -5 19 0 27 25 40 41
21 39 29 -4 21 -30 -6 -35 -4 -35 12 0 10 -5 23 -11 29 -9 9 -7 11 8 7 16 -5
22 1 31 33 6 21 18 58 27 83 11 30 15 61 11 93 -5 46 -4 48 24 54 29 5 40 26
20 38 -16 10 -12 25 6 25 14 0 14 2 3 16 -11 13 -10 17 4 25 19 11 23 54 7 64
-8 5 -8 11 0 20 6 7 8 25 4 39 -4 19 -1 33 11 46 18 20 15 24 -20 20 -16 -2
-17 0 -6 14 12 14 11 19 -3 35 -14 15 -14 20 -3 30 8 6 22 9 31 5 13 -5 16 0
16 24 0 18 -7 35 -16 40 -14 8 -14 14 2 60 10 29 22 52 26 52 13 0 9 24 -12
63 -18 32 -18 37 -4 37 14 0 15 9 9 66 -5 50 -4 69 6 75 10 6 10 11 0 22 -7 9
-8 16 -2 19 20 7 -15 181 -50 251 -32 63 -122 187 -136 187 -7 0 -13 4 -13 9
0 4 -12 21 -27 37 -74 80 -175 404 -176 569 -1 48 28 217 40 234 2 2 30 3 64
2 43 -1 68 3 86 14 23 15 25 22 19 59 -3 22 -9 52 -12 65 l-7 24 88 -7 c52 -4
116 -17 158 -33 161 -58 204 -66 294 -52 66 10 85 10 98 -1 12 -10 18 -10 30
0 12 10 20 9 40 -4 14 -9 25 -23 25 -32 0 -8 5 -12 10 -9 16 10 11 53 -11 98
-52 101 -167 247 -195 247 -8 0 -14 -9 -14 -20 0 -26 -33 -39 -130 -50 -81 -9
-194 0 -211 17 -8 8 27 40 120 112 77 60 131 109 131 119 0 21 -108 168 -215
292 -89 104 -109 135 -99 151 4 6 1 15 -6 19 -10 6 -5 17 21 40 84 79 334 270
543 415 55 37 131 96 170 129 109 93 263 253 300 311 19 28 49 72 69 98 19 25
62 99 95 165 34 65 69 125 78 133 27 22 39 -8 68 -164 31 -165 92 -421 147
-625 56 -205 116 -464 143 -619 13 -74 27 -137 31 -141 3 -4 16 5 27 21 42 58
44 50 68 -318 33 -503 64 -767 101 -850 22 -50 20 -26 109 -1015 81 -895 120
-1441 127 -1762 l6 -268 398 0 399 0 0 30 c0 26 5 31 43 41 23 7 72 13 108 15
37 1 77 8 90 15 16 9 62 13 134 14 105 0 113 -1 171 -32 59 -32 67 -33 172
-33 87 0 123 -5 174 -22 61 -21 79 -22 607 -25 l543 -4 -6 493 c-4 271 -11
983 -16 1583 -6 600 -13 1127 -16 1173 -5 70 -8 82 -24 82 -10 0 -23 6 -29 13
-6 8 -27 13 -48 12 -31 -2 -40 -8 -50 -31 l-12 -29 -1 27 c0 35 -10 59 -21 52
-5 -3 -9 -18 -9 -35 0 -16 -4 -29 -10 -29 -5 0 -10 13 -10 28 0 33 -16 52 -43
52 -10 0 -35 16 -54 35 -39 39 -43 41 -43 20 0 -11 -12 -15 -49 -15 -30 0 -51
-5 -54 -12 -4 -9 -6 -8 -6 3 -1 8 4 20 11 27 16 16 -17 16 -61 1 -25 -9 -38
-9 -56 1 -13 7 -35 9 -54 5 -25 -5 -31 -3 -31 10 0 14 -9 16 -57 12 -32 -2
-79 -13 -105 -23 l-48 -19 -25 28 c-30 31 -46 33 -80 11 -24 -15 -25 -15 -36
10 -9 20 -15 23 -25 15 -7 -6 -18 -8 -23 -4 -6 3 -35 10 -65 15 -31 5 -69 19
-86 31 -27 21 -35 22 -80 13 -49 -10 -51 -10 -63 15 -13 27 -51 38 -76 22 -10
-7 -11 -13 -2 -30 10 -17 9 -21 -4 -21 -33 0 -11 -35 90 -141 58 -61 105 -115
105 -120 0 -16 -38 -10 -52 9 -7 9 -22 22 -33 28 -11 6 -24 20 -30 32 -10 23
-30 29 -40 12 -13 -22 -32 -10 -27 17 l5 26 -60 -6 c-56 -6 -61 -5 -86 21 -32
34 -33 42 -7 65 25 21 26 35 3 33 -12 0 -17 5 -15 15 2 12 -8 19 -35 24 -21 4
-44 11 -51 17 -6 6 -27 14 -45 17 -24 6 -32 12 -31 28 0 18 -7 23 -47 28 -27
4 -50 13 -53 21 -4 9 -22 14 -56 14 -27 0 -50 4 -50 9 0 5 -15 12 -33 15 -21
4 -52 24 -81 51 -34 33 -54 45 -76 45 -17 0 -30 -4 -30 -10 0 -5 -6 -10 -12
-10 -18 0 -60 68 -48 75 21 13 9 56 -25 94 -19 21 -35 43 -35 49 0 6 -13 20
-29 32 -17 11 -33 29 -36 40 -4 14 -15 20 -36 20 -16 0 -29 5 -29 10 0 6 5 10
10 10 18 0 11 26 -13 49 -13 12 -31 19 -39 16 -12 -5 -61 28 -107 71 -2 2 -7
21 -10 41 -7 43 -32 54 -61 28 -27 -24 -47 -9 -23 17 18 21 18 21 -9 14 -24
-5 -28 -3 -28 14 0 13 -7 20 -20 20 -32 0 -90 27 -90 42 0 8 -20 19 -45 26
-27 7 -45 18 -45 27 0 8 -26 43 -58 77 -67 74 -142 172 -142 188 0 19 40 1
145 -65 122 -76 209 -127 255 -150 34 -17 35 -17 18 1 -9 11 -136 107 -282
214 l-264 195 -106 215 c-128 262 -136 284 -187 484 -32 127 -37 161 -27 168
7 4 70 26 139 49 l126 40 92 192 92 192 54 544 55 544 54 71 c137 181 266 431
412 804 95 242 96 246 78 350 -20 115 -127 553 -165 677 -33 106 -64 174 -111
242 -64 95 -75 199 -38 363 24 106 26 195 11 441 -5 85 -13 239 -17 342 l-6
188 57 86 c39 60 66 114 85 175 l28 89 -45 96 c-52 112 -279 428 -364 508
-106 100 -404 327 -484 370 -49 25 -95 33 -95 15z m-4910 -1590 c0 -5 -7 -10
-16 -10 -8 0 -12 5 -9 10 3 6 10 10 16 10 5 0 9 -4 9 -10z m5411 -423 c-13
-13 -15 11 -4 40 7 16 8 15 11 -6 2 -13 -1 -28 -7 -34z m-5671 -218 c0 -6 -4
-7 -10 -4 -5 3 -10 11 -10 16 0 6 5 7 10 4 6 -3 10 -11 10 -16z m465 -249 c-3
-5 -11 -10 -16 -10 -6 0 -7 5 -4 10 3 6 11 10 16 10 6 0 7 -4 4 -10z m-375
-26 c0 -8 -4 -12 -10 -9 -5 3 -10 13 -10 21 0 8 5 12 10 9 6 -3 10 -13 10 -21z
m580 -71 c0 -12 -4 -25 -10 -28 -6 -4 -10 11 -10 37 0 31 3 39 10 28 5 -8 10
-25 10 -37z m4560 22 c21 -25 1 -31 -22 -7 -18 18 -19 22 -6 22 8 0 21 -7 28
-15z m-4533 -337 c-3 -8 -6 -5 -6 6 -1 11 2 17 5 13 3 -3 4 -12 1 -19z m18
-88 c3 -5 -1 -10 -9 -10 -9 0 -16 5 -16 10 0 6 4 10 9 10 6 0 13 -4 16 -10z
m-19 -77 c-7 -7 -26 7 -26 19 0 6 6 6 15 -2 9 -7 13 -15 11 -17z m4729 -163
c21 -64 23 -255 3 -297 -22 -47 -44 -36 -40 20 3 39 1 46 -12 41 -14 -5 -16 8
-16 107 -1 102 -2 112 -15 95 -14 -19 -15 -18 -15 11 0 17 -3 38 -6 47 -3 9
-2 16 4 16 5 0 13 -10 16 -22 6 -23 7 -23 22 5 22 40 40 33 59 -23z m-4725
-25 c0 -8 -7 -15 -15 -15 -26 0 -18 20 13 29 1 1 2 -6 2 -14z m5448 -26 c-1
-13 -7 -23 -13 -22 -13 3 -18 30 -11 50 10 24 29 1 24 -28z m-5932 -114 c19
-14 34 -34 34 -44 0 -23 -47 -89 -90 -124 -30 -26 -34 -27 -50 -12 -17 16 -19
15 -33 -12 -15 -27 -14 -29 16 -54 32 -27 32 -27 13 -48 -33 -36 -76 -21 -76
27 0 13 -12 48 -26 79 -35 73 -42 134 -20 169 10 14 24 23 31 20 7 -2 19 1 25
9 27 33 128 27 176 -10z m5968 -1 c10 -4 16 -18 16 -39 0 -18 7 -38 15 -45 8
-7 15 -23 15 -35 0 -13 11 -37 25 -53 32 -38 33 -62 1 -62 -27 0 -39 12 -53
55 -6 17 -27 47 -47 67 -42 42 -44 55 -15 92 23 29 21 28 43 20z m-609 -154
c-10 -11 -21 -36 -24 -55 l-6 -35 -22 33 c-40 59 -40 65 9 70 23 2 47 4 52 5
5 1 1 -7 -9 -18z m-105 -40 c0 -11 -4 -20 -10 -20 -5 0 -10 9 -10 20 0 11 5
20 10 20 6 0 10 -9 10 -20z m33 -338 c2 -15 7 -34 11 -43 9 -20 -16 -47 -50
-55 -37 -9 -50 8 -34 45 9 23 9 42 1 81 -6 29 -8 57 -4 63 9 15 70 -57 76 -91z
m483 -7 c4 -16 0 -35 -11 -51 -20 -32 -33 -22 -42 31 -5 33 -4 37 10 32 10 -4
17 -2 17 3 0 21 20 9 26 -15z m-4548 -160 c20 -44 14 -63 -8 -27 -11 18 -20
37 -20 42 0 19 17 10 28 -15z m-55 -5 c13 -12 13 -63 0 -67 -8 -3 -13 4 -13
16 0 11 -9 25 -20 31 -29 15 -27 43 3 35 12 -4 26 -11 30 -15z m-1046 -21 c35
-13 43 -25 43 -72 0 -21 7 -52 16 -69 9 -18 22 -66 28 -107 l12 -76 58 3 c52
4 63 1 101 -27 24 -17 49 -31 55 -31 7 0 23 -9 37 -20 14 -11 34 -20 44 -20
11 0 28 -14 38 -31 25 -40 81 -265 88 -351 6 -64 5 -68 -24 -97 -29 -29 -32
-29 -113 -26 -54 3 -88 9 -99 19 -9 8 -28 18 -44 21 -40 10 -93 78 -117 149
-11 33 -31 113 -45 176 -33 152 -53 219 -75 255 -21 35 -70 213 -70 255 0 59
14 69 67 49z m5756 -3 c6 -15 -1 -26 -15 -26 -4 0 -8 9 -8 20 0 23 15 27 23 6z
m-718 -6 c3 -5 1 -10 -4 -10 -6 0 -11 5 -11 10 0 6 2 10 4 10 3 0 8 -4 11 -10z
m-4616 -177 c13 -47 14 -100 2 -107 -12 -8 -51 73 -51 105 0 53 35 53 49 2z
m605 -4 c-3 -5 -10 -7 -15 -3 -5 3 -7 10 -3 15 3 5 10 7 15 3 5 -3 7 -10 3
-15z m-67 -41 c-3 -8 -6 -5 -6 6 -1 11 2 17 5 13 3 -3 4 -12 1 -19z m3563
-690 c0 -19 -2 -20 -10 -8 -13 19 -13 30 0 30 6 0 10 -10 10 -22z m-100 -68
c0 -5 -7 -10 -16 -10 -8 0 -12 5 -9 10 3 6 10 10 16 10 5 0 9 -4 9 -10z
m-3050 -216 c0 -8 -4 -12 -10 -9 -5 3 -10 10 -10 16 0 5 5 9 10 9 6 0 10 -7
10 -16z m45 -42 c-8 -8 -25 10 -25 26 0 13 2 13 14 -4 8 -10 13 -21 11 -22z
m2887 -54 c-7 -7 -12 -8 -12 -2 0 14 12 26 19 19 2 -3 -1 -11 -7 -17z m-2632
-127 c-1 -13 -4 -12 -15 3 -8 11 -15 27 -15 35 1 13 4 12 15 -3 8 -11 15 -27
15 -35z m-265 -11 c-3 -5 -13 -10 -21 -10 -8 0 -12 5 -9 10 3 6 13 10 21 10 8
0 12 -4 9 -10z m226 -3 c-1 -12 -15 -9 -19 4 -3 6 1 10 8 8 6 -3 11 -8 11 -12z
m2434 -27 c-3 -5 -15 -10 -26 -10 -10 0 -19 5 -19 10 0 6 12 10 26 10 14 0 23
-4 19 -10z m-101 -31 c-3 -5 -10 -7 -15 -3 -5 3 -7 10 -3 15 3 5 10 7 15 3 5
-3 7 -10 3 -15z m-2584 -89 c0 -5 -2 -10 -4 -10 -3 0 -8 5 -11 10 -3 6 -1 10
4 10 6 0 11 -4 11 -10z m1490 -771 c0 -5 -4 -9 -10 -9 -5 0 -10 7 -10 16 0 8
5 12 10 9 6 -3 10 -10 10 -16z m-144 -106 c-7 -7 -26 7 -26 19 0 6 6 6 15 -2
9 -7 13 -15 11 -17z m-136 -93 c7 -13 7 -20 1 -20 -6 0 -15 9 -21 20 -7 13 -7
20 -1 20 6 0 15 -9 21 -20z m-290 -215 c7 -8 8 -15 2 -15 -5 0 -15 7 -22 15
-7 8 -8 15 -2 15 5 0 15 -7 22 -15z m-800 -80 c-7 -8 -16 -15 -21 -15 -5 0 -9
7 -9 15 0 9 9 15 21 15 18 0 19 -2 9 -15z m755 -605 c3 -5 2 -10 -4 -10 -5 0
-13 5 -16 10 -3 6 -2 10 4 10 5 0 13 -4 16 -10z m804 -624 c6 -8 16 -60 21
-117 13 -141 12 -159 -4 -165 -19 -7 -116 35 -116 51 0 17 57 65 77 65 14 0
15 11 10 73 -3 39 -8 80 -12 90 -8 20 8 23 24 3z m-223 -363 c-8 -16 -30 -55
-50 -87 -20 -33 -36 -70 -36 -82 0 -20 6 -23 43 -26 34 -2 42 -7 42 -23 0 -26
-84 -68 -138 -69 -34 -1 -43 3 -56 25 -14 26 -13 30 52 125 73 110 120 164
143 164 13 0 13 -3 0 -27z m3839 -73 c3 -5 -3 -10 -14 -10 -12 0 -21 5 -21 10
0 6 6 10 14 10 8 0 18 -4 21 -10z m120 -50 c3 -5 1 -10 -4 -10 -6 0 -11 5 -11
10 0 6 2 10 4 10 3 0 8 -4 11 -10z m1281 -117 c-10 -10 -19 5 -10 18 6 11 8
11 12 0 2 -7 1 -15 -2 -18z m-869 -159 c-9 -9 -28 6 -21 18 4 6 10 6 17 -1 6
-6 8 -13 4 -17z m43 -25 c0 -5 -4 -9 -10 -9 -5 0 -10 7 -10 16 0 8 5 12 10 9
6 -3 10 -10 10 -16z m-4380 -1678 c0 -13 -29 -35 -37 -28 -7 8 15 37 28 37 5
0 9 -4 9 -9z m80 -160 c0 -12 -20 -25 -27 -18 -7 7 6 27 18 27 5 0 9 -4 9 -9z
m127 -63 c-3 -8 -6 -5 -6 6 -1 11 2 17 5 13 3 -3 4 -12 1 -19z m118 -39 c11
-17 -1 -21 -15 -4 -8 9 -8 15 -2 15 6 0 14 -5 17 -11z m-145 -14 c0 -8 -4 -15
-10 -15 -5 0 -10 7 -10 15 0 8 5 15 10 15 6 0 10 -7 10 -15z m200 -95 c0 -5
-2 -10 -4 -10 -3 0 -8 5 -11 10 -3 6 -1 10 4 10 6 0 11 -4 11 -10z m-9 -93
c-8 -8 -11 -7 -11 4 0 20 13 34 18 19 3 -7 -1 -17 -7 -23z m-31 -27 c0 -5 -4
-10 -10 -10 -5 0 -10 5 -10 10 0 6 5 10 10 10 6 0 10 -4 10 -10z"/>
<path d="M2890 7499 c0 -27 38 -109 51 -109 12 0 12 1 -12 64 -22 61 -39 80
-39 45z"/>
<path d="M3171 11969 c-12 -13 -21 -35 -21 -51 0 -22 4 -28 23 -28 21 0 29 14
48 79 7 24 -28 24 -50 0z"/>
<path d="M3075 11890 c-8 -13 20 -24 41 -16 20 8 9 26 -16 26 -10 0 -22 -5
-25 -10z"/>
<path d="M2955 11790 c-12 -19 -24 -73 -19 -81 15 -25 79 46 68 75 -7 18 -39
22 -49 6z"/>
<path d="M3965 11695 c-24 -11 -26 -14 -9 -14 11 -1 29 6 40 14 24 18 8 18
-31 0z"/>
<path d="M3872 11681 c4 -13 18 -16 19 -4 0 4 -5 9 -11 12 -7 2 -11 -2 -8 -8z"/>
<path d="M2915 11618 c-31 -66 -31 -76 0 -84 24 -6 111 3 127 12 12 8 -34 75
-59 87 -12 5 -23 16 -23 24 0 29 -22 10 -45 -39z"/>
<path d="M3830 11610 c-12 -8 -9 -10 13 -10 15 0 27 5 27 10 0 13 -20 13 -40
0z"/>
<path d="M3900 11570 c-21 -7 -19 -8 18 -9 23 -1 42 4 42 9 0 12 -24 12 -60 0z"/>
<path d="M6355 11569 c-4 -6 -5 -13 -2 -16 7 -7 27 6 27 18 0 12 -17 12 -25
-2z"/>
<path d="M3685 11526 c-143 -55 -195 -85 -195 -111 0 -7 -15 -29 -34 -49 -55
-60 -436 -602 -436 -620 0 -7 -16 -28 -36 -47 -19 -18 -45 -50 -56 -69 -12
-19 -39 -54 -62 -77 -22 -24 -35 -43 -29 -43 7 0 15 5 18 10 10 16 19 12 31
-14 10 -21 8 -28 -12 -47 -28 -26 -31 -39 -9 -39 8 0 15 -4 15 -10 0 -5 -11
-10 -24 -10 -27 0 -51 -24 -41 -41 5 -8 25 -9 61 -5 56 6 75 -4 54 -29 -6 -8
-24 -15 -38 -17 -21 -2 -27 -8 -27 -28 0 -17 5 -24 15 -22 8 2 31 5 49 7 23 2
42 11 56 29 26 33 45 33 45 1 0 -25 0 -25 93 -25 79 1 89 3 75 14 -24 18 -22
26 6 26 29 0 44 17 52 58 4 17 12 36 20 42 7 6 20 46 29 88 9 42 21 85 26 94
5 10 9 22 9 28 0 6 11 27 24 48 27 43 40 120 26 158 -8 21 -6 31 14 57 14 18
29 44 35 60 8 19 17 27 35 27 17 0 24 4 20 14 -9 23 44 76 76 76 15 0 30 6 33
14 4 9 14 12 28 9 19 -5 21 -3 14 26 -6 26 -2 37 16 57 22 23 57 34 44 14 -3
-5 -1 -10 4 -10 6 0 11 11 11 23 0 30 26 53 70 62 58 12 65 19 36 38 -25 17
-25 18 -8 45 28 46 54 75 110 121 29 25 49 48 45 51 -10 9 -171 40 -203 39
-14 0 -52 -10 -85 -23z m-495 -907 c0 -5 -4 -9 -10 -9 -5 0 -10 7 -10 16 0 8
5 12 10 9 6 -3 10 -10 10 -16z m20 -264 c7 -9 10 -19 6 -22 -8 -9 -38 9 -44
25 -5 17 23 15 38 -3z m-85 -15 c4 -6 -8 -10 -29 -10 -20 0 -36 5 -36 10 0 6
13 10 29 10 17 0 33 -4 36 -10z"/>
<path d="M6400 11536 c0 -9 7 -16 16 -16 9 0 14 5 12 12 -6 18 -28 21 -28 4z"/>
<path d="M6495 11443 c4 -10 10 -29 13 -43 2 -14 9 -31 15 -38 7 -9 7 -16 -1
-24 -9 -9 -5 -20 14 -45 21 -28 25 -41 20 -69 -6 -28 -4 -34 11 -34 10 0 36
-14 57 -30 22 -17 46 -30 53 -30 15 0 17 38 4 59 -8 12 -12 12 -25 2 -14 -12
-16 -10 -16 8 0 12 -7 24 -15 27 -8 4 -15 12 -15 19 0 7 -14 26 -31 43 -29 28
-30 33 -21 61 9 25 8 37 -6 61 -20 34 -70 63 -57 33z"/>
<path d="M6570 11436 c0 -21 66 -93 76 -83 9 8 -45 88 -63 95 -7 2 -13 -4 -13
-12z"/>
<path d="M2924 11405 c-10 -8 -27 -15 -37 -15 -34 0 -43 -94 -11 -120 14 -12
61 -10 56 3 -5 16 30 68 53 79 27 12 29 17 17 34 -6 10 -45 34 -54 34 -2 0
-13 -7 -24 -15z"/>
<path d="M6731 11243 c-15 -27 12 -82 41 -83 4 0 5 7 2 15 -4 10 0 15 15 15
12 0 21 5 21 10 0 6 -4 10 -10 10 -5 0 -12 11 -16 25 -7 29 -38 34 -53 8z"/>
<path d="M6912 11178 c-21 -21 -15 -55 9 -54 23 1 35 -14 43 -54 3 -14 12 -34
20 -45 14 -19 15 -19 21 -2 9 21 -20 90 -55 135 -20 25 -28 30 -38 20z"/>
<path d="M6812 11141 c2 -7 7 -12 11 -12 12 1 9 15 -3 20 -7 2 -11 -2 -8 -8z"/>
<path d="M6920 11108 c0 -7 5 -20 10 -28 8 -12 10 -9 10 13 0 15 -4 27 -10 27
-5 0 -10 -6 -10 -12z"/>
<path d="M6835 11070 c-3 -5 -15 -10 -26 -10 -10 0 -19 -4 -19 -10 0 -5 5 -10
10 -10 21 0 70 -44 70 -62 0 -10 5 -18 11 -18 6 0 9 -5 7 -12 -2 -6 7 -22 20
-35 18 -18 22 -27 13 -36 -20 -20 -11 -53 25 -93 29 -32 35 -35 31 -17 -8 37
9 36 58 -2 50 -38 76 -43 95 -20 20 24 31 6 15 -24 -13 -27 -12 -30 14 -55 29
-28 51 -34 52 -13 0 6 4 2 9 -10 10 -26 30 -31 30 -8 0 8 -5 26 -12 40 -10 21
-9 28 2 35 15 10 10 19 -44 78 -33 35 -46 40 -46 16 0 -9 -6 -14 -12 -11 -7 2
-11 11 -9 18 2 8 4 31 4 53 2 34 -4 43 -42 77 -24 22 -50 39 -58 39 -20 0 -27
-28 -14 -57 6 -14 9 -28 7 -31 -9 -9 -66 59 -66 79 0 12 -10 23 -25 29 -14 5
-28 17 -31 25 -4 8 -13 15 -21 15 -10 0 -12 6 -8 20 5 15 2 20 -14 20 -11 0
-23 -4 -26 -10z m270 -228 c-7 -25 -8 -25 -15 -7 -4 11 -3 29 3 40 14 26 22 4
12 -33z m-151 -1 c8 -13 -4 -42 -15 -35 -12 7 -12 44 0 44 6 0 12 -4 15 -9z"/>
<path d="M6920 11031 c0 -6 5 -13 10 -16 6 -3 10 1 10 9 0 9 -4 16 -10 16 -5
0 -10 -4 -10 -9z"/>
<path d="M7300 11028 c0 -18 18 -34 28 -24 3 4 -2 14 -11 23 -16 16 -17 16
-17 1z"/>
<path d="M6990 10717 c0 -14 47 -63 54 -56 2 2 -2 19 -9 37 -14 31 -45 45 -45
19z"/>
<path d="M6295 10580 c-4 -6 -15 -8 -25 -5 -10 3 -35 -4 -55 -15 -27 -15 -41
-18 -48 -11 -18 18 -42 13 -67 -14 -27 -28 -40 -32 -40 -11 0 20 -40 17 -65
-5 -11 -9 -29 -19 -40 -21 -13 -2 -21 -12 -23 -30 -4 -30 -35 -58 -65 -58 -21
0 -94 -35 -121 -59 -13 -11 -38 -16 -87 -17 -38 0 -72 -3 -75 -7 -4 -4 -18 -7
-31 -7 -19 0 -23 -5 -23 -30 0 -25 -4 -30 -22 -30 -13 0 -32 7 -42 15 -25 19
-36 19 -36 0 0 -17 -16 -20 -25 -5 -3 6 -16 10 -27 10 -21 0 -21 0 2 -25 13
-14 29 -25 36 -25 16 0 50 -44 72 -90 9 -19 19 -64 22 -100 4 -48 9 -65 20
-65 10 0 20 -24 32 -84 18 -85 48 -160 73 -181 10 -9 30 -4 87 18 174 71 200
87 269 164 115 127 212 178 339 178 131 -1 286 -56 359 -129 42 -42 64 -92 43
-99 -6 -2 19 -33 55 -70 40 -39 68 -61 71 -53 2 7 -5 22 -16 34 -10 12 -37 55
-58 96 -43 84 -120 168 -180 199 -60 30 -204 55 -324 55 -116 1 -231 -20 -238
-43 -7 -21 -23 -30 -53 -30 -46 0 -53 22 -21 66 39 53 46 58 176 124 106 54
121 58 205 65 75 6 91 10 89 23 -4 24 32 30 178 31 72 1 134 4 137 8 4 3 2 12
-5 20 -9 11 -14 11 -29 -3 -14 -13 -21 -13 -41 -3 -13 6 -26 18 -30 24 -4 7
-24 16 -45 20 -20 4 -48 15 -61 26 -14 11 -40 19 -62 19 -23 0 -48 8 -65 22
l-27 21 23 18 c22 17 23 19 4 19 -11 0 -40 -5 -64 -11 -51 -11 -61 -6 -38 19
10 10 17 26 17 35 0 19 -25 23 -35 7z m-383 -612 c-5 -5 -20 -8 -33 -6 l-24 5
25 10 c28 12 47 6 32 -9z"/>
<path d="M8030 10431 c0 -33 17 -51 26 -27 3 9 10 13 15 10 5 -3 9 2 9 10 0
13 -28 36 -44 36 -3 0 -6 -13 -6 -29z"/>
<path d="M7900 10420 c0 -5 5 -10 10 -10 6 0 10 5 10 10 0 6 -4 10 -10 10 -5
0 -10 -4 -10 -10z"/>
<path d="M4065 10335 l30 -27 -107 5 c-60 3 -108 1 -108 -3 0 -5 14 -20 31
-33 35 -27 32 -47 -7 -47 -27 0 -173 -81 -200 -111 -9 -10 -25 -19 -34 -19
-19 0 -53 -33 -44 -43 4 -3 -10 -16 -30 -28 -42 -25 -46 -39 -11 -39 39 0 30
-16 -34 -57 -67 -43 -89 -73 -63 -90 14 -8 12 -15 -16 -58 -38 -57 -40 -87
-10 -115 l22 -20 -22 0 c-12 0 -26 -9 -32 -20 -6 -11 -17 -20 -25 -20 -8 0
-15 -4 -15 -10 0 -5 10 -10 23 -10 33 0 47 -19 47 -62 l0 -38 -62 3 c-62 2
-63 2 -60 -23 4 -32 33 -72 60 -85 30 -14 27 -24 -8 -31 -44 -9 -38 -31 8 -25
19 3 15 -5 -33 -59 -40 -45 -54 -70 -40 -70 2 0 25 13 51 30 56 35 119 56 195
65 43 5 62 12 80 32 l24 26 -25 -7 c-14 -5 -64 -10 -112 -13 -75 -5 -88 -3
-88 10 0 25 19 31 109 31 l85 1 52 65 c86 106 113 117 355 140 345 34 421 40
511 40 82 0 87 1 106 27 20 27 20 27 91 17 39 -5 79 -6 90 -3 29 11 42 63 48
184 2 61 11 126 18 146 12 30 11 40 -3 68 -14 31 -14 38 2 98 9 36 15 68 12
70 -3 3 -23 -2 -45 -10 -30 -12 -47 -14 -75 -6 -20 6 -88 14 -150 18 -112 7
-114 8 -160 46 -36 30 -49 36 -56 25 -7 -11 -15 -10 -49 4 -23 9 -63 16 -89
16 -28 0 -64 8 -87 20 -21 11 -40 18 -43 16 -2 -2 4 -18 13 -35 20 -39 14 -39
-34 -1 -22 18 -54 33 -77 36 l-39 5 30 -26z m-390 -275 c-3 -5 -11 -10 -16
-10 -6 0 -7 5 -4 10 3 6 11 10 16 10 6 0 7 -4 4 -10z m625 -35 c42 -13 66 -29
103 -67 49 -52 54 -69 14 -51 -65 32 -99 38 -202 38 -107 0 -113 -1 -215 -43
-58 -24 -112 -49 -120 -56 -8 -7 -46 -30 -85 -51 -38 -21 -84 -51 -102 -66
-57 -49 -143 -49 -98 1 16 17 16 24 6 44 -19 34 -10 60 21 64 17 2 41 21 69
53 46 54 72 68 159 89 30 7 63 19 72 28 50 43 260 53 378 17z m35 -149 c19 -8
35 -19 35 -24 0 -5 13 -15 29 -22 16 -6 38 -21 48 -32 18 -21 18 -21 -12 -15
-16 4 -94 12 -172 18 -137 12 -142 11 -178 -9 -20 -12 -44 -22 -54 -22 -22 0
-111 -56 -111 -70 0 -5 -11 -10 -25 -10 -14 0 -37 -7 -51 -16 -44 -29 -49 -2
-9 46 69 83 177 149 276 170 57 12 180 4 224 -14z m-800 -206 c-3 -5 -13 -10
-21 -10 -8 0 -12 5 -9 10 3 6 13 10 21 10 8 0 12 -4 9 -10z m45 -100 c0 -5 -4
-10 -10 -10 -5 0 -10 5 -10 10 0 6 5 10 10 10 6 0 10 -4 10 -10z"/>
<path d="M6795 10310 c3 -5 8 -10 11 -10 2 0 4 5 4 10 0 6 -5 10 -11 10 -5 0
-7 -4 -4 -10z"/>
<path d="M2576 10274 c-4 -9 -4 -19 -1 -22 6 -6 35 18 35 29 0 16 -28 10 -34
-7z"/>
<path d="M6767 10253 c-21 -8 -36 -21 -34 -27 6 -18 44 -19 70 -1 13 8 32 13
41 9 12 -4 16 0 16 15 0 26 -36 28 -93 4z"/>
<path d="M3153 10229 c-25 -9 -30 -19 -10 -19 15 0 43 17 37 23 -3 3 -15 1
-27 -4z"/>
<path d="M2545 10210 c3 -5 8 -10 11 -10 2 0 4 5 4 10 0 6 -5 10 -11 10 -5 0
-7 -4 -4 -10z"/>
<path d="M6874 10186 c-6 -17 2 -36 17 -36 12 0 12 37 -1 45 -6 3 -13 -1 -16
-9z"/>
<path d="M6610 10180 c0 -5 6 -10 14 -10 8 0 18 5 21 10 3 6 -3 10 -14 10 -12
0 -21 -4 -21 -10z"/>
<path d="M6815 10170 c-4 -6 -3 -16 3 -22 6 -6 12 -6 17 2 4 6 3 16 -3 22 -6
6 -12 6 -17 -2z"/>
<path d="M6640 10138 c0 -7 26 -37 58 -68 32 -31 62 -68 65 -83 4 -14 21 -40
37 -57 17 -17 30 -37 30 -45 0 -20 16 -19 24 1 3 9 -3 31 -14 49 -11 18 -20
39 -20 46 0 8 -17 28 -37 45 -26 22 -34 36 -30 48 6 14 10 15 29 5 13 -7 28
-18 33 -24 6 -7 32 -15 58 -19 80 -10 156 -55 95 -56 -19 -1 -18 -3 10 -15 37
-16 41 -30 12 -38 -21 -5 -28 -27 -10 -27 6 0 22 -12 35 -26 15 -16 31 -24 40
-20 13 5 12 12 -5 56 -11 28 -20 66 -20 85 0 26 -7 38 -30 55 -18 13 -30 30
-30 44 0 12 -6 31 -14 41 -13 18 -15 18 -51 -14 -35 -30 -41 -32 -89 -26 -76
10 -122 23 -136 40 -15 18 -40 20 -40 3z"/>
<path d="M2540 10089 c0 -5 5 -7 10 -4 6 3 10 8 10 11 0 2 -4 4 -10 4 -5 0
-10 -5 -10 -11z"/>
<path d="M3470 9940 c-8 -5 -12 -12 -9 -15 8 -8 39 5 39 16 0 11 -11 11 -30
-1z"/>
<path d="M6220 9915 c-92 -26 -380 -161 -395 -185 -9 -14 34 -12 131 5 44 7
156 19 250 25 93 5 210 15 261 21 67 8 109 8 156 0 35 -6 74 -11 86 -11 19 0
20 3 10 21 -9 18 -174 104 -219 114 -8 2 -31 9 -50 14 -47 15 -174 12 -230 -4z"/>
<path d="M7221 9885 c-18 -8 -55 -15 -82 -15 -37 0 -49 -4 -49 -15 0 -53 179
-23 198 33 5 16 -25 14 -67 -3z"/>
<path d="M6926 9751 c5 -5 65 -17 134 -26 196 -26 220 -28 220 -16 0 6 -3 11
-7 11 -5 0 -78 9 -163 20 -177 23 -198 24 -184 11z"/>
<path d="M7125 9640 c9 -14 105 -62 105 -53 -1 13 -77 63 -95 63 -9 0 -13 -5
-10 -10z"/>
<path d="M6580 9558 c-14 -6 -119 -14 -235 -18 -139 -5 -225 -13 -255 -23
l-45 -14 30 -13 c42 -18 255 -25 355 -11 52 7 103 21 138 38 75 38 85 73 12
41z"/>
<path d="M7127 9553 c-4 -3 -7 -15 -7 -25 0 -15 -5 -18 -21 -13 l-22 7 22 -31
c26 -36 35 -40 26 -11 -9 27 -3 26 54 -15 46 -33 81 -45 81 -27 0 10 -78 92
-87 92 -4 0 -14 7 -23 15 -9 8 -20 12 -23 8z"/>
<path d="M5978 9493 c7 -3 16 -2 19 1 4 3 -2 6 -13 5 -11 0 -14 -3 -6 -6z"/>
<path d="M6640 9490 c-13 -8 -13 -10 2 -10 9 0 20 5 23 10 8 13 -5 13 -25 0z"/>
<path d="M6200 9400 c8 -5 29 -9 45 -9 26 0 27 2 10 9 -11 5 -31 9 -45 9 -20
1 -22 -1 -10 -9z"/>
<path d="M4120 9339 c-14 -6 -52 -12 -85 -14 -33 -2 -80 -12 -103 -23 l-44
-20 23 -16 c13 -9 32 -16 42 -16 11 0 41 -12 68 -27 l49 -26 108 26 c59 14
134 31 167 37 63 13 135 44 135 59 0 20 -319 38 -360 20z"/>
<path d="M3344 9307 c-8 -21 2 -35 16 -21 5 5 6 15 0 24 -8 12 -10 12 -16 -3z"/>
<path d="M3650 9200 c0 -5 5 -10 10 -10 6 0 10 5 10 10 0 6 -4 10 -10 10 -5 0
-10 -4 -10 -10z"/>
<path d="M5645 9181 c-3 -5 -19 -12 -36 -16 -63 -14 -43 -63 49 -122 31 -20
93 -71 137 -113 71 -67 81 -81 90 -125 8 -40 16 -53 39 -64 36 -17 173 -147
181 -170 3 -10 14 -22 25 -27 11 -5 48 -44 82 -86 35 -42 112 -134 172 -205
59 -70 130 -159 156 -198 51 -76 86 -112 97 -101 4 3 1 12 -5 18 -7 7 -12 21
-12 33 0 12 -5 26 -12 33 -6 6 -15 35 -19 64 -4 29 -11 63 -14 74 -6 20 -4 21
39 17 31 -4 46 -2 46 6 0 14 -48 34 -66 27 -7 -3 -20 2 -31 9 -15 12 -16 17
-6 34 11 17 8 23 -21 49 -19 16 -38 31 -43 33 -4 2 -23 23 -41 47 -19 23 -42
42 -53 42 -26 0 -24 15 4 28 16 8 18 11 5 11 -9 1 -30 18 -47 38 -31 38 -51
41 -31 4 6 -12 7 -21 2 -21 -11 0 -32 45 -32 69 0 10 -12 24 -26 31 -14 8 -35
28 -46 45 -27 38 -53 60 -101 86 -21 11 -43 31 -49 44 -6 14 -16 25 -22 25
-16 0 -106 92 -106 108 0 7 -10 12 -23 12 -27 0 -47 17 -47 41 0 10 -22 44
-50 75 -27 31 -50 63 -50 71 0 7 -9 13 -20 13 -11 0 -20 7 -20 15 0 16 -55 55
-77 55 -6 0 -14 -4 -18 -9z"/>
<path d="M3410 9130 c0 -5 5 -10 10 -10 6 0 10 5 10 10 0 6 -4 10 -10 10 -5 0
-10 -4 -10 -10z"/>
<path d="M4829 9087 c-62 -59 -119 -128 -119 -144 0 -9 -5 -30 -11 -47 -9 -25
-8 -39 5 -70 l16 -39 33 55 c44 72 97 186 97 207 0 10 7 26 15 37 34 44 11 46
-36 1z"/>
<path d="M3340 9080 c0 -5 7 -10 15 -10 8 0 15 5 15 10 0 6 -7 10 -15 10 -8 0
-15 -4 -15 -10z"/>
<path d="M4837 8868 c-15 -29 -32 -72 -37 -95 -6 -24 -28 -62 -51 -89 -22 -26
-38 -53 -35 -60 3 -8 1 -14 -4 -14 -6 0 -10 33 -10 75 0 41 -3 75 -7 75 -10 0
-63 -139 -63 -162 0 -9 -9 -18 -22 -20 -14 -2 -25 -14 -33 -37 -9 -27 -20 -37
-50 -48 -42 -15 -54 -27 -55 -58 -1 -11 -15 -29 -32 -40 -31 -20 -48 -45 -30
-45 32 0 212 159 212 187 0 8 8 17 18 20 9 4 23 14 30 22 11 14 14 14 28 -4
26 -32 47 -85 59 -150 l11 -60 104 -3 103 -3 98 -94 c117 -112 157 -130 211
-97 19 12 58 52 88 89 114 145 162 178 279 194 104 15 169 37 186 63 9 13 23
62 32 109 19 100 15 111 -51 127 -69 17 -109 41 -163 98 l-52 54 -53 -5 c-72
-8 -96 -12 -104 -20 -4 -4 -20 -7 -36 -7 -18 0 -38 -10 -53 -25 -21 -24 -34
-27 -143 -36 -112 -9 -125 -8 -184 12 -88 30 -120 47 -144 76 l-21 24 -26 -53z"/>
<path d="M7386 8741 c-4 -5 -2 -12 3 -15 5 -4 12 -2 15 3 4 5 2 12 -3 15 -5 4
-12 2 -15 -3z"/>
<path d="M7432 8669 c1 -13 8 -23 13 -21 15 3 12 35 -3 40 -9 3 -13 -3 -10
-19z"/>
<path d="M7345 8629 c-4 -6 -5 -13 -2 -16 7 -7 27 6 27 18 0 12 -17 12 -25 -2z"/>
<path d="M7426 8621 c-4 -5 -2 -12 3 -15 5 -4 12 -2 15 3 4 5 2 12 -3 15 -5 4
-12 2 -15 -3z"/>
<path d="M7430 8526 c-6 -9 -10 -21 -8 -28 3 -8 9 -4 17 10 15 28 9 39 -9 18z"/>
<path d="M7370 8466 c0 -8 5 -18 10 -21 6 -3 10 1 10 9 0 8 -4 18 -10 21 -5 3
-10 -1 -10 -9z"/>
<path d="M7416 8405 c-4 -20 -4 -62 0 -93 l8 -57 9 45 c14 63 14 132 1 137 -7
2 -15 -12 -18 -32z"/>
<path d="M8287 8353 c-12 -11 -8 -22 13 -33 18 -9 20 -8 20 15 0 24 -18 34
-33 18z"/>
<path d="M3646 8285 c4 -8 10 -15 15 -15 5 0 9 7 9 15 0 8 -7 15 -15 15 -9 0
-12 -6 -9 -15z"/>
<path d="M7360 8254 c0 -8 5 -12 10 -9 6 3 10 10 10 16 0 5 -4 9 -10 9 -5 0
-10 -7 -10 -16z"/>
<path d="M4230 8149 c0 -5 5 -7 10 -4 6 3 10 8 10 11 0 2 -4 4 -10 4 -5 0 -10
-5 -10 -11z"/>
<path d="M4256 8115 c-30 -27 -45 -33 -65 -29 -24 5 -25 4 -8 -9 9 -8 17 -17
17 -21 0 -11 -25 -7 -38 7 -7 6 -31 12 -54 13 l-41 0 33 -27 c32 -27 32 -27 9
-31 -19 -2 -25 -10 -27 -35 -2 -20 1 -33 8 -33 6 0 8 -4 5 -10 -10 -16 -35
-12 -42 8 -3 9 -13 25 -21 35 -12 13 -13 20 -4 29 17 17 15 28 -7 28 -12 0
-23 -12 -31 -32 -8 -18 -20 -40 -27 -49 -41 -48 -60 -119 -32 -119 5 0 12 -1
15 -2 4 -2 8 10 10 26 3 32 32 77 54 84 7 3 10 0 6 -6 -3 -5 1 -13 10 -16 8
-3 13 -10 9 -16 -3 -5 0 -18 7 -29 9 -15 9 -23 -1 -35 -25 -30 9 -18 39 14 27
29 60 40 60 20 0 -5 -7 -10 -15 -10 -8 0 -15 -6 -15 -14 0 -19 17 -29 25 -16
3 5 22 10 41 10 40 0 42 6 12 37 -19 20 -19 23 -4 23 9 0 19 8 23 18 3 9 15
27 27 40 18 20 19 27 8 54 -13 36 -7 54 14 37 11 -9 14 -9 14 1 0 6 9 23 20
37 20 26 27 53 13 53 -5 -1 -26 -16 -47 -35z m-56 -125 c0 -5 -4 -10 -9 -10
-6 0 -13 5 -16 10 -3 6 1 10 9 10 9 0 16 -4 16 -10z m-45 -19 c7 -12 -12 -24
-25 -16 -11 7 -4 25 10 25 5 0 11 -4 15 -9z"/>
<path d="M4140 8110 c0 -5 4 -10 9 -10 6 0 13 5 16 10 3 6 -1 10 -9 10 -9 0
-16 -4 -16 -10z"/>
<path d="M7830 8027 c0 -24 6 -52 14 -62 14 -19 15 -19 34 -2 22 20 33 50 23
64 -8 12 -53 43 -63 43 -5 0 -8 -19 -8 -43z"/>
<path d="M5576 7952 c-9 -18 -22 -29 -29 -26 -7 2 -29 -2 -48 -10 -18 -7 -59
-17 -89 -21 -30 -4 -67 -14 -82 -21 -22 -11 -32 -12 -47 -2 -15 9 -39 6 -123
-15 -131 -35 -198 -43 -226 -28 -17 9 -28 8 -51 -4 -17 -8 -41 -15 -54 -15
-13 0 -57 -16 -97 -36 -70 -35 -76 -36 -101 -22 -18 11 -42 14 -78 10 -56 -5
-61 -10 -31 -37 28 -25 25 -33 -14 -40 -38 -8 -76 -38 -76 -60 0 -9 -18 -20
-45 -27 -46 -12 -57 -32 -33 -56 6 -6 19 -33 28 -59 12 -37 22 -49 39 -51 13
-2 27 1 30 7 4 6 27 21 51 34 65 34 182 102 282 164 227 141 398 188 723 200
190 7 258 -1 504 -62 208 -51 329 -75 382 -75 36 0 39 2 39 28 0 33 -58 102
-86 102 -11 0 -41 7 -68 15 -27 8 -61 15 -75 15 -14 0 -41 11 -62 25 -54 38
-103 43 -141 15 -28 -20 -35 -21 -87 -11 -31 6 -95 15 -143 21 -95 11 -152 31
-166 57 -8 14 -12 12 -26 -15z m-651 -151 c8 -14 -13 -24 -33 -16 -14 5 -14 7
-2 15 19 12 27 12 35 1z"/>
<path d="M5275 7931 c-3 -5 -1 -12 5 -16 12 -7 30 2 30 16 0 12 -27 12 -35 0z"/>
<path d="M5225 7919 c-10 -15 3 -25 16 -12 7 7 7 13 1 17 -6 3 -14 1 -17 -5z"/>
<path d="M8275 7869 c-4 -6 -5 -13 -2 -16 7 -7 27 6 27 18 0 12 -17 12 -25 -2z"/>
<path d="M4150 7818 c0 -22 17 -41 29 -34 8 5 8 13 1 27 -12 21 -30 26 -30 7z"/>
<path d="M4176 7762 c-3 -6 -1 -14 5 -17 15 -10 25 3 12 16 -7 7 -13 7 -17 1z"/>
<path d="M3740 7714 c0 -8 5 -12 10 -9 6 3 10 10 10 16 0 5 -4 9 -10 9 -5 0
-10 -7 -10 -16z"/>
<path d="M4340 7660 c0 -5 5 -10 10 -10 6 0 10 5 10 10 0 6 -4 10 -10 10 -5 0
-10 -4 -10 -10z"/>
<path d="M5902 7613 c2 -12 14 -19 33 -21 17 -2 34 -8 40 -13 13 -13 25 -11
25 5 0 15 -57 46 -85 46 -10 0 -15 -6 -13 -17z"/>
<path d="M5660 7599 c-19 -5 -105 -20 -190 -33 -135 -20 -157 -22 -176 -9 -16
10 -50 14 -121 12 -62 -1 -108 3 -122 11 -19 10 -26 9 -42 -6 -14 -12 -29 -15
-61 -11 -32 4 -48 1 -61 -10 -11 -11 -36 -17 -68 -17 -42 -1 -55 -6 -74 -29
-13 -15 -29 -27 -34 -27 -13 0 -3 -29 17 -52 12 -14 12 -20 2 -33 -11 -13 -9
-15 14 -15 14 0 26 -4 26 -9 0 -5 13 -11 29 -14 19 -4 34 -16 43 -34 9 -19 22
-29 41 -31 19 -2 31 -11 37 -28 12 -30 37 -41 61 -26 12 8 26 9 43 3 18 -8 34
-4 68 14 24 13 73 31 108 40 97 25 316 55 404 55 78 0 78 0 72 24 -5 21 -2 25
21 28 20 2 29 9 31 26 4 26 14 28 32 7 7 -8 17 -12 22 -8 6 3 1 14 -13 24
l-24 19 41 0 c32 0 46 6 74 35 18 19 36 32 40 30 7 -4 37 12 30 17 -3 2 -22
16 -42 31 -33 24 -45 27 -115 26 -43 -1 -94 -5 -113 -10z m-780 -248 c0 -6 -4
-13 -10 -16 -5 -3 -10 1 -10 9 0 9 5 16 10 16 6 0 10 -4 10 -9z m105 -41 c-3
-5 -20 -10 -36 -10 -18 0 -28 4 -24 10 3 6 20 10 36 10 18 0 28 -4 24 -10z
m85 -10 c0 -5 -4 -10 -9 -10 -6 0 -13 5 -16 10 -3 6 1 10 9 10 9 0 16 -4 16
-10z m-40 -26 c0 -8 -4 -12 -10 -9 -5 3 -10 13 -10 21 0 8 5 12 10 9 6 -3 10
-13 10 -21z"/>
<path d="M7520 7536 c0 -15 18 -31 26 -23 7 7 -7 37 -17 37 -5 0 -9 -6 -9 -14z"/>
<path d="M7280 7401 c0 -25 6 -27 13 -6 4 8 2 17 -3 20 -6 4 -10 -3 -10 -14z"/>
<path d="M7342 7399 c-13 -20 -12 -21 8 -16 13 3 23 0 27 -9 9 -23 23 -16 23
11 0 14 -4 25 -9 25 -5 0 -15 2 -23 5 -7 3 -19 -4 -26 -16z"/>
<path d="M4785 7300 c3 -5 11 -10 16 -10 6 0 7 5 4 10 -3 6 -11 10 -16 10 -6
0 -7 -4 -4 -10z"/>
<path d="M7210 7265 c0 -8 5 -15 10 -15 6 0 10 7 10 15 0 8 -4 15 -10 15 -5 0
-10 -7 -10 -15z"/>
<path d="M7000 7203 c0 -12 5 -25 10 -28 13 -8 13 15 0 35 -8 12 -10 11 -10
-7z"/>
<path d="M7130 7210 c0 -5 5 -10 10 -10 6 0 10 5 10 10 0 6 -4 10 -10 10 -5 0
-10 -4 -10 -10z"/>
<path d="M7052 7178 c3 -7 13 -15 22 -16 12 -3 17 1 14 10 -3 7 -13 15 -22 16
-12 3 -17 -1 -14 -10z"/>
<path d="M6970 7130 c0 -5 5 -10 10 -10 6 0 10 5 10 10 0 6 -4 10 -10 10 -5 0
-10 -4 -10 -10z"/>
<path d="M3995 7050 c3 -5 10 -10 16 -10 5 0 9 5 9 10 0 6 -7 10 -16 10 -8 0
-12 -4 -9 -10z"/>
<path d="M6975 7051 c-3 -6 -2 -11 4 -11 6 0 17 -12 26 -27 l15 -28 -2 35 c-3
35 -29 53 -43 31z"/>
<path d="M6950 6995 c7 -8 17 -15 22 -15 6 0 5 7 -2 15 -7 8 -17 15 -22 15 -6
0 -5 -7 2 -15z"/>
<path d="M6860 6872 c0 -13 39 -46 46 -39 3 3 3 10 -1 16 -9 15 -45 33 -45 23z"/>
<path d="M5537 6573 c-4 -3 -7 -11 -7 -17 0 -6 5 -5 12 2 6 6 9 14 7 17 -3 3
-9 2 -12 -2z"/>
<path d="M3707 5257 c-19 -30 -47 -76 -61 -103 -14 -27 -30 -56 -35 -64 -5 -8
-24 -51 -41 -95 -37 -89 -79 -181 -111 -238 -16 -29 -26 -36 -40 -32 -14 5
-22 0 -29 -19 -5 -14 -18 -30 -29 -36 -11 -5 -18 -16 -15 -23 7 -20 -64 -124
-90 -131 -14 -3 -26 -16 -29 -29 -4 -12 -23 -46 -44 -75 -60 -83 -83 -122 -83
-143 0 -10 -4 -19 -10 -19 -5 0 -10 5 -10 10 0 19 -19 10 -26 -12 -4 -13 -22
-45 -41 -72 -32 -46 -33 -50 -17 -67 16 -18 16 -19 -5 -19 -12 0 -32 5 -43 11
-20 11 -29 5 -42 -26 -2 -6 -9 -5 -17 3 -7 6 -20 12 -28 12 -11 0 -9 -6 7 -23
22 -23 22 -24 4 -40 -10 -9 -27 -17 -37 -17 -15 0 -15 -2 -4 -16 10 -13 10
-17 -2 -25 -26 -17 -64 -6 -67 20 -4 28 -28 56 -37 42 -3 -5 -1 -12 5 -16 5
-3 -6 -22 -26 -43 -21 -22 -33 -43 -31 -53 3 -11 -2 -19 -15 -22 -10 -3 -24
-19 -31 -36 -6 -17 -17 -31 -24 -31 -17 0 -33 -33 -33 -69 0 -30 -24 -45 -32
-21 -2 6 -19 -1 -38 -15 -42 -31 -46 -31 -54 -3 -4 17 -8 20 -17 11 -9 -9 -8
-18 5 -37 19 -30 15 -32 -20 -10 -23 16 -26 15 -45 -2 l-21 -19 33 -5 c26 -4
34 -10 34 -25 0 -30 -41 -32 -72 -3 -24 23 -25 23 -39 4 -17 -24 -18 -38 -2
-54 10 -9 9 -16 -4 -28 -13 -13 -22 -15 -47 -6 -29 10 -30 10 -33 -26 -5 -55
-31 -54 -65 2 -27 44 -53 64 -37 29 14 -33 16 -103 3 -119 -21 -26 4 -38 39
-20 39 20 38 20 48 -6 6 -19 8 -16 11 20 3 26 10 45 19 49 24 9 27 -3 13 -52
-13 -44 -48 -73 -57 -46 -6 19 -22 12 -32 -15 -8 -19 -7 -31 2 -41 10 -13 14
-12 28 7 10 13 22 19 33 15 16 -7 33 -42 25 -51 -3 -2 -47 -7 -99 -10 -71 -5
-104 -12 -134 -29 -40 -22 -58 -23 -85 0 -8 7 -33 18 -55 25 -38 12 -75 36
-75 49 0 3 21 17 46 31 l46 24 -22 18 c-29 23 -36 23 -43 -3 -6 -23 -33 -20
-76 10 -22 15 -51 33 -59 38 -8 4 20 73 29 73 5 0 9 -12 9 -26 0 -39 18 -64
45 -64 30 0 31 4 5 30 -19 19 -27 50 -13 50 3 0 14 -7 23 -15 12 -10 27 -13
49 -9 29 6 32 10 27 33 -16 67 -18 101 -7 101 6 0 11 -9 11 -20 0 -23 34 -95
49 -105 12 -7 31 26 31 54 0 24 -10 27 -28 9 -9 -9 -12 -8 -12 5 0 10 7 20 16
24 12 4 14 14 8 47 -6 37 -5 39 10 27 8 -7 23 -11 31 -7 22 8 19 49 -5 64 -11
7 -20 23 -20 37 0 28 -25 95 -36 95 -3 0 -3 -28 0 -63 8 -74 2 -97 -28 -97
-21 1 -21 1 -2 15 19 15 19 15 -4 37 l-24 23 28 5 29 5 -29 34 -28 34 -19 -44
c-16 -39 -17 -45 -3 -55 30 -22 12 -44 -36 -44 -17 0 -20 4 -14 30 8 41 -10
38 -31 -5 -13 -28 -22 -35 -46 -35 -20 0 -30 -6 -34 -20 -3 -10 -13 -22 -24
-25 -10 -3 -41 -33 -69 -65 -54 -62 -136 -125 -145 -111 -7 13 47 83 145 187
81 86 150 176 150 196 0 22 -28 4 -43 -27 -20 -41 -34 -44 -47 -10 -5 14 -16
25 -25 25 -9 0 -20 -11 -25 -25 -10 -26 -29 -32 -46 -16 -5 5 -20 11 -34 13
-31 4 -33 22 -2 26 36 5 26 17 -26 29 -33 8 -51 8 -60 0 -15 -12 -32 6 -32 36
0 9 -4 17 -10 17 -5 0 -10 -9 -10 -20 0 -11 -7 -20 -15 -20 -8 0 -15 -4 -15
-10 0 -17 -28 -11 -66 15 -39 27 -59 31 -69 15 -11 -18 -25 0 -25 31 0 16 -4
29 -8 29 -4 0 -29 -14 -55 -30 -45 -29 -49 -29 -77 -15 -16 8 -40 15 -53 15
-14 0 -30 7 -37 15 -15 18 -50 20 -50 4 0 -8 -15 -10 -49 -5 -43 6 -49 4 -54
-14 -4 -17 -13 -20 -55 -20 -28 0 -54 -4 -57 -10 -3 -5 -18 -10 -32 -10 -16 0
-27 -7 -30 -19 -4 -17 -6 -17 -28 5 -26 26 -46 30 -75 14 -13 -7 -21 -6 -30 5
-18 21 -38 19 -76 -10 -27 -21 -44 -25 -98 -25 -52 0 -66 -3 -66 -15 0 -18
-12 -19 -27 -4 -7 7 -20 4 -44 -10 -18 -11 -51 -23 -74 -27 -22 -3 -53 -16
-70 -30 l-30 -24 -3 -1875 -3 -1875 1698 0 c1576 1 1931 5 1962 24 9 6 7 16
-8 39 -24 40 -28 64 -41 217 -35 442 -59 1242 -70 2285 -7 714 -14 981 -30
1238 -21 339 -23 454 -11 497 7 25 8 24 28 -14 11 -21 22 -35 26 -30 3 5 15
77 27 159 43 300 104 607 155 785 38 129 31 144 -28 57z m-325 -649 c-6 -6
-16 -7 -22 -3 -9 6 -9 9 1 16 17 10 34 0 21 -13z m-652 -688 c0 -5 -4 -10 -10
-10 -5 0 -10 5 -10 10 0 6 5 10 10 10 6 0 10 -4 10 -10z m-1250 -136 c0 -29
-22 -25 -49 9 -11 14 -11 20 0 33 12 15 15 14 31 -6 10 -12 18 -28 18 -36z
m860 -260 c0 -31 -23 -28 -28 4 -2 15 2 22 12 22 11 0 16 -9 16 -26z m109 -15
c-19 -12 -49 -11 -49 0 0 10 40 20 54 13 4 -3 2 -8 -5 -13z m-63 -46 c-10 -10
-19 5 -10 18 6 11 8 11 12 0 2 -7 1 -15 -2 -18z m-511 -202 c3 -5 1 -12 -5
-16 -5 -3 -10 1 -10 9 0 18 6 21 15 7z m335 -539 c0 -13 -12 -22 -22 -16 -10
6 -1 24 13 24 5 0 9 -4 9 -8z m-1050 -72 c0 -18 -46 -40 -96 -46 l-49 -6 30
21 c17 11 38 21 47 21 9 0 20 5 23 10 8 13 45 13 45 0z m2080 -2280 c22 -22
26 -40 10 -40 -5 0 -10 5 -10 11 0 11 -19 10 -129 -7 -63 -10 -50 16 20 38 71
22 85 22 109 -2z m-24 -175 c-21 -16 -86 -21 -86 -7 0 17 14 22 59 22 43 -1
45 -2 27 -15z"/>
<path d="M4100 5140 c0 -5 5 -10 10 -10 6 0 10 5 10 10 0 6 -4 10 -10 10 -5 0
-10 -4 -10 -10z"/>
<path d="M4410 4951 c0 -6 5 -13 10 -16 6 -3 10 1 10 9 0 9 -4 16 -10 16 -5 0
-10 -4 -10 -9z"/>
<path d="M4450 4946 c0 -23 31 -49 43 -37 7 7 5 17 -8 31 -21 23 -35 26 -35 6z"/>
<path d="M3185 4844 c-127 -58 -223 -118 -115 -71 79 35 257 126 245 126 -5 1
-64 -24 -130 -55z"/>
<path d="M4905 4680 c-3 -5 3 -10 14 -10 12 0 21 5 21 10 0 6 -6 10 -14 10 -8
0 -18 -4 -21 -10z"/>
<path d="M4900 4425 c0 -8 5 -15 10 -15 6 0 10 7 10 15 0 8 -4 15 -10 15 -5 0
-10 -7 -10 -15z"/>
<path d="M8859 4269 c13 -11 26 -17 29 -14 7 6 -29 34 -43 34 -5 0 1 -9 14
-20z"/>
<path d="M8650 4250 c12 -23 35 -22 35 1 0 8 -10 15 -23 17 -21 3 -22 1 -12
-18z"/>
<path d="M9848 3943 c7 -3 16 -2 19 1 4 3 -2 6 -13 5 -11 0 -14 -3 -6 -6z"/>
<path d="M9965 3910 c11 -5 31 -9 45 -9 23 0 23 1 5 9 -11 5 -31 9 -45 9 -23
0 -23 -1 -5 -9z"/>
<path d="M2047 3893 c-4 -3 -7 -11 -7 -17 0 -6 5 -5 12 2 6 6 9 14 7 17 -3 3
-9 2 -12 -2z"/>
<path d="M2570 3870 c0 -5 7 -10 16 -10 8 0 12 5 9 10 -3 6 -10 10 -16 10 -5
0 -9 -4 -9 -10z"/>
<path d="M10171 3866 c7 -8 152 -46 157 -42 2 3 -27 14 -66 25 -66 20 -101 26
-91 17z"/>
<path d="M1975 3830 c-3 -5 -2 -10 4 -10 5 0 13 5 16 10 3 6 2 10 -4 10 -5 0
-13 -4 -16 -10z"/>
<path d="M2490 3830 c0 -5 7 -10 15 -10 8 0 15 5 15 10 0 6 -7 10 -15 10 -8 0
-15 -4 -15 -10z"/>
<path d="M1994 3769 c-3 -6 -1 -16 5 -22 8 -8 11 -5 11 11 0 24 -5 28 -16 11z"/>
<path d="M2165 3729 c-10 -15 3 -25 16 -12 7 7 7 13 1 17 -6 3 -14 1 -17 -5z"/>
<path d="M9275 3710 c3 -5 15 -10 26 -10 11 0 17 5 14 10 -3 6 -15 10 -26 10
-11 0 -17 -4 -14 -10z"/>
<path d="M2166 3691 c-4 -5 -2 -12 3 -15 5 -4 12 -2 15 3 4 5 2 12 -3 15 -5 4
-12 2 -15 -3z"/>
<path d="M2100 3665 c7 -8 16 -15 21 -15 5 0 9 7 9 15 0 9 -9 15 -21 15 -18 0
-19 -2 -9 -15z"/>
<path d="M2007 3663 c-4 -3 -7 -19 -7 -34 0 -15 -5 -31 -11 -35 -8 -5 -6 -10
5 -16 20 -11 21 -28 2 -28 -31 0 -23 -64 16 -121 16 -23 16 -22 6 25 -8 40 -7
54 5 76 13 21 14 38 8 79 -9 54 -13 65 -24 54z"/>
<path d="M2210 3650 c0 -5 5 -10 11 -10 5 0 7 5 4 10 -3 6 -8 10 -11 10 -2 0
-4 -4 -4 -10z"/>
<path d="M9664 3574 c15 -14 31 -23 34 -20 9 9 -30 46 -47 46 -11 -1 -8 -8 13
-26z"/>
<path d="M6920 3463 c0 -12 5 -25 10 -28 13 -8 13 15 0 35 -8 12 -10 11 -10
-7z"/>
<path d="M1927 3419 c-17 -30 -17 -31 4 -36 14 -4 19 -12 16 -24 -3 -11 -1
-21 3 -24 15 -10 21 52 8 84 l-13 31 -18 -31z"/>
<path d="M2062 3409 c2 -6 8 -10 13 -10 5 0 11 4 13 10 2 6 -4 11 -13 11 -9 0
-15 -5 -13 -11z"/>
<path d="M1993 3345 c-21 -43 -13 -51 34 -37 21 6 50 14 66 17 19 4 27 12 27
26 0 19 -4 20 -34 15 -20 -4 -37 -2 -41 4 -12 20 -36 9 -52 -25z"/>
<path d="M6680 3367 c0 -8 170 -77 192 -77 14 0 19 6 16 22 -2 16 -14 27 -40
35 -42 14 -168 29 -168 20z"/>
<path d="M1890 3325 c0 -22 4 -34 10 -30 6 3 10 17 10 30 0 13 -4 27 -10 30
-6 4 -10 -8 -10 -30z"/>
<path d="M6910 3281 c0 -8 34 -21 55 -21 11 1 -35 29 -47 30 -5 0 -8 -4 -8 -9z"/>
<path d="M6470 2033 c0 -13 5 -23 10 -23 13 0 13 11 0 30 -8 12 -10 11 -10 -7z"/>
<path d="M5530 1643 c0 -10 5 -25 10 -33 8 -12 10 -9 10 12 0 15 -4 30 -10 33
-5 3 -10 -2 -10 -12z"/>
<path d="M6600 1561 c0 -5 5 -13 10 -16 6 -3 10 -2 10 4 0 5 -4 13 -10 16 -5
3 -10 2 -10 -4z"/>
<path d="M6630 1489 c0 -11 4 -18 10 -14 5 3 7 12 3 20 -7 21 -13 19 -13 -6z"/>
<path d="M6660 1363 c0 -6 11 -65 25 -131 14 -66 36 -211 50 -322 14 -111 32
-217 40 -235 10 -25 10 -35 2 -38 -9 -3 -8 -8 2 -20 7 -9 11 -23 8 -32 -5 -13
10 -102 28 -161 4 -12 2 -25 -4 -28 -7 -5 -3 -24 10 -59 19 -48 33 -127 46
-264 4 -48 25 -84 40 -69 3 3 1 36 -5 73 -6 38 -25 160 -43 273 -43 286 -134
789 -164 911 -23 94 -35 129 -35 102z"/>
<path d="M6270 1285 c0 -8 5 -15 10 -15 6 0 10 7 10 15 0 8 -4 15 -10 15 -5 0
-10 -7 -10 -15z"/>
<path d="M5615 1220 c-3 -5 -1 -10 4 -10 6 0 11 5 11 10 0 6 -2 10 -4 10 -3 0
-8 -4 -11 -10z"/>
<path d="M5780 1074 c0 -8 5 -12 10 -9 6 3 10 10 10 16 0 5 -4 9 -10 9 -5 0
-10 -7 -10 -16z"/>
<path d="M5875 1000 c3 -5 8 -10 11 -10 2 0 4 5 4 10 0 6 -5 10 -11 10 -5 0
-7 -4 -4 -10z"/>
<path d="M5900 955 c0 -8 5 -15 10 -15 6 0 10 7 10 15 0 8 -4 15 -10 15 -5 0
-10 -7 -10 -15z"/>
<path d="M6115 960 c3 -5 8 -10 11 -10 2 0 4 5 4 10 0 6 -5 10 -11 10 -5 0 -7
-4 -4 -10z"/>
<path d="M5980 950 c0 -5 5 -10 10 -10 6 0 10 5 10 10 0 6 -4 10 -10 10 -5 0
-10 -4 -10 -10z"/>
<path d="M6030 883 c0 -4 7 -15 17 -25 14 -15 14 -22 3 -42 -11 -21 -10 -28 6
-50 11 -14 23 -26 28 -26 11 0 1 79 -15 113 -11 24 -39 45 -39 30z"/>
<path d="M6182 810 c0 -19 2 -27 5 -17 2 9 2 25 0 35 -3 9 -5 1 -5 -18z"/>
<path d="M6225 820 c3 -5 8 -10 11 -10 2 0 4 5 4 10 0 6 -5 10 -11 10 -5 0 -7
-4 -4 -10z"/>
</g>
</svg>
