<svg id="Layer_2" data-name="Layer 2" xmlns="http://www.w3.org/2000/svg" viewBox="0 0 498.25 498.33"><defs><style>.cls-1{fill:#ececec;}.cls-2{fill:#cecece;}.cls-3{fill:#bc3f3d;}.cls-4{opacity:0.55;}.cls-5{fill:#fff;}</style></defs><circle class="cls-1" cx="1696.14" cy="870.51" r="249.11" transform="translate(-1565.78 833.03) rotate(-45)"/><path class="cls-2" d="M1825.63,657.66a248.14,248.14,0,0,1,58.13,159.93c0,137.58-111.53,249.11-249.11,249.11a247.88,247.88,0,0,1-129.49-36.26,248.57,248.57,0,0,0,191,89.18c137.58,0,249.11-111.53,249.11-249.11A249,249,0,0,0,1825.63,657.66Z" transform="translate(-1447.03 -621.29)"/><path class="cls-3" d="M1940,863.1a57,57,0,0,0-8.31-17.08,2.56,2.56,0,0,0-3.42-.9,2.52,2.52,0,0,0-.89,3.42,52.76,52.76,0,0,1,7.46,14.81c-2.77.19-8.91.2-8.91.2a109.86,109.86,0,0,0-14-17.06,2.5,2.5,0,0,0-3.54,3.53,87.19,87.19,0,0,1,12.12,14.81c-3.21.44-6.68,1-10.38,1.67a1.3,1.3,0,0,0-.15-.18l-15.45-16.63a2.5,2.5,0,0,0-3.53,3.54l13.38,14.39c-5.62,1.17-11.69,2.63-18.15,4.46-.11-.18-11.25-10-16.68-14.77a2.55,2.55,0,0,0-3.53,0,2.51,2.51,0,0,0,0,3.53l14.67,12.87c-1.5.45-11.57,3.79-15.29,5.17a147.57,147.57,0,0,1-15.79-14.73,2.52,2.52,0,0,0-3.53,0,2.55,2.55,0,0,0,0,3.54,147.31,147.31,0,0,0,14,13.24q-6,2.37-12.26,5.21c-.2-.36-15.26-9.62-22.56-13.7-2.82-1.57-5.34,2.75-2.53,4.32,6.74,3.76,13.23,8,19.93,11.78-5.23,2.5-10.61,5.28-16.09,8.34l-19.3-10.69c-2.82-1.56-5.34,2.76-2.52,4.32l16.74,9.27q-6.19,3.63-12.52,7.77c-.19-.12-15.54-5.32-23.2-7.21-3.12-.77-4.45,4-1.32,4.82,6.56,1.62,13,3.58,19.43,5.81-4.52,3.1-9.08,6.41-13.64,9.95a134.63,134.63,0,0,0-14.35-3.78,139.26,139.26,0,0,0-15.32-2.49,2.51,2.51,0,0,0-2.5,2.5,2.56,2.56,0,0,0,2.5,2.5,127.23,127.23,0,0,1,14.38,2.4c3.53.76,7.06,1.61,10.53,2.62q-8,6.45-16,13.86-12.16-.84-24.35-.54c-3.21.09-3.22,5.09,0,5q9.69-.24,19.37.27c-3.93,3.81-7.85,7.79-11.73,12a105.58,105.58,0,0,1-20.07-1.86,2.55,2.55,0,0,0-3.07,1.74,2.52,2.52,0,0,0,1.74,3.08,112.14,112.14,0,0,0,16.93,2c-3.13,3.51-11.14,13.18-12,14.32a147,147,0,0,0-24.88,1.88,2.5,2.5,0,0,0,1.33,4.82,137.89,137.89,0,0,1,19.67-1.69c-3,4-5.84,7.92-8.5,11.82-.25-.09-18.52,1.73-26.63,5.43a2.52,2.52,0,0,0-.9,3.42,2.57,2.57,0,0,0,3.42.9,54.8,54.8,0,0,1,20.84-4.84c-4.5,6.91-8.46,13.67-11.94,20.21-.45-.17-18,6-26.32,8.85a2.55,2.55,0,0,0-1.75,3.07,2.52,2.52,0,0,0,3.08,1.75q11-3.77,22-7.81c-2,4.09-3.88,8.07-5.57,12q-9.27,4.2-18.75,8a2.56,2.56,0,0,0-1.74,3.07,2.51,2.51,0,0,0,3.07,1.75c4.93-2,9.81-4,14.66-6.13q-2.45,6.13-4.34,11.83a.93.93,0,0,0-.19.11l-20.57,15.84a2.58,2.58,0,0,0-.9,3.42,2.52,2.52,0,0,0,3.42.9l15.67-12.07c-1.49,5.1-2.67,9.85-3.59,14.18-.24,1.09-.45,2.15-.66,3.21h0c-.49.29-12,10.06-16.51,15.38a2.55,2.55,0,0,0-1,2.1,2.38,2.38,0,0,0,.47,1.52,14.16,14.16,0,0,0,1.15.83c.09,0,2,.13,2.62-.55a78.55,78.55,0,0,1,12-11.55c-.66,4.29-1.12,8.23-1.42,11.79a146.72,146.72,0,0,0-13.21,12.34,2.5,2.5,0,1,0,3.53,3.54,94.91,94.91,0,0,1,9.27-9.22,93.52,93.52,0,0,0,.32,14.84l4.91.27c0-.08-.39-4.43-.31-11.18,1.49,1.86,6.06,7.63,6.59,8.21a2.5,2.5,0,0,0,3.53,0,2.56,2.56,0,0,0,0-3.53l-9.82-12.24c.25-3.79.68-8.1,1.38-12.87l9.43,13.65a2.56,2.56,0,0,0,3.42.9,2.52,2.52,0,0,0,.9-3.42l-12.58-18.2c.31-1.64.64-3.32,1-5q1-4.59,2.38-9.78c3.18,5.7,9.76,18.91,10,19.19a2.5,2.5,0,0,0,4.32-2.52q-5.7-11.93-12.33-23.36c1.45-4.72,3.17-9.74,5.22-15,2.63,7.54,8.31,22.47,8.31,22.47.09.2.17.4.25.6,1.15,2.64,5.65,1.32,3.47-4.56-3.46-8.3-6.11-16.93-9.17-25.38.21-.3,4.26-9.66,6.54-14.16a97.39,97.39,0,0,1,12.6,23.65,2.57,2.57,0,0,0,3.07,1.75,2.53,2.53,0,0,0,1.75-3.08,101.53,101.53,0,0,0-14.79-27.14l-.08-.09c3.15-5.91,6.7-12,10.7-18.21.55,1.61,3,10.72,3.79,13.64q2.31,8.64,4.63,17.3c.83,3.11,5.66,1.79,4.82-1.33q-2.37-8.88-4.76-17.78c-1.51-5.65-2.72-11.53-5.15-16.89q4.37-6.47,9.39-13.1c4.78,9,9.23,18.15,13.28,27.49a2.52,2.52,0,0,0,3.42.9,2.56,2.56,0,0,0,.89-3.42q-6.48-15-14.23-29.31c.93-1.17,9.07-11,12.23-14.53,3,10.09,7.46,19.69,10.11,29.89.8,3.11,5.63,1.79,4.82-1.33-2.9-11.2-8.08-21.66-11-32.86v0a.06.06,0,0,0,0,0q6.4-6.92,12.9-13.13c3.24,8.83,9.25,28.06,9.43,28.51a2.58,2.58,0,0,0,3.07,1.74,2.51,2.51,0,0,0,1.75-3.07c-4-10.08-6.34-20.78-10.32-30.89q6.15-5.68,12.29-10.77,2.6,15.5,5.18,31a2.52,2.52,0,0,0,3.07,1.75,2.57,2.57,0,0,0,1.75-3.08c-1.84-11-5.56-33.18-5.59-33.27q7.68-6.13,15.29-11.43l4.43,20.09c.27,1.22,1,6.9,1.13,7.49a2.73,2.73,0,0,0,4,1.76c1.59-.93,1.46-2.69,1.12-4.24l-2.1-9.51q-2-9.12-4-18.25a3,3,0,0,0,0-.42q6.63-4.44,13.12-8.27a213.49,213.49,0,0,0,2.39,23.94,2.52,2.52,0,0,0,3.08,1.74,2.55,2.55,0,0,0,1.74-3.07c-1.31-8.32-2.35-25.32-2.37-25.42q6.45-3.65,12.66-6.76,2.07,10.74,4.15,21.46a2.51,2.51,0,0,0,3.07,1.75,2.55,2.55,0,0,0,1.75-3.08q-2.16-11.19-4.33-22.39,7.08-3.39,13.75-6.12,1.77,12.51,3.52,25a2.53,2.53,0,0,0,3.08,1.75,2.56,2.56,0,0,0,1.74-3.08l-3.6-25.61c5-1.94,15.14-5.38,15.62-5.54a193.86,193.86,0,0,0,3,22.52,2.51,2.51,0,0,0,3.07,1.75,2.54,2.54,0,0,0,1.75-3.07,185.22,185.22,0,0,1-2.92-22.49l0-.21c4.79-1.43,9.4-2.66,13.79-3.71l.66,25.47c.09,3.21,5.09,3.23,5,0l-.69-26.6c4.53-1,8.79-1.8,12.74-2.44q2.31,11.38,4.11,22.86a2.52,2.52,0,0,0,3.08,1.75,2.55,2.55,0,0,0,1.74-3.07q-1.74-11.19-4-22.3c6.93-1,12.64-1.47,16.83-1.7a133,133,0,0,0-.94,23.09c.15,3.21,5.15,3.22,5,0a132.34,132.34,0,0,1,1-23.29c1.89,0,2.93,0,3,0l.17-5C1945,863.05,1943.17,863,1940,863.1Zm-129,80.06c.09.31.08.35,0,.09Z" transform="translate(-1447.03 -621.29)"/><path class="cls-3" d="M1658.31,797.37q5.71-7,10.7-13.81,3.39,13.22,6.76,26.41c.8,3.12,5.62,1.8,4.82-1.33l-7.77-30.36q6.42-9.12,11.64-17.78,4,11.6,8,23.2a2.57,2.57,0,0,0,3.08,1.74,2.51,2.51,0,0,0,1.74-3.07l-9.48-27.32c0-.06,6.38-12,9-17.69l2.42,3c.52.64,9.41,14.86,9.71,15.52,0,0,3.34,3.42,4.74,1.18.91-1.47-.19-3.26-.84-4.59-.94-1.93-2-3.81-3-5.66-2.9-5-10.53-14.18-10.76-14.29,2.45-5.56,4.55-10.91,6.34-16q3.18,4.83,6.25,9.74c1.21,1.94,5,8.56,5,8.57h0a2.25,2.25,0,0,0,3,1.74c4.06-1.3.32-6.33-.9-8.37-2.28-3.83-4.67-7.6-7.09-11.35-1.26-1.94-2.52-3.88-3.82-5.81a3.07,3.07,0,0,0-.41-.47,173.35,173.35,0,0,0,4.57-17.76c4.56,5.09,9.33,10,14.32,14.65a2.5,2.5,0,0,0,3.54-3.53,232,232,0,0,1-16.52-17.11,2.19,2.19,0,0,0-.22-.2c.73-4.56,1.22-8.84,1.5-12.81.11-1.54.19-3.05.25-4.53a116.48,116.48,0,0,0,15.37,13.64,2.51,2.51,0,0,0,3.42-.89,2.57,2.57,0,0,0-.89-3.43c-6.08-4.51-17.4-16-17.79-16.09a126.86,126.86,0,0,0-1.09-15.66,100.47,100.47,0,0,0,15.77,9.58,2.57,2.57,0,0,0,3.42-.9,2.52,2.52,0,0,0-.9-3.42c-6.15-3-18.39-11.41-18.74-11.53-.58-.68-2.48-8.24-3.3-10.84q8.88,3.71,17.64,7.66a2.57,2.57,0,0,0,3.42-.89,2.51,2.51,0,0,0-.9-3.42c-5.62-2.56-22.09-8.89-22.09-8.89l-1.16-2.38-5.53-.27c-.49-.87.84,1.83,1.28,2.83l-16.42,9.11c-2.81,1.56-.29,5.88,2.52,4.32l15.72-8.72a90.65,90.65,0,0,1,3.12,11.62A183.65,183.65,0,0,1,1690,651.78c-2.83,1.55-.3,5.87,2.52,4.32A180,180,0,0,0,1708.68,646a120.32,120.32,0,0,1,1.27,15.83l-18.42,7.31a2.57,2.57,0,0,0-1.75,3.08,2.51,2.51,0,0,0,3.08,1.74l17.06-6.77c-.05,2.12-.16,4.29-.33,6.54-.23,3.14-.6,6.49-1.12,10h0l-24.16,3.3c-1.33.18-2.07,1.9-1.74,3.07a2.56,2.56,0,0,0,3.07,1.75l22-3a167.45,167.45,0,0,1-4.5,18.52l-27.66,1.52c-3.2.17-3.22,5.17,0,5l26-1.43c-1.85,5.55-4.07,11.37-6.74,17.44h0c-4.77-1.6-9.86-1.77-14.84-1.76-5.33,0-10.66.05-16,.07-3.21,0-3.22,5,0,5l15.53-.07a112.57,112.57,0,0,1,13.21,1.4q-3.93,8.43-9,17.43c-.26-.09-23.71-1.12-35.15-.5-3.2.17-3.23,5.17,0,5a269.76,269.76,0,0,1,32.42.19q-5.36,9-12,18.46c-.34-.18-23.56-2.44-34.77-3.49a2.52,2.52,0,0,0-2.5,2.5,2.55,2.55,0,0,0,2.5,2.5l31.55,3q-5.12,7-11,14.29c-3.54-2.76-8-3.67-12.31-4.64q-7.58-1.71-15.24-2.88a2.57,2.57,0,0,0-3.07,1.74,2.52,2.52,0,0,0,1.74,3.08c4.79.74,9.56,1.62,14.29,2.67,3.73.82,8.38,1.36,11.44,3.87q-4.33,5.18-9.08,10.48c-2.37,2.64-4.76,5.19-7.16,7.68-3.54-3.21-8.19-4.84-12.55-6.62L1606,802.45a2.51,2.51,0,0,0-3.07,1.75,2.55,2.55,0,0,0,1.74,3.07l15.81,6.46c3.85,1.57,8.12,3,11.29,5.76q-7.35,7.37-14.77,13.81l0,0c-8.26-6.18-18.39-8.8-27.61-13.16a2.56,2.56,0,0,0-3.42.9,2.52,2.52,0,0,0,.9,3.42c8.72,4.12,18.26,6.71,26.26,12.21q-6.27,5.26-12.54,9.9-14.76-7.77-29.94-14.67a2.58,2.58,0,0,0-3.42.89,2.52,2.52,0,0,0,.9,3.43q14.16,6.42,27.94,13.64-10.46,7.42-20.69,13.32l-25.19-12.43a2.57,2.57,0,0,0-3.42.9,2.52,2.52,0,0,0,.9,3.42l22.46,11.08q-7.74,4.26-15.22,7.74-13.2-7.22-27.06-13.14a2.59,2.59,0,0,0-3.42.89,2.52,2.52,0,0,0,.9,3.42c8.1,3.47,16,7.3,23.83,11.43-7.09,3.11-13.92,5.72-20.39,7.91q-14.07-8.37-28.66-15.83c-2.86-1.46-5.39,2.85-2.52,4.32q12.59,6.43,24.8,13.58c-3.68,1.14-7.23,2.14-10.62,3-3.56.93-7,1.74-10.38,2.46a113,113,0,0,0-12.17-9.29L1473.78,872a2.5,2.5,0,1,0-2.52,4.31q7.5,5.17,15,10.36c3,2.07,6,4.18,8.83,6.48-7,1.31-13.4,2.18-19.13,2.77a185.48,185.48,0,0,0-18.28-16.49,2.59,2.59,0,0,0-3.54,0,2.54,2.54,0,0,0,0,3.54,185.65,185.65,0,0,1,15.33,13.52c-13.75,1-20.94.35-21.09.33l.58,5c.38,0,16.32,0,22.54-.48-4.39,4.4-8.37,9.23-12.45,13.89a2.56,2.56,0,0,0,0,3.54l.08.06c.4.43,3.47.2,3.84-.51,5.31-6.09,10.47-12.46,16.64-17.72l.07-.07c5.34-.63,11.23-1.52,17.56-2.74l-18.94,19.88c-2.22,2.33,1.31,5.87,3.53,3.54,7.53-7.9,23.2-24.6,23.26-25.07,2.5-.57,5.05-1.17,7.66-1.85,3.12-.81,6.38-1.72,9.75-2.75a123,123,0,0,0-13.15,18.57c-1.61,2.79,2.71,5.32,4.31,2.53a117.12,117.12,0,0,1,18.47-24.18l0-.07c5.5-1.91,11.22-4.1,17.14-6.64q-5.43,10.55-11.49,20.75c-1.66,2.77,2.66,5.29,4.31,2.53q7.68-12.86,14.3-26.25a1.53,1.53,0,0,0,.11-.27q6.57-3.06,13.38-6.69a135.17,135.17,0,0,0-5,18.77,2.57,2.57,0,0,0,1.75,3.08,2.52,2.52,0,0,0,3.07-1.75,134.46,134.46,0,0,1,6.83-23.79q9.62-5.51,19.49-12.3-2.25,10.65-5.1,21.16c-.84,3.11,4,4.44,4.82,1.33q3.6-13.25,6.24-26.74,5.1-3.74,10.22-7.87c-.92,7.78-1.62,15.58-2,23.41-.17,3.21,4.83,3.2,5,0q.75-14.05,2.61-28,6.75-5.74,13.45-12.2.18,12.72-.21,25.44a2.49,2.49,0,0,0,2.18,3.62c.36,0,2.75-1.21,2.79-2.49.34-10.34.16-31.28.14-31.4q5-5.07,10-10.56,3.77-4.2,7.27-8.33l.63,35.42a2.44,2.44,0,0,0,2.33,3.17c.4,0,2.71-1.26,2.69-2.51l-.75-41.72C1658.33,797.52,1658.31,797.45,1658.31,797.37Z" transform="translate(-1447.03 -621.29)"/><path class="cls-3" d="M1716.57,734.45a0,0,0,0,0,0,0l0-.05S1716.6,734.5,1716.57,734.45Z" transform="translate(-1447.03 -621.29)"/><g class="cls-4"><path class="cls-5" d="M1543.48,707c-22.41,23.81-36.75,56-35.7,88.65.56,17.51,5.91,35.57,18.35,47.9s32.89,17.36,48.15,8.77c9.14-5.14,15.34-14.2,20.54-23.3,10.35-18.11,18.29-37.95,32.31-53.39,20.67-22.78,52.36-33.54,72-57.23,8.17-9.87,14-23.53,9.18-35.39-9.74-23.87-58.86-27.44-80.47-24.49C1597.22,662.73,1564.16,685,1543.48,707Z" transform="translate(-1447.03 -621.29)"/></g></svg>