<svg id="Layer_2" data-name="Layer 2" xmlns="http://www.w3.org/2000/svg" viewBox="0 0 344.76 669.19"><defs><style>.cls-1{fill:#63d378;}.cls-2{fill:#ced5d0;}.cls-3,.cls-9{fill:#777589;}.cls-3{opacity:0.33;}.cls-4{fill:#f4e41e;}.cls-5{fill:#77bb63;}.cls-6{fill:#e6f9b4;}.cls-7{fill:#cef490;}.cls-10,.cls-11,.cls-8{fill:#fff;}.cls-8{opacity:0.32;}.cls-9{opacity:0.23;}.cls-11{opacity:0.35;}</style></defs><title>can</title><rect class="cls-1" y="55.75" width="343.66" height="570.09"/><polygon class="cls-2" points="0 625.83 27.3 669.19 171.83 669.19 171.83 625.83 0 625.83"/><polygon class="cls-2" points="343.66 625.83 316.36 669.19 171.83 669.19 171.83 625.83 343.66 625.83"/><polygon class="cls-2" points="0 55.75 26.1 27.26 171.83 27.26 171.83 55.75 0 55.75"/><polygon class="cls-2" points="343.66 55.75 317.56 27.26 171.83 27.26 171.83 55.75 343.66 55.75"/><path class="cls-2" d="M1939.05,633.48H1649a13.63,13.63,0,0,1-13.63-13.63h0A13.63,13.63,0,0,1,1649,606.22h290.08a13.64,13.64,0,0,1,13.64,13.63h0A13.64,13.64,0,0,1,1939.05,633.48Z" transform="translate(-1622.18 -606.22)"/><path class="cls-3" d="M1952.56,618.07c0-.1,0-.19,0-.29a11.39,11.39,0,0,0-.36-1.66h0a13.62,13.62,0,0,0-13.1-9.9h-85.91A13.62,13.62,0,0,1,1865.29,626H1649a13.63,13.63,0,0,1-13.1-9.89,13.56,13.56,0,0,0-.53,3.73h0A13.63,13.63,0,0,0,1649,633.48h290.08a13.64,13.64,0,0,0,13.64-13.63h0A15.06,15.06,0,0,0,1952.56,618.07Z" transform="translate(-1622.18 -606.22)"/><path class="cls-4" d="M1965.84,938.86a97.09,97.09,0,0,1-46.76,2.32c-15-3-29.25-9.63-44.41-12.07-27.44-4.41-56.82,6.13-75.2,27-7.19,8.16-12.74,17.68-20.19,25.6-20.56,21.85-53.49,28.55-83.13,23.9-20.77-3.27-40.64-11.42-61.57-13.51a92.16,92.16,0,0,0-12.4-.36v240.11h343.66Z" transform="translate(-1622.18 -606.22)"/><path class="cls-5" d="M1668.84,818.58A133.42,133.42,0,0,0,1881.4,979.83Z" transform="translate(-1622.18 -606.22)"/><path class="cls-6" d="M1675.8,823.86c-39.18,53.61-27.39,129.66,26.88,170.84s130.69,32,171.76-20.15Z" transform="translate(-1622.18 -606.22)"/><path class="cls-7" d="M1683.18,829.46c-36.78,50.3-26.27,121.24,24,159.35s121.38,29.11,159.91-19.86Z" transform="translate(-1622.18 -606.22)"/><rect class="cls-6" x="1737.88" y="887.43" width="4.45" height="115.86" transform="translate(932.86 2144.01) rotate(-142.81)"/><polygon class="cls-6" points="151.38 295.04 44.25 324.57 39.97 317.55 151.16 291.63 151.28 293.54 151.38 295.04"/><path class="cls-6" d="M1663.18,860.79l110.29,39-.12-1.9-109-41.19Z" transform="translate(-1622.18 -606.22)"/><polygon class="cls-6" points="151.85 298.1 144.31 408.68 148.75 408.95 153.52 295.89 151.85 298.1"/><polygon class="cls-6" points="219.09 391.61 151.28 293.54 151.16 291.63 222.06 387.68 219.09 391.61"/><circle class="cls-8" cx="248.94" cy="263.07" r="29.11"/><circle class="cls-8" cx="1760.21" cy="803.38" r="29.11" transform="translate(-1759.4 -181.71) rotate(-13.24)"/><path class="cls-8" d="M1858.66,752.84a21.43,21.43,0,1,1-21.42-21.43A21.42,21.42,0,0,1,1858.66,752.84Z" transform="translate(-1622.18 -606.22)"/><polygon class="cls-9" points="317.98 27.26 230.14 27.26 252.54 55.75 252.54 625.83 234.14 669.19 317.46 669.19 344.76 625.83 344.76 55.75 317.98 27.26"/><path class="cls-1" d="M1642.24,1047.18h27.6v12.54h-11.3v11.89h10.07v11.93h-10.07v26.33h-16.3Z" transform="translate(-1622.18 -606.22)"/><path class="cls-1" d="M1673.79,1047.18h11.54q11.54,0,15.63.89a10.71,10.71,0,0,1,6.65,4.55q2.58,3.66,2.58,11.67,0,7.32-1.82,9.84c-1.21,1.68-3.6,2.68-7.16,3q4.83,1.2,6.5,3.21a9.59,9.59,0,0,1,2.07,3.7,58.26,58.26,0,0,1,.41,9.27v16.54h-15.14V1089q0-5-.79-6.23t-4.17-1.2v28.27h-16.3Zm16.3,10.72v13.94a7.24,7.24,0,0,0,3.86-.75c.73-.5,1.1-2.14,1.1-4.9v-3.45c0-2-.35-3.29-1.06-3.91S1692,1057.9,1690.09,1057.9Z" transform="translate(-1622.18 -606.22)"/><path class="cls-1" d="M1716.5,1047.18h27.18v12.54H1732.8v11.89H1743v11.93H1732.8v13.78h12v12.55H1716.5Z" transform="translate(-1622.18 -606.22)"/><path class="cls-1" d="M1784,1066.15h-15.14v-4.64c0-2.17-.19-3.55-.58-4.15a2.15,2.15,0,0,0-1.94-.89,2.45,2.45,0,0,0-2.22,1.2,6.92,6.92,0,0,0-.76,3.65,10.25,10.25,0,0,0,.85,4.72q.81,1.59,4.61,3.83,10.88,6.47,13.71,10.61t2.82,13.36q0,6.69-1.56,9.87t-6.06,5.32a23.89,23.89,0,0,1-10.46,2.15,23.3,23.3,0,0,1-11.17-2.48,12.17,12.17,0,0,1-6.06-6.31q-1.42-3.83-1.43-10.88v-4.1h15.14V1095c0,2.35.21,3.86.64,4.53a2.46,2.46,0,0,0,2.26,1,2.65,2.65,0,0,0,2.42-1.27,7.31,7.31,0,0,0,.8-3.8c0-3.69-.51-6.1-1.51-7.24a49.21,49.21,0,0,0-7.63-5.69,75.68,75.68,0,0,1-8.06-5.85,13.8,13.8,0,0,1-3.27-5,22.26,22.26,0,0,1-1.29-8.21q0-7.2,1.83-10.53a12.39,12.39,0,0,1,6-5.21,23.71,23.71,0,0,1,9.91-1.88,25.79,25.79,0,0,1,10.82,2.06c3,1.36,5,3.09,5.93,5.16s1.45,5.61,1.45,10.59Z" transform="translate(-1622.18 -606.22)"/><path class="cls-1" d="M1827.93,1047.18v62.69h-16.3v-26.33h-4.87v26.33h-16.31v-62.69h16.31v22.42h4.87v-22.42Z" transform="translate(-1622.18 -606.22)"/><path class="cls-10" d="M1658.18,1118.69v49.44H1668v12.36h-25.84v-61.8Z" transform="translate(-1622.18 -606.22)"/><path class="cls-10" d="M1687.92,1118.69v61.8h-16.08v-61.8Z" transform="translate(-1622.18 -606.22)"/><path class="cls-10" d="M1744,1118.69v61.8h-14l0-41.72-5.59,41.72h-10l-5.9-40.77,0,40.77h-14v-61.8h20.79q.93,5.58,1.91,13.14l2.28,15.72,3.7-28.86Z" transform="translate(-1622.18 -606.22)"/><path class="cls-10" d="M1750.41,1118.69h26.79v12.37h-10.72v11.72h10v11.76h-10v13.59h11.79v12.36h-27.86Z" transform="translate(-1622.18 -606.22)"/><path class="cls-11" d="M1642.84,760.14c-3.36,11.07-2.94,22.7-2.49,34.16q3.8,98.84,7.61,197.65c.5,13,3.35,28.92,18,33.72,12.39,4,26.54-3.27,32.23-13.1s5.16-21.31,4.62-32.28a1599.82,1599.82,0,0,1,1.89-188.38c.74-10.68,1.49-21.82-3.71-31.7C1689.94,739.16,1650.14,736.09,1642.84,760.14Z" transform="translate(-1622.18 -606.22)"/><path class="cls-11" d="M1661.13,680.69c-1.16-1.19-3.16-.77-4.67-.07C1647,685,1642,697,1645.53,706.79s15.15,15.77,25.17,13,17-13.8,15.08-24-12.36-18.05-22.69-17Z" transform="translate(-1622.18 -606.22)"/></svg>