<svg id="Layer_2" data-name="Layer 2" xmlns="http://www.w3.org/2000/svg" viewBox="0 0 343.66 669.19"><defs><style>.cls-1{fill:#626b6b;}.cls-2{fill:#ced5d0;}.cls-3{fill:#777589;}.cls-3,.cls-6{opacity:0.33;}.cls-4{fill:#f4c601;}.cls-5,.cls-7{fill:#fff;}.cls-6{fill:#42424c;}.cls-7{opacity:0.51;}</style></defs><title>can2</title><rect class="cls-1" y="55.75" width="343.66" height="570.09"/><polygon class="cls-2" points="0 625.83 27.3 669.19 171.83 669.19 171.83 625.83 0 625.83"/><polygon class="cls-2" points="343.66 625.83 316.36 669.19 171.83 669.19 171.83 625.83 343.66 625.83"/><polygon class="cls-2" points="0 55.75 26.1 27.26 171.83 27.26 171.83 55.75 0 55.75"/><polygon class="cls-2" points="343.66 55.75 317.56 27.26 171.83 27.26 171.83 55.75 343.66 55.75"/><path class="cls-2" d="M1845.32,187.79H1555.23a13.64,13.64,0,0,1-13.63-13.63h0a13.63,13.63,0,0,1,13.63-13.63h290.09A13.63,13.63,0,0,1,1859,174.16h0A13.63,13.63,0,0,1,1845.32,187.79Z" transform="translate(-1528.45 -160.53)"/><path class="cls-3" d="M1858.82,172.38c0-.1,0-.2,0-.3a13.22,13.22,0,0,0-.35-1.66h0a13.63,13.63,0,0,0-13.1-9.89H1759.4a13.62,13.62,0,0,1,12.15,19.79H1555.23a13.64,13.64,0,0,1-13.1-9.9,14,14,0,0,0-.53,3.74h0a13.64,13.64,0,0,0,13.63,13.63h290.09A13.63,13.63,0,0,0,1859,174.16h0A13,13,0,0,0,1858.82,172.38Z" transform="translate(-1528.45 -160.53)"/><path class="cls-4" d="M1872.11,402.77c-76.8,83.61-242.35,264-242.35,265.15V623.44s-70.64,73.91-101.31,105.08v42.17l85.91-77.46L1620.3,728l251.81-266.47Z" transform="translate(-1528.45 -160.53)"/><path class="cls-4" d="M1651.93,786.49l220.18-233V492.1c-73.16,79.64-253.25,277.66-267.67,294.39Z" transform="translate(-1528.45 -160.53)"/><path class="cls-4" d="M1603.35,786.49V743.36s-18.87,19.75-41.34,43.13Z" transform="translate(-1528.45 -160.53)"/><path class="cls-4" d="M1766.28,215c-75.26,82.05-157,171.37-157,172.2V342.73s-46.85,49-80.81,84.06V471.5l65.42-59,5.93,34.76L1819.3,215Z" transform="translate(-1528.45 -160.53)"/><path class="cls-5" d="M1545.29,480.12h36.11v16.67H1567v15.79h13.52v15.84H1567v18.3h15.89v16.67h-37.55Z" transform="translate(-1528.45 -160.53)"/><path class="cls-5" d="M1637.4,480.12v83.27h-19l-11.26-37.85v37.85h-18.1V480.12h18.1l12.14,37.5v-37.5Z" transform="translate(-1528.45 -160.53)"/><path class="cls-5" d="M1646.09,480.12h36.1v16.67h-14.45v15.79h13.53v15.84h-13.53v18.3h15.89v16.67h-37.54Z" transform="translate(-1528.45 -160.53)"/><path class="cls-5" d="M1689.86,480.12h15.32q15.33,0,20.75,1.19a14.29,14.29,0,0,1,8.85,6q3.42,4.86,3.42,15.51,0,9.72-2.42,13.06t-9.51,4q6.42,1.59,8.64,4.27a12.78,12.78,0,0,1,2.75,4.91q.54,2.24.54,12.32v22h-20.11V535.72q0-6.69-1-8.28c-.71-1.06-2.55-1.6-5.53-1.6v37.55h-21.65Zm21.65,14.25v18.51c2.43,0,4.14-.33,5.11-1s1.47-2.84,1.47-6.5V500.8q0-4-1.41-5.2T1711.51,494.37Z" transform="translate(-1528.45 -160.53)"/><path class="cls-5" d="M1796.26,510.78h-21.65v-7.56q0-7.16-.62-9a3.24,3.24,0,0,0-5.66-.26c-.48,1-.71,3.67-.71,7.92v40c0,3.74.23,6.2.71,7.38a2.8,2.8,0,0,0,2.88,1.77,3.19,3.19,0,0,0,3.22-2c.57-1.34.85-3.94.85-7.82v-9.87h-4.37V518.7h25.35v44.69h-13.61l-2-6a15.26,15.26,0,0,1-5.58,5.79,15.81,15.81,0,0,1-8,1.92,20.73,20.73,0,0,1-10.22-2.64,19.69,19.69,0,0,1-7.23-6.56,20.73,20.73,0,0,1-3.09-8.2,98.85,98.85,0,0,1-.62-12.89V510.11q0-11.94,1.29-17.33t7.38-9.9q6.09-4.5,15.76-4.5,9.51,0,15.79,3.91t8.18,9.28q1.89,5.37,1.9,15.61Z" transform="translate(-1528.45 -160.53)"/><path class="cls-5" d="M1850.77,480.12,1835,533.25v30.14h-20V533.25l-15.22-53.13h19.88q4.67,24.39,5.26,32.82,1.8-13.34,6-32.82Z" transform="translate(-1528.45 -160.53)"/><path class="cls-4" d="M1528.45,373.44c3.55-2.37,89.74-82.41,89.74-82.41l-5,39,110.34-113.76h-21.41s-68.39,71.78-70.75,72.43,6-37.44,6-37.44l-109,97.75Z" transform="translate(-1528.45 -160.53)"/><path class="cls-4" d="M1528.45,309.3s113.84-81.64,113.06-80.47-5.44,15.94-4.27,14.77,28.38-27.33,28.38-27.33h-30.33l-106.84,78.59Z" transform="translate(-1528.45 -160.53)"/><path class="cls-4" d="M1528.45,306.76s113.84-81.64,113.06-80.47-5.44,15.94-4.27,14.77,28.38-27.33,28.38-27.33h-30.33l-106.84,78.59Z" transform="translate(-1528.45 -160.53)"/><polygon class="cls-4" points="0 98.62 60.98 55.75 73.03 55.75 0 107.18 0 98.62"/><polygon class="cls-4" points="161.41 625.83 343.06 442.58 343.66 464.13 189.64 625.83 161.41 625.83"/><polygon class="cls-4" points="229.03 625.96 343.58 521.94 343.66 543.49 257.74 625.96 229.03 625.96"/><polygon class="cls-4" points="302.07 625.83 343.66 586.06 343.58 597.62 317.83 625.83 302.07 625.83"/><polygon class="cls-6" points="316.87 27.26 229.03 27.26 251.44 55.75 251.44 625.83 233.04 669.19 316.36 669.19 343.66 625.83 343.66 55.75 316.87 27.26"/><path class="cls-7" d="M1560.33,351.64c-2.52,11.07-2.2,22.71-1.87,34.17l5.7,197.65c.38,13,2.52,28.92,13.53,33.72,9.29,4,19.89-3.28,24.15-13.1s3.87-21.31,3.47-32.28q-3.45-94.23,1.42-188.38c.55-10.68,1.11-21.83-2.79-31.7C1595.63,330.66,1565.8,327.59,1560.33,351.64Z" transform="translate(-1528.45 -160.53)"/><path class="cls-7" d="M1574,254.58c-.87-1.72-2.37-1.1-3.51-.1-7.07,6.26-10.85,23.67-8.19,37.75s11.36,22.76,18.87,18.82,12.73-19.91,11.31-34.64-9.27-26.05-17-24.54Z" transform="translate(-1528.45 -160.53)"/></svg>