<svg id="Layer_2" data-name="Layer 2" xmlns="http://www.w3.org/2000/svg" viewBox="0 0 343.66 669.19"><defs><style>.cls-1{fill:#5078d1;}.cls-2{fill:#ced5d0;}.cls-3{fill:#777589;opacity:0.33;}.cls-11,.cls-4{fill:#fff;}.cls-4{opacity:0.35;}.cls-5{fill:#f4bd40;}.cls-6{fill:#f7e946;}.cls-7{fill:#dba63b;opacity:0.3;}.cls-8{fill:#6dbf3d;}.cls-9{fill:#8dd821;}.cls-10{fill:#b0e825;}.cls-11{opacity:0.2;}</style></defs><title>can3</title><rect class="cls-1" y="55.75" width="343.66" height="570.09"/><polygon class="cls-2" points="0 625.83 27.3 669.19 171.83 669.19 171.83 625.83 0 625.83"/><polygon class="cls-2" points="343.66 625.83 316.36 669.19 171.83 669.19 171.83 625.83 343.66 625.83"/><polygon class="cls-2" points="0 55.75 26.1 27.26 171.83 27.26 171.83 55.75 0 55.75"/><polygon class="cls-2" points="343.66 55.75 317.56 27.26 171.83 27.26 171.83 55.75 343.66 55.75"/><path class="cls-2" d="M870.31,187.79H580.23a13.63,13.63,0,0,1-13.63-13.63h0a13.63,13.63,0,0,1,13.63-13.63H870.31a13.63,13.63,0,0,1,13.63,13.63h0A13.63,13.63,0,0,1,870.31,187.79Z" transform="translate(-553.44 -160.53)"/><path class="cls-3" d="M883.82,172.38c0-.1,0-.2-.05-.3a13.25,13.25,0,0,0-.36-1.66h0a13.61,13.61,0,0,0-13.1-9.89H784.4a13.62,13.62,0,0,1,12.15,19.79H580.23a13.64,13.64,0,0,1-13.1-9.9,13.57,13.57,0,0,0-.53,3.74h0a13.63,13.63,0,0,0,13.63,13.63H870.31a13.63,13.63,0,0,0,13.63-13.63h0A14.78,14.78,0,0,0,883.82,172.38Z" transform="translate(-553.44 -160.53)"/><path class="cls-4" d="M585.48,355c-2.52,11.07-2.2,22.7-1.87,34.16q2.85,98.83,5.71,197.65c.37,13,2.51,28.92,13.52,33.72,9.29,4.05,19.89-3.27,24.16-13.1s3.86-21.31,3.46-32.28q-3.45-94.23,1.42-188.38c.55-10.67,1.11-21.82-2.79-31.7C620.79,334,591,331,585.48,355Z" transform="translate(-553.44 -160.53)"/><path class="cls-4" d="M599.19,257.94c-.87-1.73-2.37-1.11-3.51-.11-7.07,6.26-10.85,23.67-8.19,37.75s11.36,22.76,18.87,18.82,12.73-19.91,11.31-34.64-9.27-26-17-24.53Z" transform="translate(-553.44 -160.53)"/><path class="cls-5" d="M717.16,376.16c-58.6,8.08-82.53,75.67-84.11,131.77s19.88,120.84,94.2,120.81c78,0,109.57-43.23,105.07-118.72C827.24,424.74,785.7,366.71,717.16,376.16Z" transform="translate(-553.44 -160.53)"/><path class="cls-6" d="M649.68,447.78l27.72,13.8,30.85-15.71,28.43,13.23,25.94-13,21.8,10.4,24.65-14.26,10.54,3.19a153.17,153.17,0,0,0-6.57-15.2l-.56.66-21.66-12.87-19.1,12.44L753,414.41l-17.44,18.65-26.15-17.21-17.79,13.2-21.69-12.19-20.42,15.72a164.08,164.08,0,0,0-7.72,20.56Z" transform="translate(-553.44 -160.53)"/><path class="cls-6" d="M832.48,512.88c-6.51-5.33-16.86-13.7-18.64-14.63-2.63-1.37-22.88,18.62-22.88,18.62l-24.25-14.8L738.6,517.34l-23.51-16-29.54,16.4-27.86-11.39L633.16,522a175.41,175.41,0,0,0,3.21,27l16.71-11.33,27.71,13.79,30.86-15.7L740.08,549l25.93-13,21.8,10.41,24.66-14.26,19.73,6A203.07,203.07,0,0,0,832.48,512.88Z" transform="translate(-553.44 -160.53)"/><path class="cls-6" d="M813.81,543.79c-2.64-1.37-22.88,18.62-22.88,18.62l-24.26-14.8-28.11,15.27-23.5-16L685.52,563.3l-27.86-11.38L640,563.2a109.09,109.09,0,0,0,14.19,29.89l18.72-11.56,20.34,12.11,18.59-15.19,24.07,17.77,16-16.71,18.9,13.38,22-15.66,19.87,18.1c8.3-10.67,13.94-23.78,17.09-39.14C823.36,551,815.35,544.6,813.81,543.79Z" transform="translate(-553.44 -160.53)"/><path class="cls-6" d="M792.4,594.2l-19.1,12.44-18.74-16.09-17.44,18.66L711,592l-17.79,13.2L671.49,593l-10.87,8.37c14.76,16.59,36.29,27.38,66.64,27.37,35.8,0,61.81-9.13,79-26.28Z" transform="translate(-553.44 -160.53)"/><path class="cls-6" d="M671.28,405.39l20.34,12.1,18.59-15.19,24.07,17.77,16-16.7,18.9,13.37,22-15.66,8.06,7.35c-19.63-24.55-47.39-37.05-82.07-32.27-24.07,3.32-42.29,16.69-55.51,35.17Z" transform="translate(-553.44 -160.53)"/><path class="cls-6" d="M680.83,506l30.86-15.71,28.42,13.23,25.94-13,21.8,10.4,24.65-14.26,18.18,5.5a232.06,232.06,0,0,0-4.82-26.27c-6.27-5.1-13.94-11.24-15.45-12-2.64-1.37-22.88,18.62-22.88,18.62l-24.25-14.8L735.16,473l-23.5-16-29.54,16.4L654.26,462l-17.4,11.09a218.55,218.55,0,0,0-3.73,32.63l20-13.54Z" transform="translate(-553.44 -160.53)"/><path class="cls-7" d="M832.32,510c-4.79-80.52-42.1-136.73-103.94-134.81a105.72,105.72,0,0,1,15.46,11.2c13,11.59,22.39,24.63,28.44,41.13C787.41,468.82,787,516.1,766.9,556c-9.36,18.54-23.32,33.91-42.85,41.4-11.31,4.34-22.69,4.8-34.7,4.6a73.6,73.6,0,0,1-26.1-5.19,91.72,91.72,0,0,1-10-4.92c14.6,21.86,38.14,36.9,74,36.89C805.25,628.7,836.82,585.51,832.32,510Z" transform="translate(-553.44 -160.53)"/><path class="cls-8" d="M731.31,398.16c-29,0-50-8.15-50-8.15s-8.2-19.23-26.41-27.89c-14.82-7-40.32-2.74-40.32-2.74s1.44-13.81,20.83-24.72c15.23-8.57,34-2.47,34-2.47s-11-10.28-15.1-21.41-1.46-32-1.46-32,18,.42,29.79,9.52a119.49,119.49,0,0,1,21.92,22.18s2-12.57,4.18-19.09c6.18-18.25,29.68-36.27,29.68-36.27s12.61,18,15.42,24.8c5.86,14.14,7.73,28.26,6.89,30.93s6.21-7.78,14.38-13c16.69-10.71,38.51-7.33,38.51-7.33s2.84,12.55-5.82,31.37a65.14,65.14,0,0,1-11,16.85s12.3-3.48,27.6,3.18C838.35,347.92,842,371,842,371s-22.3-5.88-33.6-3.84c-29.34,5.28-28.92,23.63-28.92,23.63S770.29,398.11,731.31,398.16Z" transform="translate(-553.44 -160.53)"/><path class="cls-9" d="M774.43,351.48c3.46-11.67,12.37-26.12,16.93-37-7.14.69-19.83,7.54-25.2,12a56.53,56.53,0,0,0-12.92,15c-1.07-3.68-4-12.9-4.49-16.85-1.64-12.79-10.83-28.07-15.48-33.91a99.94,99.94,0,0,0-12.57,23.14c-3.35,8.84-3.18,17.24-4.39,26.61C709.51,332,701.06,325,692,319.12c-6.63-4.32-13.93-7.84-20.45-12.07,1.81,3.45,5.53,18.41,6.51,21.73a59.36,59.36,0,0,0,10.31,19.91c-5.13-1.58-26.22-.4-30.47,1.54,10.17,2.86,16.66,8.64,24.06,16.48,5,5.33,10.35,17.24,12.11,26.76a157.15,157.15,0,0,0,37.26,4.69c19.91,0,32.45-1.85,39.59-4,.05-2.16-.22-4.27.34-5.64,1.78-4.35,3.54-8.84,6.12-12.78,6.28-9.58,15.61-19.05,27.95-18.68C794.87,351.34,785.86,350.94,774.43,351.48Z" transform="translate(-553.44 -160.53)"/><path class="cls-10" d="M784.35,361.19c-7.4,1.49-13.72,4-20.66,6.88,1.75-5.05,1.83-10.3,3.91-15.43,2.34-5.78,5.68-11.33,7.93-17-5.25,3.93-16.67,11.65-26.09,28.57.77-8.89-8.59-43.63-12.14-50.14-4,16.3-9.86,31.42-10.18,48.72-5.16-7.37-19.87-31.31-36.57-33.18,2.41,5.35,7.24,10.15,9.52,15.64,1.94,4.65,4,9.24,4.85,14.14-3.66-1.06-7.54-2.52-11.31-3.35s-7.28-.28-11-.08c3.36,2.3,6.84,3.51,9.76,6.63a49.56,49.56,0,0,1,7.14,10.72,57.07,57.07,0,0,1,6,22.79,164.9,164.9,0,0,0,28.67,2.15,176.7,176.7,0,0,0,33-3.07,73.74,73.74,0,0,1,2.15-12.44C771.22,375.25,776.81,363.53,784.35,361.19Z" transform="translate(-553.44 -160.53)"/><path class="cls-11" d="M685.44,430.54c-7.11-2.34-19.89,1-26.38,18.35-3.87,10.36-7.23,21.74-2.51,32.26,3.85,8.6,13.34,12.89,19.83,3.57,5.29-7.58,4.5-18.89,7.21-27.56C685.76,450.24,697.4,434.46,685.44,430.54Z" transform="translate(-553.44 -160.53)"/><polygon class="cls-3" points="316.87 27.26 229.03 27.26 251.44 55.75 251.44 625.83 233.04 669.19 316.36 669.19 343.66 625.83 343.66 55.75 316.87 27.26"/><path class="cls-6" d="M658,686.62c.46.16.94.35,1.42.57s1,.43,1.5.62a11.89,11.89,0,0,0,1.63.5,7.55,7.55,0,0,0,1.81.21,9.84,9.84,0,0,0,2.27-.27,10.5,10.5,0,0,0,2.24-.79,12.56,12.56,0,0,0,2.1-1.26,11.55,11.55,0,0,0,1.84-1.73,24.07,24.07,0,0,0,1.53-1.9c.41-.56.74-1.07,1-1.51a6.68,6.68,0,0,0,.54-1.15,2.56,2.56,0,0,0,.16-.82,1.27,1.27,0,0,0-.34-.89,2.72,2.72,0,0,0-.94-.63,5.74,5.74,0,0,0-1.32-.36,10.8,10.8,0,0,0-1.53-.11l-1.1,0-1.29.06-1.27.06-1.07,0a7,7,0,0,1-1.4-.16,5.87,5.87,0,0,1-1.42-.5,5,5,0,0,1-1.29-.94,5,5,0,0,1-1-1.47,5.37,5.37,0,0,1-.23-.68,3.72,3.72,0,0,1-.1-.84,6.89,6.89,0,0,1,.07-.93c.05-.29.11-.57.18-.85a7.93,7.93,0,0,1,.95-2.07,13.55,13.55,0,0,1,1.59-2.06,25,25,0,0,1,2-1.94q1.1-.95,2.25-1.77c.77-.56,1.53-1,2.27-1.5s1.44-.82,2.08-1.13a11.51,11.51,0,0,1,2.75-.95,13.19,13.19,0,0,1,2.77-.3,5.65,5.65,0,0,1,1.56.21,4.49,4.49,0,0,1,1.3.63,3.08,3.08,0,0,1,.89,1,2.81,2.81,0,0,1,.32,1.38,2.41,2.41,0,0,1-.1.76,1.8,1.8,0,0,1-.26.5,1,1,0,0,1-.36.28,1.1,1.1,0,0,1-.4.08,3.94,3.94,0,0,1-1-.12c-.31-.09-.61-.18-.89-.28l-.86-.29a3.14,3.14,0,0,0-.94-.13,8.55,8.55,0,0,0-3.08.6,18.18,18.18,0,0,0-3.05,1.54,22.85,22.85,0,0,0-2.81,2.07c-.87.77-1.66,1.51-2.36,2.23a4.19,4.19,0,0,0-.81,1.15,2.64,2.64,0,0,0-.25,1.08,1.36,1.36,0,0,0,.65,1.19,2.83,2.83,0,0,0,1.6.43l1.25,0,1.42-.05,1.41-.06,1.22,0a8.55,8.55,0,0,1,2.43.35,6.54,6.54,0,0,1,2.07,1.06,5.15,5.15,0,0,1,1.44,1.73,5,5,0,0,1,.54,2.36,6,6,0,0,1-.24,1.66,10.3,10.3,0,0,1-.68,1.69,15.13,15.13,0,0,1-1,1.67c-.37.56-.76,1.1-1.17,1.63a20.83,20.83,0,0,1-2.46,2.7,17.93,17.93,0,0,1-2.9,2.21,14.4,14.4,0,0,1-3.24,1.49,11.31,11.31,0,0,1-3.51.56,8.72,8.72,0,0,1-1.59-.15,9.19,9.19,0,0,1-1.62-.42,7.86,7.86,0,0,1-1.5-.69,6.35,6.35,0,0,1-1.24-1,4.36,4.36,0,0,1-.85-1.18,3.16,3.16,0,0,1-.32-1.4,2.4,2.4,0,0,1,.11-.71A.53.53,0,0,1,658,686.62Z" transform="translate(-553.44 -160.53)"/><path class="cls-6" d="M685,682.18a38.46,38.46,0,0,1,1.18-3.89c.48-1.35,1-2.73,1.52-4.13s1.06-2.84,1.58-4.29,1-2.9,1.33-4.35c.1-.35.18-.68.25-1s.13-.62.2-1a1.9,1.9,0,0,1,.67-.82,1.56,1.56,0,0,1,.91-.29,2.41,2.41,0,0,1,.85.15,1.75,1.75,0,0,1,.69.46,2.17,2.17,0,0,1,.47.8,3.43,3.43,0,0,1,.18,1.17,7.38,7.38,0,0,1-.23,1.68c-.53,1.36-1.07,2.7-1.62,4s-1.07,2.59-1.58,3.84-1,2.5-1.42,3.73-.82,2.44-1.13,3.64c0,.1-.08.3-.16.62s-.17.71-.26,1.16-.17.93-.23,1.44a11,11,0,0,0-.11,1.49,5.65,5.65,0,0,0,.07.93,2.63,2.63,0,0,0,.2.76,1.21,1.21,0,0,0,.39.52,1,1,0,0,0,.61.18,3.55,3.55,0,0,0,1.91-.81,17.1,17.1,0,0,0,2.43-2.2,35.79,35.79,0,0,0,2.69-3.25q1.38-1.86,2.69-4t2.44-4.38a39.74,39.74,0,0,0,1.9-4.44.94.94,0,0,1,.45-.5,2.14,2.14,0,0,1,2,.37,1.59,1.59,0,0,1,.55,1.24,1.76,1.76,0,0,1,0,.34,3.54,3.54,0,0,1-.13.39l-.28.84q-.33,1-.63,1.77a14.67,14.67,0,0,0-.48,1.53c-.18.68-.32,1.3-.43,1.87s-.19,1.1-.25,1.59-.11,1-.13,1.47,0,1,0,1.45c0,.19,0,.47,0,.84s.09.77.16,1.22.16.89.27,1.35a11.46,11.46,0,0,0,.41,1.25,3.13,3.13,0,0,0,.55.93,1,1,0,0,0,.73.36,2.27,2.27,0,0,0,1.34-.52,7.39,7.39,0,0,0,1.42-1.43,20.3,20.3,0,0,0,1.45-2.14q.72-1.23,1.41-2.64c.45-.94.89-1.91,1.31-2.92s.79-2,1.14-3,.66-1.95.92-2.87.48-1.76.65-2.52.28-1.43.39-2.11.21-1.36.32-2,.23-1.36.36-2.05.29-1.4.48-2.12a4.23,4.23,0,0,1,.31-.8,3.44,3.44,0,0,1,.5-.74,2.84,2.84,0,0,1,.65-.56,1.36,1.36,0,0,1,.71-.21,1.4,1.4,0,0,1,1.25.5,3.15,3.15,0,0,1,.33,1.67,14.14,14.14,0,0,1-.16,2c-.1.77-.23,1.57-.39,2.41s-.33,1.68-.52,2.54-.38,1.67-.57,2.44A44.31,44.31,0,0,1,718,676q-.94,2.5-2.1,4.89a50.18,50.18,0,0,1-2.46,4.49A27.15,27.15,0,0,1,710.8,689a10.67,10.67,0,0,1-1.06,1.08,10,10,0,0,1-1.32,1,9.27,9.27,0,0,1-1.43.74,3.68,3.68,0,0,1-1.4.3,3.51,3.51,0,0,1-2.37-.83,6.12,6.12,0,0,1-1.55-2.21,14.08,14.08,0,0,1-.92-3.15,35.32,35.32,0,0,1-.46-3.65c-.77,1.13-1.46,2.14-2.1,3s-1.28,1.7-1.93,2.45c-.49.56-1,1.16-1.66,1.81a18.4,18.4,0,0,1-2,1.8,12.1,12.1,0,0,1-2.12,1.37,4.75,4.75,0,0,1-2.13.55,4.31,4.31,0,0,1-2-.42,3.39,3.39,0,0,1-1.3-1.16,4.87,4.87,0,0,1-.71-1.74,10.58,10.58,0,0,1-.21-2.17,17.92,17.92,0,0,1,.22-2.78C684.54,684.09,684.73,683.13,685,682.18Z" transform="translate(-553.44 -160.53)"/><path class="cls-6" d="M722.53,689.83a6.49,6.49,0,0,1,.2-1.52q.71-2.77,1.63-5.45t1.69-5.31l1.26-4.45c.33-1.21.63-2.24.89-3.11s.49-1.61.71-2.24.46-1.25.72-1.86c.16-.37.34-.75.54-1.15a9.47,9.47,0,0,1,.64-1.09,4.61,4.61,0,0,1,.73-.82,1.23,1.23,0,0,1,.79-.32,2.48,2.48,0,0,1,1.28.28,1.39,1.39,0,0,1,.54.5l.18.84a6.47,6.47,0,0,0,.8-.11l1-.2c.34-.06.65-.13.93-.2a5.28,5.28,0,0,0,.66-.19c.9-.24,1.73-.45,2.5-.63s1.49-.32,2.17-.44,1.35-.2,2-.26,1.26-.08,1.9-.08a10.5,10.5,0,0,1,1.54.1,3.93,3.93,0,0,1,.94.28,1.11,1.11,0,0,1,.48.41,1,1,0,0,1,.13.5,1.14,1.14,0,0,1-.13.52,1.64,1.64,0,0,1-.44.53,3.3,3.3,0,0,1-.8.43,4.78,4.78,0,0,1-1.23.24l-.85.15-1.44.25-1.47.25-1,.19h0a4.87,4.87,0,0,0-.59.15l-1.11.31-1.42.4-1.52.44-1.38.41-1,.31a5,5,0,0,0-2,1.3,6.29,6.29,0,0,0-1.12,1.81c-.06.13-.14.34-.25.63l-.35,1-.42,1.2c-.15.42-.3.82-.43,1.21s-.26.73-.36,1l-.22.69a3.6,3.6,0,0,0-.08.37c0,.11,0,.19,0,.25s0,.12.06.12a5.82,5.82,0,0,0,1.28-.28c.65-.18,1.41-.41,2.27-.68l2.79-.88c1-.31,1.93-.61,2.84-.88s1.71-.5,2.42-.69a7.14,7.14,0,0,1,1.54-.27,1.45,1.45,0,0,1,1,.23.73.73,0,0,1,.25.52,1.79,1.79,0,0,1-.53,1.29,4.9,4.9,0,0,1-1.3,1,7.76,7.76,0,0,1-.91.35c-.44.16-.92.32-1.43.48l-1.46.47-1,.33-3.27,1.28-2,.82-1.2.48-.78.28-.78.21-1.19.29a10.83,10.83,0,0,0-.43,1.3c-.16.58-.32,1.18-.47,1.8s-.28,1.19-.38,1.73a7.15,7.15,0,0,0-.15,1.1,1.05,1.05,0,0,0,.1.54.55.55,0,0,0,.24.24.75.75,0,0,0,.29.06h.23a12,12,0,0,0,2.36-.29,22.1,22.1,0,0,0,2.73-.75,14,14,0,0,0,2.25-1l1.81-1a14.3,14.3,0,0,1,1.66-.77,4.85,4.85,0,0,1,1.77-.34,3,3,0,0,1,.48,0,2.23,2.23,0,0,1,.52.15,1.24,1.24,0,0,1,.4.3.57.57,0,0,1,.11.47,2.19,2.19,0,0,1-.59,1.16A6.55,6.55,0,0,1,740,687.7a15.66,15.66,0,0,1-1.74,1c-.64.33-1.29.64-2,.93s-1.33.56-2,.8l-1.72.63a24.18,24.18,0,0,1-3.66,1,19.33,19.33,0,0,1-3.19.3,4.08,4.08,0,0,1-2.38-.58A2.18,2.18,0,0,1,722.53,689.83Z" transform="translate(-553.44 -160.53)"/><path class="cls-6" d="M747.78,689.83a6,6,0,0,1,.2-1.52c.46-1.85,1-3.67,1.63-5.45s1.18-3.55,1.68-5.31.93-3.24,1.26-4.45.63-2.24.89-3.11.5-1.61.72-2.24.46-1.25.72-1.86c.16-.37.34-.75.54-1.15a8.22,8.22,0,0,1,.64-1.09,4.25,4.25,0,0,1,.73-.82,1.21,1.21,0,0,1,.79-.32,2.44,2.44,0,0,1,1.27.28,1.37,1.37,0,0,1,.55.5l.18.84a6.47,6.47,0,0,0,.8-.11l1-.2c.34-.06.65-.13.93-.2a5.28,5.28,0,0,0,.66-.19q1.35-.36,2.49-.63c.77-.18,1.49-.32,2.18-.44s1.35-.2,2-.26,1.26-.08,1.9-.08a10.25,10.25,0,0,1,1.53.1,3.66,3.66,0,0,1,.94.28.95.95,0,0,1,.62.91,1.29,1.29,0,0,1-.13.52,1.56,1.56,0,0,1-.45.53,3.22,3.22,0,0,1-.79.43A4.78,4.78,0,0,1,772,665l-.85.15-1.44.25-1.48.25-1,.19h0a5.47,5.47,0,0,0-.58.15l-1.11.31-1.43.4-1.51.44-1.38.41-1,.31a5,5,0,0,0-2,1.3,6.49,6.49,0,0,0-1.11,1.81c-.06.13-.14.34-.25.63s-.23.63-.36,1l-.42,1.2-.43,1.21c-.13.38-.25.73-.35,1s-.18.54-.22.69a2.07,2.07,0,0,0-.08.37c0,.11,0,.19,0,.25s0,.12.06.12a5.82,5.82,0,0,0,1.28-.28c.65-.18,1.4-.41,2.27-.68l2.78-.88c1-.31,1.94-.61,2.85-.88s1.71-.5,2.42-.69a7.14,7.14,0,0,1,1.54-.27,1.49,1.49,0,0,1,1,.23.72.72,0,0,1,.24.52,1.78,1.78,0,0,1-.52,1.29,5.07,5.07,0,0,1-1.3,1,8.58,8.58,0,0,1-.91.35c-.44.16-.92.32-1.43.48l-1.46.47-1,.33-3.26,1.28-2,.82-1.19.48-.78.28-.79.21-1.18.29a9.27,9.27,0,0,0-.43,1.3c-.17.58-.32,1.18-.47,1.8s-.28,1.19-.38,1.73a7.59,7.59,0,0,0-.16,1.1,1,1,0,0,0,.11.54.51.51,0,0,0,.24.24.75.75,0,0,0,.29.06H753a12,12,0,0,0,2.37-.29,22.1,22.1,0,0,0,2.73-.75,14,14,0,0,0,2.25-1l1.81-1a13.57,13.57,0,0,1,1.66-.77,4.77,4.77,0,0,1,1.77-.34,3.08,3.08,0,0,1,.48,0,2.38,2.38,0,0,1,.52.15,1.24,1.24,0,0,1,.4.3.57.57,0,0,1,.11.47,2.26,2.26,0,0,1-.59,1.16,6.85,6.85,0,0,1-1.29,1.11,15.66,15.66,0,0,1-1.74,1c-.64.33-1.3.64-2,.93s-1.32.56-2,.8l-1.72.63a24.18,24.18,0,0,1-3.66,1,19.43,19.43,0,0,1-3.19.3,4.14,4.14,0,0,1-2.39-.58A2.19,2.19,0,0,1,747.78,689.83Z" transform="translate(-553.44 -160.53)"/><path class="cls-6" d="M781.82,688.05c.52-2.27,1.1-4.55,1.75-6.86s1.28-4.59,1.89-6.85c.26-.94.49-1.8.69-2.57s.36-1.47.5-2.1.24-1.19.31-1.7a12.45,12.45,0,0,0,.1-1.43v-.27c0-.1,0-.23,0-.38a4.6,4.6,0,0,0-.91.22c-.47.16-1,.35-1.66.6s-1.3.52-2,.83-1.35.61-2,.93l-1.2.61a7.77,7.77,0,0,1-.82.38,3.32,3.32,0,0,1-.64.18,2.88,2.88,0,0,1-.59.06,1.46,1.46,0,0,1-1.1-.5,1.79,1.79,0,0,1-.46-1.26,3.07,3.07,0,0,1,.09-.79,2,2,0,0,1,.29-.61,2.5,2.5,0,0,1,.52-.5c.22-.15.49-.31.8-.48a45.16,45.16,0,0,1,10.48-4,45.82,45.82,0,0,1,10.64-1.25c.28,0,.62,0,1,0s.8,0,1.22.07.82.08,1.21.14a7.67,7.67,0,0,1,1,.22,1.58,1.58,0,0,1,.81.59,1.5,1.5,0,0,1,.35,1,4.25,4.25,0,0,1-.07.8,1.74,1.74,0,0,1-.26.67,1.32,1.32,0,0,1-.48.46,1.35,1.35,0,0,1-.72.18l-1.69-.21a15.19,15.19,0,0,0-1.91-.12c-1.29,0-2.56,0-3.84.09a22.91,22.91,0,0,0-3.92.54c-.07,0-.11.1-.13.22a3.88,3.88,0,0,0,0,.44,18.75,18.75,0,0,1-.19,1.94,16.61,16.61,0,0,1-.33,1.68c-.15.56-.32,1.16-.52,1.81s-.45,1.43-.72,2.33-.59,2-1,3.26-.76,2.78-1.2,4.57l-1,4q-.35,1.37-.54,2.46c-.13.73-.25,1.45-.34,2.16a1.18,1.18,0,0,1-.63.66,2.56,2.56,0,0,1-1.27.3,1.33,1.33,0,0,1-.78-.23,2,2,0,0,1-.57-.6,2.35,2.35,0,0,1-.31-.81A1.82,1.82,0,0,1,781.82,688.05Z" transform="translate(-553.44 -160.53)"/><path class="cls-6" d="M613.43,731.73a3.29,3.29,0,0,1,.23-.69c.11-.22.22-.47.34-.74s.25-.59.39-1a13.92,13.92,0,0,0,.41-1.4l.8-3.28c.19-.79.38-1.59.59-2.42s.44-1.76.72-2.79c.21-.83.48-1.7.78-2.61l1-2.81c.34-1,.68-2,1-3s.65-2.08.92-3.17a.72.72,0,0,0,0-.17.2.2,0,0,0-.1-.2.7.7,0,0,0-.27,0,2,2,0,0,1-.85-.16,1.44,1.44,0,0,1-.53-.39,1.69,1.69,0,0,1-.28-.57,2.84,2.84,0,0,1-.08-.66,3.82,3.82,0,0,1,.22-1.44,2,2,0,0,1,.55-.84A2.1,2.1,0,0,1,620,703c.27-.09.53-.16.78-.22a6.5,6.5,0,0,0,.67-.17.7.7,0,0,0,.41-.34c.13-.29.26-.59.38-.91a3.89,3.89,0,0,1,.44-.89,2.19,2.19,0,0,1,.65-.67,1.76,1.76,0,0,1,1-.27,1.37,1.37,0,0,1,.8.24,2.53,2.53,0,0,1,.6.62,4.33,4.33,0,0,1,.44.79c.13.28.24.53.33.76,1.41,0,2.62.13,3.65.25s1.81.23,2.33.33a18.23,18.23,0,0,1,3.08.86,11.36,11.36,0,0,1,2.78,1.48,7.92,7.92,0,0,1,2,2.15,5.11,5.11,0,0,1,.79,2.83,8.48,8.48,0,0,1-.18,1.7l-.15.72a4,4,0,0,1-.68,1.59,7.91,7.91,0,0,1-1.18,1.33,18.1,18.1,0,0,1-4,2.81,29.64,29.64,0,0,1-4.52,1.92,48,48,0,0,1-4.81,1.31c-1.63.35-3.25.69-4.85,1l-.57.08c-.31,0-.5.16-.55.35-.28.94-.49,1.77-.65,2.47s-.3,1.39-.44,2-.27,1.3-.41,1.94-.3,1.37-.51,2.16a4.76,4.76,0,0,1-.37.92,5.32,5.32,0,0,1-.63,1,3.8,3.8,0,0,1-.85.8,1.7,1.7,0,0,1-1,.34,1.06,1.06,0,0,1-.64-.2,1.78,1.78,0,0,1-.44-.53,3.09,3.09,0,0,1-.26-.68,3,3,0,0,1-.09-.7V732A.54.54,0,0,1,613.43,731.73Zm8.12-15.12-.11.36c-.05.15-.09.3-.14.45s-.07.3-.1.43a1.3,1.3,0,0,0,0,.28.43.43,0,0,0,0,.17.13.13,0,0,0,.13.07,2.41,2.41,0,0,0,.39,0l.79-.13,1-.18,1-.21c.88-.19,1.83-.43,2.84-.73s2-.62,3-1,2-.76,2.87-1.18a17.82,17.82,0,0,0,2.44-1.36,9.17,9.17,0,0,0,1.8-1.51,2.37,2.37,0,0,0,.67-1.62,2.86,2.86,0,0,0-.13-.91,6,6,0,0,0-.3-.72,4.73,4.73,0,0,0-1.53-1.58,7.22,7.22,0,0,0-2-.86,11.82,11.82,0,0,0-2.27-.36c-.79-.06-1.57-.09-2.33-.09l-.93,0-1.31.11c-.46,0-.88.09-1.27.15a2.56,2.56,0,0,0-.79.21.62.62,0,0,0-.17.21,2.15,2.15,0,0,0-.11.24l-.45,1.14c-.19.48-.4,1-.62,1.63s-.44,1.23-.68,1.9l-.69,2c-.22.64-.42,1.23-.6,1.78S621.65,716.26,621.55,716.61Z" transform="translate(-553.44 -160.53)"/><path class="cls-6" d="M644,721c.13-.53.27-1.12.44-1.77s.36-1.32.56-2,.4-1.4.6-2.11.41-1.39.6-2,.38-1.26.55-1.83.3-1,.42-1.44c.26-.89.51-1.78.74-2.67s.46-1.83.68-2.81a2.44,2.44,0,0,1,1.1-1.14,3.53,3.53,0,0,1,1.52-.34,2.78,2.78,0,0,1,1,1,2.57,2.57,0,0,1,.38,1.37,4.79,4.79,0,0,1-.18,1.21c-.11.46-.26,1-.44,1.48s-.37,1.07-.59,1.65-.43,1.18-.63,1.79c-.39,1.12-.77,2.24-1.15,3.36s-.76,2.3-1.12,3.54c-.1.33-.2.65-.31,1s-.22.68-.34,1.06-.24.81-.38,1.28-.27,1-.41,1.63-.3,1.45-.43,2.18-.24,1.46-.34,2.2-.24,1.48-.37,2.23-.3,1.51-.49,2.27a1.88,1.88,0,0,1-.36.72,2.56,2.56,0,0,1-.59.55,2.8,2.8,0,0,1-.69.35,2.29,2.29,0,0,1-.7.12,4.21,4.21,0,0,1-.62-.05.82.82,0,0,1-.46-.24,2.33,2.33,0,0,1-.39-.59,1.65,1.65,0,0,1-.14-.7,1.15,1.15,0,0,1,0-.19.75.75,0,0,1,0-.2Z" transform="translate(-553.44 -160.53)"/><path class="cls-6" d="M660,707.94c.08-.36.19-.73.31-1.14a4.78,4.78,0,0,1,.49-1.1,2.79,2.79,0,0,1,.8-.84,2.33,2.33,0,0,1,2.52.06,11.36,11.36,0,0,1,1,.81,3.36,3.36,0,0,1,1,1.41,23.88,23.88,0,0,1,1,2.62c.35,1,.73,2.21,1.13,3.52s.84,2.68,1.33,4.11,1,2.9,1.63,4.39a44.44,44.44,0,0,0,2,4.37l.43.76a9.11,9.11,0,0,0,.5.83c.17.26.33.48.47.66s.25.26.32.26.09-.1.14-.3.12-.45.19-.74l.21-.88c.08-.3.15-.54.22-.74.26-.62.54-1.34.85-2.15s.64-1.8,1-3,.79-2.52,1.24-4.1.94-3.46,1.49-5.63c.14-.53.28-1.13.44-1.81s.31-1.36.45-2.07.27-1.38.38-2,.18-1.25.22-1.74c0-.08,0-.23,0-.43s0-.44.08-.7.07-.52.13-.8a4.11,4.11,0,0,1,.21-.77,1.76,1.76,0,0,1,.34-.57.65.65,0,0,1,.49-.23,4.26,4.26,0,0,1,.71.08,3.66,3.66,0,0,1,.77.25,6.62,6.62,0,0,1,.7,1.28,5.28,5.28,0,0,1,.32,2,13.64,13.64,0,0,1-.17,1.92c-.1.74-.24,1.54-.41,2.39s-.37,1.73-.58,2.63-.42,1.76-.64,2.59-.43,1.58-.63,2.27-.36,1.26-.5,1.71c-.24.79-.5,1.6-.76,2.44s-.56,1.72-.88,2.64-.67,1.9-1,2.93-.79,2.13-1.26,3.3c-.2.53-.44,1.06-.7,1.6a8.61,8.61,0,0,1-.91,1.44,4.37,4.37,0,0,1-1.16,1,2.65,2.65,0,0,1-1.44.4,3.7,3.7,0,0,1-1-.13,1.64,1.64,0,0,1-.85-.54,23.86,23.86,0,0,1-3-4.41,48.29,48.29,0,0,1-2.34-5.16c-.69-1.79-1.3-3.61-1.83-5.44s-1-3.59-1.46-5.27l-.12-.47-.15-.58c0-.2-.1-.38-.14-.55a2.18,2.18,0,0,0-.17-.4.25.25,0,0,0-.21-.15c-.08,0-.19.15-.31.45s-.25.64-.37,1l-.34,1.1c-.1.35-.16.58-.19.67-.1.36-.24.87-.43,1.53s-.41,1.41-.64,2.24-.5,1.71-.78,2.64l-.81,2.69c-.26.87-.5,1.67-.74,2.4s-.42,1.33-.57,1.78-.27.81-.45,1.37-.35,1.13-.53,1.69l-.49,1.55c-.15.46-.25.77-.29.92a2.4,2.4,0,0,1-.73,1.17,1.49,1.49,0,0,1-1,.4,1.07,1.07,0,0,1-.61-.21,2.43,2.43,0,0,1-.54-.52,3,3,0,0,1-.39-.67,1.68,1.68,0,0,1-.15-.64,2.1,2.1,0,0,1,.1-.53l.32-1.21.54-2.11Z" transform="translate(-553.44 -160.53)"/><path class="cls-6" d="M686.69,731.18a5.9,5.9,0,0,1,.21-1.51c.46-1.86,1-3.67,1.62-5.46s1.19-3.55,1.69-5.3.93-3.25,1.26-4.45.63-2.25.89-3.11.5-1.62.72-2.24.45-1.25.71-1.87c.17-.36.35-.75.54-1.14A9.66,9.66,0,0,1,695,705a4.22,4.22,0,0,1,.73-.82,1.19,1.19,0,0,1,.78-.31,2.46,2.46,0,0,1,1.28.27,1.39,1.39,0,0,1,.54.5l.19.84a6.73,6.73,0,0,0,.8-.11l1-.19.93-.21c.29-.07.5-.13.65-.18.9-.25,1.74-.46,2.5-.64s1.49-.32,2.18-.44,1.35-.2,2-.25,1.27-.08,1.91-.08a9.22,9.22,0,0,1,1.53.1,3.7,3.7,0,0,1,.94.27,1.18,1.18,0,0,1,.48.41,1,1,0,0,1,.14.51,1.23,1.23,0,0,1-.14.52,1.49,1.49,0,0,1-.44.52,2.92,2.92,0,0,1-.79.43,4.78,4.78,0,0,1-1.23.24l-.85.16-1.44.24-1.48.26-1,.18h0l-.58.16-1.12.3-1.42.4-1.51.44-1.38.41-1,.32a4.94,4.94,0,0,0-1.95,1.3,6.61,6.61,0,0,0-1.12,1.81l-.24.62-.36,1-.42,1.2c-.15.42-.29.83-.43,1.21l-.36,1c-.1.32-.17.55-.21.7a1.9,1.9,0,0,0-.08.37,1.25,1.25,0,0,0,0,.24q0,.12.06.12a6.36,6.36,0,0,0,1.28-.27c.64-.19,1.4-.41,2.27-.69l2.78-.88,2.84-.88c.91-.27,1.72-.5,2.43-.68a6.74,6.74,0,0,1,1.53-.28,1.39,1.39,0,0,1,1,.24.68.68,0,0,1,.25.52,1.81,1.81,0,0,1-.52,1.29,4.83,4.83,0,0,1-1.3,1c-.16.08-.47.2-.91.36l-1.43.48-1.47.47-1,.33c-1.34.51-2.42.94-3.26,1.27l-2,.82c-.52.22-.92.38-1.19.48s-.54.21-.78.28a6.92,6.92,0,0,1-.79.21l-1.19.29c-.12.29-.26.72-.43,1.3s-.32,1.18-.47,1.8-.27,1.2-.38,1.73a7.15,7.15,0,0,0-.15,1.1,1.25,1.25,0,0,0,.1.55.55.55,0,0,0,.25.23.72.72,0,0,0,.29.06h.22a11.85,11.85,0,0,0,2.36-.28,22.3,22.3,0,0,0,2.74-.76,16,16,0,0,0,2.25-1c.64-.36,1.24-.69,1.81-1a13.57,13.57,0,0,1,1.65-.78,5.07,5.07,0,0,1,1.77-.34,2.9,2.9,0,0,1,.48,0,2.31,2.31,0,0,1,.53.15,1.19,1.19,0,0,1,.39.3.57.57,0,0,1,.12.47,2.27,2.27,0,0,1-.6,1.17,7.12,7.12,0,0,1-1.28,1.1,15.67,15.67,0,0,1-1.74,1c-.65.32-1.3.63-2,.93s-1.32.56-2,.8l-1.72.62a22.55,22.55,0,0,1-3.66,1,18.49,18.49,0,0,1-3.19.31,4.19,4.19,0,0,1-2.39-.58A2.22,2.22,0,0,1,686.69,731.18Z" transform="translate(-553.44 -160.53)"/><path class="cls-6" d="M729.92,732.92a1.59,1.59,0,0,1-1.29-.59,1.68,1.68,0,0,1-.33-.62,2.07,2.07,0,0,1-.11-.69,3.05,3.05,0,0,1,.16-.85c.11-.36.25-.77.42-1.22s.36-.92.56-1.41.4-1,.59-1.41.36-.87.5-1.25.23-.68.28-.9.12-.54.21-.88l.27-1.12c.1-.4.21-.82.31-1.26s.21-.89.32-1.34c-.19,0-.43.08-.71.11l-.89.09c-.45,0-.89.1-1.33.18l-1.34.28-1.42.33-1.58.36c-.81.17-1.63.37-2.45.59a9.82,9.82,0,0,1-2.56.33,1.4,1.4,0,0,1-.76-.22,2.49,2.49,0,0,0-.77-.31,12.41,12.41,0,0,0-.78,1.4c-.25.5-.47,1-.68,1.53s-.38,1-.55,1.56-.31,1-.43,1.44a6.66,6.66,0,0,0-.17,1c0,.39-.09.78-.14,1.19s-.08.78-.12,1.15-.08.66-.12.88a1.68,1.68,0,0,1-.25.61,2.81,2.81,0,0,1-.45.54,2.45,2.45,0,0,1-.59.4,1.57,1.57,0,0,1-.65.15,1.29,1.29,0,0,1-.94-.34,2.59,2.59,0,0,1-.57-.84,4.16,4.16,0,0,1-.29-1.09,7.37,7.37,0,0,1-.09-1.09,11.79,11.79,0,0,1,.31-2.58,19.61,19.61,0,0,1,.83-2.72,30.47,30.47,0,0,1,1.23-2.79c.47-.93,1-1.86,1.52-2.79s1-1.79,1.68-2.88,1.41-2.22,2.24-3.37,1.72-2.28,2.68-3.39a26,26,0,0,1,3-2.95,15.39,15.39,0,0,1,3.19-2.1,7.38,7.38,0,0,1,3.25-.8,5.87,5.87,0,0,1,2.83.62,4.92,4.92,0,0,1,1.82,1.65,7.07,7.07,0,0,1,1,2.44,15.45,15.45,0,0,1,.27,2.94,25.1,25.1,0,0,1-.17,2.83c-.12,1-.26,1.91-.43,2.84s-.36,1.82-.55,2.68-.38,1.64-.55,2.33l-.71,2.79c0,.08-.08.24-.15.49s-.18.54-.29.89l-.39,1.12c-.14.41-.29.8-.43,1.19s-.28.75-.41,1.07-.24.6-.34.8l0,0c-.09.36-.19.72-.3,1.09a4.05,4.05,0,0,1-.45,1,2.28,2.28,0,0,1-.74.71A2.16,2.16,0,0,1,729.92,732.92ZM731,707.3a4.73,4.73,0,0,0-1.83.38,9.65,9.65,0,0,0-1.79,1,11.79,11.79,0,0,0-1.71,1.43c-.55.54-1.08,1.1-1.58,1.68s-1,1.14-1.4,1.72-.83,1.12-1.19,1.61l-.21.32c-.09.13-.18.27-.27.43s-.17.32-.25.49l-.21.46h2.11c.76,0,1.64-.06,2.62-.16s2-.24,2.91-.39,1.85-.31,2.65-.46l1.83-.36a7.27,7.27,0,0,0,.15-.72c.05-.3.09-.63.13-1s.07-.76.09-1.18,0-.84,0-1.28,0-.76,0-1.21a5,5,0,0,0-.24-1.3,2.67,2.67,0,0,0-.63-1A1.62,1.62,0,0,0,731,707.3Z" transform="translate(-553.44 -160.53)"/><path class="cls-6" d="M740.52,731.73a4,4,0,0,1,.24-.69c.1-.22.21-.47.34-.74s.25-.59.38-1a11.71,11.71,0,0,0,.41-1.4l.8-3.28c.19-.79.39-1.59.59-2.42s.45-1.76.72-2.79c.22-.83.48-1.7.79-2.61s.62-1.85,1-2.81.67-2,1-3,.65-2.08.92-3.17a.42.42,0,0,0,0-.17c0-.11,0-.17-.1-.2a.68.68,0,0,0-.26,0,1.9,1.9,0,0,1-.85-.16,1.4,1.4,0,0,1-.54-.39,1.5,1.5,0,0,1-.27-.57,2.39,2.39,0,0,1-.08-.66,4.06,4.06,0,0,1,.21-1.44,2,2,0,0,1,.55-.84,2.14,2.14,0,0,1,.74-.43c.27-.09.53-.16.78-.22a6.26,6.26,0,0,0,.66-.17.67.67,0,0,0,.41-.34c.14-.29.26-.59.38-.91a4.34,4.34,0,0,1,.44-.89,2.44,2.44,0,0,1,.65-.67,1.77,1.77,0,0,1,1-.27,1.4,1.4,0,0,1,.8.24,2.53,2.53,0,0,1,.6.62,4.33,4.33,0,0,1,.44.79l.33.76c1.4,0,2.62.13,3.65.25s1.8.23,2.32.33a18,18,0,0,1,3.08.86,11,11,0,0,1,2.78,1.48,8,8,0,0,1,2,2.15,5.19,5.19,0,0,1,.79,2.83,8.51,8.51,0,0,1-.19,1.7l-.14.72a4,4,0,0,1-.69,1.59,8.32,8.32,0,0,1-1.17,1.33,18.58,18.58,0,0,1-4,2.81,30.51,30.51,0,0,1-4.52,1.92,48.72,48.72,0,0,1-4.81,1.31c-1.64.35-3.26.69-4.85,1l-.57.08c-.32,0-.5.16-.56.35-.27.94-.49,1.77-.64,2.47s-.3,1.39-.44,2-.27,1.3-.41,1.94-.31,1.37-.51,2.16a4.76,4.76,0,0,1-.37.92,6.57,6.57,0,0,1-.63,1,4,4,0,0,1-.85.8,1.71,1.71,0,0,1-1,.34,1.05,1.05,0,0,1-.63-.2,1.64,1.64,0,0,1-.44-.53,2.68,2.68,0,0,1-.27-.68,3,3,0,0,1-.09-.7V732A.78.78,0,0,1,740.52,731.73Zm8.13-15.12q0,.15-.12.36c0,.15-.09.3-.13.45s-.08.3-.1.43a1.3,1.3,0,0,0,0,.28.43.43,0,0,0,0,.17c0,.05.06.07.13.07a2.7,2.7,0,0,0,.39,0l.79-.13,1-.18,1-.21c.89-.19,1.84-.43,2.85-.73s2-.62,3-1,2-.76,2.88-1.18a18.29,18.29,0,0,0,2.43-1.36,9.17,9.17,0,0,0,1.8-1.51,2.39,2.39,0,0,0,.68-1.62,3.17,3.17,0,0,0-.13-.91,6,6,0,0,0-.3-.72,4.66,4.66,0,0,0-1.54-1.58,7.29,7.29,0,0,0-2-.86A11.82,11.82,0,0,0,759,706c-.79-.06-1.57-.09-2.33-.09l-.94,0-1.3.11c-.46,0-.88.09-1.27.15a2.56,2.56,0,0,0-.79.21.54.54,0,0,0-.18.21c0,.1-.08.18-.11.24l-.45,1.14c-.19.48-.39,1-.61,1.63l-.69,1.9c-.24.67-.46,1.32-.68,2l-.61,1.78C748.88,715.81,748.74,716.26,748.65,716.61Z" transform="translate(-553.44 -160.53)"/><path class="cls-6" d="M768.08,731.73a3.32,3.32,0,0,1,.24-.69l.33-.74a8.84,8.84,0,0,0,.39-1,11.71,11.71,0,0,0,.41-1.4l.8-3.28c.19-.79.39-1.59.59-2.42s.45-1.76.72-2.79c.22-.83.48-1.7.79-2.61s.62-1.85,1-2.81.67-2,1-3,.65-2.08.92-3.17a.42.42,0,0,0,0-.17c0-.11,0-.17-.1-.2a.7.7,0,0,0-.27,0,2,2,0,0,1-.85-.16,1.44,1.44,0,0,1-.53-.39,1.5,1.5,0,0,1-.27-.57,2.39,2.39,0,0,1-.08-.66,4.06,4.06,0,0,1,.21-1.44,2,2,0,0,1,.55-.84,2.14,2.14,0,0,1,.74-.43c.27-.09.52-.16.78-.22a6.26,6.26,0,0,0,.66-.17.67.67,0,0,0,.41-.34c.14-.29.26-.59.38-.91a3.89,3.89,0,0,1,.44-.89,2.31,2.31,0,0,1,.65-.67,1.77,1.77,0,0,1,1-.27,1.34,1.34,0,0,1,.79.24,2.4,2.4,0,0,1,.61.62,4.33,4.33,0,0,1,.44.79l.33.76c1.4,0,2.62.13,3.65.25s1.8.23,2.32.33a18,18,0,0,1,3.08.86,11,11,0,0,1,2.78,1.48,8,8,0,0,1,2,2.15,5.19,5.19,0,0,1,.78,2.83,8.48,8.48,0,0,1-.18,1.7l-.14.72a4,4,0,0,1-.69,1.59,8.32,8.32,0,0,1-1.17,1.33,18.58,18.58,0,0,1-4,2.81,30.18,30.18,0,0,1-4.53,1.92,47.79,47.79,0,0,1-4.8,1.31c-1.64.35-3.26.69-4.85,1l-.58.08c-.31,0-.49.16-.55.35-.27.94-.49,1.77-.64,2.47s-.31,1.39-.44,2-.28,1.3-.41,1.94-.31,1.37-.51,2.16a4.76,4.76,0,0,1-.37.92,5.93,5.93,0,0,1-.64,1,3.75,3.75,0,0,1-.84.8,1.73,1.73,0,0,1-1,.34,1.05,1.05,0,0,1-.63-.2,1.53,1.53,0,0,1-.44-.53,2.68,2.68,0,0,1-.27-.68,3,3,0,0,1-.09-.7V732A.54.54,0,0,1,768.08,731.73Zm8.12-15.12a2.76,2.76,0,0,1-.11.36c-.05.15-.09.3-.13.45s-.08.3-.1.43a1.3,1.3,0,0,0,0,.28.43.43,0,0,0,0,.17c0,.05.06.07.13.07a2.7,2.7,0,0,0,.39,0l.79-.13,1-.18,1-.21c.89-.19,1.83-.43,2.84-.73s2-.62,3-1,2-.76,2.88-1.18a18.29,18.29,0,0,0,2.43-1.36,9.17,9.17,0,0,0,1.8-1.51,2.39,2.39,0,0,0,.68-1.62,2.85,2.85,0,0,0-.14-.91,3.87,3.87,0,0,0-1.83-2.3,7.29,7.29,0,0,0-2-.86,11.82,11.82,0,0,0-2.27-.36q-1.19-.09-2.34-.09l-.93,0L782,706c-.45,0-.88.09-1.26.15a2.47,2.47,0,0,0-.79.21.54.54,0,0,0-.18.21c0,.1-.08.18-.11.24l-.45,1.14c-.19.48-.39,1-.61,1.63l-.69,1.9c-.24.67-.47,1.32-.68,2l-.61,1.78C776.44,715.81,776.3,716.26,776.2,716.61Z" transform="translate(-553.44 -160.53)"/><path class="cls-6" d="M798.28,722.14l1.76-5.42q.84-2.61,1.48-4.81c.43-1.48.77-2.78,1-3.91a16.69,16.69,0,0,0,.42-2.7,3,3,0,0,1,.87-1.53,2,2,0,0,1,1.44-.58,1.55,1.55,0,0,1,.84.23,1.76,1.76,0,0,1,.56.59,3,3,0,0,1,.32.83,4.9,4.9,0,0,1,.1.93,5.9,5.9,0,0,1,0,.63,4.63,4.63,0,0,1-.11.56c-.31,1.25-.68,2.55-1.12,3.88s-.88,2.69-1.34,4.07-.91,2.74-1.36,4.12-.85,2.73-1.21,4.05l-.37,1.39c-.19.71-.35,1.39-.49,2a8.28,8.28,0,0,0-.2,1.55,1,1,0,0,0,.12.52.51.51,0,0,0,.47.2,8.61,8.61,0,0,0,2-.28c.75-.18,1.53-.41,2.34-.67s1.6-.56,2.4-.88,1.53-.63,2.2-.91l.91-.39.94-.4,1.51-.63,2.59-1.08.51-.17a1.19,1.19,0,0,1,.4-.08,1.13,1.13,0,0,1,.56.13,1,1,0,0,1,.37.32,1.78,1.78,0,0,1,.19.47,2.48,2.48,0,0,1,.06.54,3.58,3.58,0,0,1-.07.78,5.64,5.64,0,0,1-.15.57,3,3,0,0,1-.64.7,5.66,5.66,0,0,1-.82.56,6.84,6.84,0,0,1-.83.39l-.68.25-.87.33-1.18.45-1.31.5-1.26.48-1.06.4-.64.23-2,.74-2.13.78c-.71.24-1.39.45-2,.62a6.34,6.34,0,0,1-1.58.26,4.35,4.35,0,0,1-1.22-.13,3,3,0,0,1-.79-.33,6.21,6.21,0,0,1-.71-.53,7.81,7.81,0,0,0-1-.67,1.83,1.83,0,0,1-.75-.9,3.32,3.32,0,0,1-.23-1.23,7.24,7.24,0,0,1,.05-.75c0-.29.08-.59.14-.91s.11-.62.18-.92a7.87,7.87,0,0,1,.22-.79Z" transform="translate(-553.44 -160.53)"/><path class="cls-6" d="M821.26,731.18a5.87,5.87,0,0,1,.2-1.51c.46-1.86,1-3.67,1.63-5.46s1.18-3.55,1.68-5.3.93-3.25,1.26-4.45.63-2.25.89-3.11.5-1.62.72-2.24.46-1.25.72-1.87c.16-.36.34-.75.54-1.14a9.63,9.63,0,0,1,.64-1.1,4.57,4.57,0,0,1,.73-.82,1.2,1.2,0,0,1,.79-.31,2.42,2.42,0,0,1,1.27.27,1.52,1.52,0,0,1,.55.5l.18.84a6.47,6.47,0,0,0,.8-.11l1-.19.93-.21.66-.18c.9-.25,1.73-.46,2.49-.64s1.49-.32,2.18-.44,1.35-.2,2-.25,1.26-.08,1.9-.08a9.06,9.06,0,0,1,1.53.1,3.7,3.7,0,0,1,.94.27,1.15,1.15,0,0,1,.49.41,1.14,1.14,0,0,1,.13.51,1.37,1.37,0,0,1-.13.52,1.61,1.61,0,0,1-.44.52,3,3,0,0,1-.8.43,4.78,4.78,0,0,1-1.23.24l-.85.16-1.44.24-1.47.26-1,.18h0l-.58.16-1.11.3-1.43.4-1.51.44-1.38.41-1,.32a4.91,4.91,0,0,0-2,1.3,6.35,6.35,0,0,0-1.11,1.81c-.06.12-.14.33-.25.62l-.36,1-.42,1.2c-.15.42-.29.83-.43,1.21s-.25.73-.35,1-.18.55-.22.7a1.9,1.9,0,0,0-.08.37c0,.11,0,.19,0,.24s0,.12.06.12a6.22,6.22,0,0,0,1.28-.27c.65-.19,1.4-.41,2.27-.69l2.78-.88,2.85-.88c.9-.27,1.71-.5,2.42-.68a6.71,6.71,0,0,1,1.54-.28,1.43,1.43,0,0,1,1,.24.7.7,0,0,1,.24.52,1.81,1.81,0,0,1-.52,1.29,4.83,4.83,0,0,1-1.3,1c-.16.08-.47.2-.91.36l-1.43.48-1.46.47-1,.33-3.26,1.27-2,.82q-.78.33-1.2.48c-.28.11-.54.21-.78.28a6.92,6.92,0,0,1-.79.21l-1.18.29a9.75,9.75,0,0,0-.43,1.3c-.17.58-.32,1.18-.47,1.8s-.28,1.2-.38,1.73a7.59,7.59,0,0,0-.16,1.1,1.11,1.11,0,0,0,.11.55.53.53,0,0,0,.24.23.75.75,0,0,0,.29.06h.22a11.94,11.94,0,0,0,2.37-.28,22.15,22.15,0,0,0,2.73-.76,15,15,0,0,0,2.25-1c.64-.36,1.24-.69,1.81-1a13.68,13.68,0,0,1,1.66-.78,5.07,5.07,0,0,1,1.77-.34,3.08,3.08,0,0,1,.48,0,2.38,2.38,0,0,1,.52.15,1.24,1.24,0,0,1,.4.3.57.57,0,0,1,.11.47A2.18,2.18,0,0,1,840,728a6.87,6.87,0,0,1-1.29,1.1,15.67,15.67,0,0,1-1.74,1c-.64.32-1.3.63-2,.93s-1.32.56-2,.8l-1.72.62a22,22,0,0,1-3.66,1,18.49,18.49,0,0,1-3.19.31,4.16,4.16,0,0,1-2.38-.58A2.19,2.19,0,0,1,821.26,731.18Z" transform="translate(-553.44 -160.53)"/></svg>