<svg id="Layer_2" data-name="Layer 2" xmlns="http://www.w3.org/2000/svg" viewBox="0 0 343.66 669.19"><defs><style>.cls-1{fill:#ff1206;}.cls-2{fill:#ced5d0;}.cls-3{fill:#777589;opacity:0.33;}.cls-4{fill:#fff;opacity:0.48;}.cls-5{fill:#ededc3;}</style></defs><title>can4</title><rect class="cls-1" y="55.75" width="343.66" height="570.09"/><polygon class="cls-2" points="0 625.83 27.3 669.19 171.83 669.19 171.83 625.83 0 625.83"/><polygon class="cls-2" points="343.66 625.83 316.36 669.19 171.83 669.19 171.83 625.83 343.66 625.83"/><polygon class="cls-2" points="0 55.75 26.1 27.26 171.83 27.26 171.83 55.75 0 55.75"/><polygon class="cls-2" points="343.66 55.75 317.56 27.26 171.83 27.26 171.83 55.75 343.66 55.75"/><path class="cls-2" d="M1357.82,187.79H1067.73a13.63,13.63,0,0,1-13.63-13.63h0a13.63,13.63,0,0,1,13.63-13.63h290.09a13.63,13.63,0,0,1,13.63,13.63h0A13.64,13.64,0,0,1,1357.82,187.79Z" transform="translate(-1040.95 -160.53)"/><path class="cls-3" d="M1371.32,172.38c0-.1,0-.2,0-.3a13.22,13.22,0,0,0-.35-1.66h0a13.63,13.63,0,0,0-13.1-9.89H1271.9a13.62,13.62,0,0,1,12.15,19.79H1067.73a13.64,13.64,0,0,1-13.1-9.9,13.57,13.57,0,0,0-.53,3.74h0a13.63,13.63,0,0,0,13.63,13.63h290.09a13.64,13.64,0,0,0,13.63-13.63h0A14.76,14.76,0,0,0,1371.32,172.38Z" transform="translate(-1040.95 -160.53)"/><path class="cls-4" d="M1071.8,340.12c-2.52,11.07-2.21,22.7-1.88,34.17q2.86,98.82,5.71,197.64c.38,13,2.51,28.93,13.52,33.72,9.29,4.05,19.9-3.27,24.16-13.1s3.87-21.31,3.47-32.28q-3.45-94.23,1.41-188.38c.55-10.67,1.12-21.82-2.78-31.7C1107.1,319.14,1077.27,316.07,1071.8,340.12Z" transform="translate(-1040.95 -160.53)"/><path class="cls-4" d="M1085.5,243.06c-.87-1.73-2.37-1.11-3.5-.1-7.07,6.25-10.85,23.66-8.19,37.74s11.36,22.76,18.87,18.82,12.72-19.91,11.3-34.64-9.26-26-17-24.53Z" transform="translate(-1040.95 -160.53)"/><path class="cls-5" d="M1143.39,734.76a45.08,45.08,0,0,1-2.37,14.88A30.85,30.85,0,0,1,1122.18,769a45.43,45.43,0,0,1-16.26,2.69,44.77,44.77,0,0,1-15.59-2.57,33.29,33.29,0,0,1-12-7.48,31.58,31.58,0,0,1-7.42-11.67,42.83,42.83,0,0,1-2.63-15.22,60.21,60.21,0,0,1,.51-8.23,57.12,57.12,0,0,1,1.34-6.77,47.58,47.58,0,0,1,2.06-5.9c.76-1.76,1.47-3.31,2.11-4.63h17.53v2.13q-1.15,1.37-2.75,3.42a44.4,44.4,0,0,0-3.14,4.69,32.37,32.37,0,0,0-2.61,5.78,20.37,20.37,0,0,0-1.06,6.65,22.6,22.6,0,0,0,1.23,7.47,18.42,18.42,0,0,0,4.09,6.56,20.14,20.14,0,0,0,7.32,4.63,30.59,30.59,0,0,0,11,1.77,29.24,29.24,0,0,0,11.33-1.91,19.73,19.73,0,0,0,7.17-4.83,17.55,17.55,0,0,0,3.8-6.61,23.9,23.9,0,0,0,1.14-7.18,22.77,22.77,0,0,0-1-6.72,26.32,26.32,0,0,0-2.75-6.15,42.56,42.56,0,0,0-3-4.41q-1.59-2-2.75-3.35v-1.94h17.28q1.21,2.72,2.28,5.19a43.53,43.53,0,0,1,1.85,5.19,63.32,63.32,0,0,1,1.55,6.66A52.65,52.65,0,0,1,1143.39,734.76Z" transform="translate(-1040.95 -160.53)"/><path class="cls-5" d="M1105.87,625.19q17.28,0,27.45,9.91t10.17,27.38q0,17.41-10.17,27.33t-27.45,9.9q-17.43,0-27.55-9.9t-10.12-27.33q0-17.38,10.12-27.34T1105.87,625.19Zm18.3,24.71a21.78,21.78,0,0,0-7.79-4,38,38,0,0,0-10.56-1.31,35.38,35.38,0,0,0-11.07,1.51,21.45,21.45,0,0,0-7.38,3.93,14.69,14.69,0,0,0-4.22,5.7,18.11,18.11,0,0,0-.05,13.4,15.45,15.45,0,0,0,4.18,5.75,20.49,20.49,0,0,0,7.5,4,36.38,36.38,0,0,0,11.09,1.53,35.59,35.59,0,0,0,11-1.48,21.79,21.79,0,0,0,7.41-3.91,14.87,14.87,0,0,0,4.22-5.68,17.79,17.79,0,0,0,0-13.69A15.08,15.08,0,0,0,1124.17,649.9Z" transform="translate(-1040.95 -160.53)"/><path class="cls-5" d="M1142,558.83V611H1069.7V592.33H1128v-33.5Z" transform="translate(-1040.95 -160.53)"/><path class="cls-5" d="M1142,480.82v19.25l-14.62,5v26.75l14.62,5v18.79L1069.7,529V507.52Zm-27.87,28.77-25.89,8.89,25.89,8.89Z" transform="translate(-1040.95 -160.53)"/><path class="cls-5" d="M1384.6,265.09a179.6,179.6,0,0,0-41,13.26c-31.29,14.13-60.76,33.73-94.48,40.22-42.79,8.22-86.59-5.73-130.16-5.42-14,.1-46.87,6.45-78,17.93v73.78c29.29-18.9,60.78-31.15,96.25-30.16,40.63,1.14,80.86,18,120.91,11,33.11-5.76,61.05-26.93,90.32-43.45a186.78,186.78,0,0,1,36.17-16Z" transform="translate(-1040.95 -160.53)"/><path class="cls-5" d="M1384.6,347.39A189.18,189.18,0,0,0,1339,366.25c-18,10.42-34.47,23.88-53.87,31.47-27,10.56-57.14,8.76-85.86,4.82s-57.59-9.88-86.44-7.06a144.92,144.92,0,0,0-66,23.7c-1.92,1.28-3.86,2.54-5.81,3.8v32.34c8.87-7,17.86-13.74,27.8-19,36.89-19.66,81.47-16.49,122.73-9.77,31.33,5.1,63.67,11.92,94.37,3.88,26-6.81,48-23.6,71.8-36.17a144.86,144.86,0,0,1,26.95-11.16Z" transform="translate(-1040.95 -160.53)"/><polygon class="cls-3" points="316.87 27.26 229.03 27.26 251.44 55.75 251.44 625.83 233.04 669.19 316.36 669.19 343.66 625.83 343.66 55.75 316.87 27.26"/></svg>