<svg id="Layer_2" data-name="Layer 2" xmlns="http://www.w3.org/2000/svg" viewBox="0 0 343.66 669.19"><defs><style>.cls-1{fill:#ededc3;}.cls-2{fill:#ced5d0;}.cls-3{fill:#777589;opacity:0.33;}.cls-4{fill:#4f5656;}.cls-5{fill:#57aa48;}.cls-6{fill:#fff;opacity:0.51;}</style></defs><title>can5</title><rect class="cls-1" y="55.75" width="343.66" height="570.09"/><polygon class="cls-2" points="0 625.83 27.3 669.19 171.83 669.19 171.83 625.83 0 625.83"/><polygon class="cls-2" points="343.66 625.83 316.36 669.19 171.83 669.19 171.83 625.83 343.66 625.83"/><polygon class="cls-2" points="0 55.75 26.1 27.26 171.83 27.26 171.83 55.75 0 55.75"/><polygon class="cls-2" points="343.66 55.75 317.56 27.26 171.83 27.26 171.83 55.75 343.66 55.75"/><path class="cls-2" d="M2332.82,187.79H2042.74a13.63,13.63,0,0,1-13.63-13.63h0a13.63,13.63,0,0,1,13.63-13.63h290.08a13.63,13.63,0,0,1,13.63,13.63h0A13.63,13.63,0,0,1,2332.82,187.79Z" transform="translate(-2015.95 -160.53)"/><path class="cls-3" d="M2346.32,172.38c0-.1,0-.2,0-.3a15.31,15.31,0,0,0-.36-1.66h0a13.63,13.63,0,0,0-13.1-9.89h-85.91a13.6,13.6,0,0,1,12.14,19.79H2042.74a13.62,13.62,0,0,1-13.1-9.9,13.57,13.57,0,0,0-.53,3.74h0a13.63,13.63,0,0,0,13.63,13.63h290.08a13.63,13.63,0,0,0,13.63-13.63h0A13,13,0,0,0,2346.32,172.38Z" transform="translate(-2015.95 -160.53)"/><polygon class="cls-3" points="316.87 27.26 229.03 27.26 251.44 55.75 251.44 625.83 233.04 669.19 316.36 669.19 343.66 625.83 343.66 55.75 316.87 27.26"/><path class="cls-4" d="M2169.52,337.55c28.77-6.82,54.87-25.25,84.43-25.74-34.47-8.56-70.61-2.76-106-.1-42.71,3.21-85.61,1.76-128.42.31l-3.56-.13v33.34c18.53-3.7,37.23-6.42,56.09-6.66C2104.64,338.16,2137.8,345.07,2169.52,337.55Z" transform="translate(-2015.95 -160.53)"/><path class="cls-4" d="M2359.61,247.61c-24.21-4.92-48.73-8.2-73.4-8.51-61.05-.76-121,16.58-182,19.3a381.14,381.14,0,0,1-63.81-2.51c-7.93-1-16.17-2.15-24.49-3.14V286c32.76.06,66.27,4.57,99.1,4.47,49.76-.16,98.77-11.11,148.07-17.89,31.87-4.38,64.62-6.93,96.49-3.8Z" transform="translate(-2015.95 -160.53)"/><path class="cls-4" d="M2359.61,415.07c-22.69-1.12-45.45-5.3-68.24-5.75-35-.69-69.74,7.46-104.79,7.77-40.33.35-81.73-9.57-120.37,2,23,5.9,46.19,11.83,69.91,13.2,23.48,1.36,47.08-1.78,70.55-.17,23.24,1.6,67.54-4.09,90.33.77,27.76,5.92,34.28,21.75,62.61,23.64Z" transform="translate(-2015.95 -160.53)"/><path class="cls-4" d="M2016,395.92c24.83-8.32,52-10.32,78.39-10.11,35.81.28,71.78,4.16,107.31-.33,22-2.77,43.55-8.74,65.66-10.38a171,171,0,0,1,92.3,19.71V345.69c-5.89,0-12.14.21-18.52,0-36-1-71,9.2-106.58,12.82-52.85,5.37-106.54-4-159.15,3.31-20.16,2.8-39.86,8-59.41,13.74Z" transform="translate(-2015.95 -160.53)"/><path class="cls-4" d="M2169.52,667.34c28.77-6.82,54.87-25.25,84.43-25.73-34.47-8.57-70.61-2.76-106-.1-42.71,3.2-85.61,1.75-128.42.3l-3.56-.12V675c18.53-3.7,37.23-6.42,56.09-6.66C2104.64,668,2137.8,674.87,2169.52,667.34Z" transform="translate(-2015.95 -160.53)"/><path class="cls-4" d="M2359.61,577.41c-24.21-4.93-48.73-8.21-73.4-8.52-61.05-.76-121,16.58-182,19.3a381.14,381.14,0,0,1-63.81-2.51c-7.93-1-16.17-2.14-24.49-3.14v33.24c32.76.06,66.27,4.57,99.1,4.47,49.76-.15,98.77-11.11,148.07-17.89,31.87-4.38,64.62-6.93,96.49-3.79Z" transform="translate(-2015.95 -160.53)"/><path class="cls-4" d="M2359.61,744.86c-22.69-1.11-45.45-5.3-68.24-5.75-35-.69-69.74,7.46-104.79,7.77-40.33.36-81.73-9.56-120.37,2,23,5.9,46.19,11.83,69.91,13.2,23.48,1.36,47.08-1.78,70.55-.17,23.24,1.6,67.54-4.08,90.33.77,27.76,5.93,34.28,21.75,62.61,23.65Z" transform="translate(-2015.95 -160.53)"/><path class="cls-4" d="M2016,725.71c24.83-8.32,52-10.32,78.39-10.11,35.81.28,71.78,4.17,107.31-.32,22-2.78,43.55-8.75,65.66-10.39a171.05,171.05,0,0,1,92.3,19.71V675.48c-5.89,0-12.14.21-18.52,0-36-1-71,9.21-106.58,12.82-52.85,5.37-106.54-4-159.15,3.31-20.16,2.8-39.86,8-59.41,13.75Z" transform="translate(-2015.95 -160.53)"/><path class="cls-5" d="M2041.57,447.46v33.7c0,5,0,8.29-.15,9.73a7.45,7.45,0,0,1-1.43,3.91,6.41,6.41,0,0,1-3.43,2.41,23.44,23.44,0,0,1-6.52.67h-6.56v-8.81q1.18.09,1.71.09a3.34,3.34,0,0,0,2.21-.68,2.61,2.61,0,0,0,.94-1.68q.12-1,.12-3.87V447.46Z" transform="translate(-2015.95 -160.53)"/><path class="cls-5" d="M2076.45,447.46v33.7a58.53,58.53,0,0,1-.37,8,11,11,0,0,1-2.21,4.76,11.52,11.52,0,0,1-4.84,3.71,18.29,18.29,0,0,1-7.09,1.26,20,20,0,0,1-8-1.49,12,12,0,0,1-5.17-3.9,10.78,10.78,0,0,1-2-5.06c-.2-1.77-.31-5.5-.31-11.19V447.46h13.11v37.81a14.83,14.83,0,0,0,.36,4.22,1.41,1.41,0,0,0,1.45.92,1.51,1.51,0,0,0,1.6-1,18.79,18.79,0,0,0,.36-4.78V447.46Z" transform="translate(-2015.95 -160.53)"/><path class="cls-5" d="M2110.8,447.46v50.42h-11.49L2092.49,475v22.92h-11V447.46h11l7.35,22.7v-22.7Z" transform="translate(-2015.95 -160.53)"/><path class="cls-5" d="M2146.15,466H2133v-4.58a22.63,22.63,0,0,0-.37-5.41,2,2,0,0,0-3.43-.16,15.3,15.3,0,0,0-.43,4.8v24.2a14.41,14.41,0,0,0,.43,4.46,1.71,1.71,0,0,0,1.75,1.08,1.92,1.92,0,0,0,1.94-1.22,13.92,13.92,0,0,0,.52-4.73v-6h-2.65v-7.66h15.35v27.06h-8.24l-1.21-3.61a9.05,9.05,0,0,1-3.38,3.5,9.53,9.53,0,0,1-4.82,1.17,12.49,12.49,0,0,1-6.18-1.6,11.86,11.86,0,0,1-4.38-4,12.59,12.59,0,0,1-1.87-5,59.58,59.58,0,0,1-.37-7.8v-15a50.28,50.28,0,0,1,.77-10.5,10.74,10.74,0,0,1,4.47-6,15.64,15.64,0,0,1,9.55-2.73,17.76,17.76,0,0,1,9.56,2.37,11.2,11.2,0,0,1,4.95,5.62,29.73,29.73,0,0,1,1.15,9.45Z" transform="translate(-2015.95 -160.53)"/><path class="cls-5" d="M2164.34,447.46v40.33h8v10.09h-21.08V447.46Z" transform="translate(-2015.95 -160.53)"/><path class="cls-5" d="M2175.49,447.46h21.86v10.09h-8.75v9.56h8.19v9.6h-8.19v11.08h9.63v10.09h-22.74Z" transform="translate(-2015.95 -160.53)"/><path d="M2175.49,515h7.62c4.92,0,8.24.22,10,.67a7.64,7.64,0,0,1,3.95,2.23,7,7,0,0,1,1.69,3.44,51.54,51.54,0,0,1,.34,7.47v13.71a32.06,32.06,0,0,1-.49,7,5.33,5.33,0,0,1-1.73,2.78,7.16,7.16,0,0,1-3,1.4,27.24,27.24,0,0,1-5.47.4h-12.84Zm10.18,6.69V547.4c1.47,0,2.37-.29,2.71-.88s.51-2.19.51-4.8V526.51a20.67,20.67,0,0,0-.17-3.41,1.6,1.6,0,0,0-.77-1.1A4.94,4.94,0,0,0,2185.67,521.64Z" transform="translate(-2015.95 -160.53)"/><path d="M2202.87,515h7.21a55.29,55.29,0,0,1,9.75.55,6.7,6.7,0,0,1,4.16,2.84c1.08,1.53,1.61,4,1.61,7.3q0,4.56-1.13,6.14t-4.48,1.88a7.6,7.6,0,0,1,4.06,2,6,6,0,0,1,1.3,2.31,36.55,36.55,0,0,1,.25,5.79V554.1h-9.45v-13c0-2.1-.17-3.39-.5-3.89s-1.2-.75-2.6-.75V554.1h-10.18Zm10.18,6.69v8.71a4.53,4.53,0,0,0,2.41-.47q.69-.46.69-3.06v-2.15a3.26,3.26,0,0,0-.67-2.44A3.74,3.74,0,0,0,2213.05,521.64Z" transform="translate(-2015.95 -160.53)"/><path d="M2239.73,515V554.1h-10.19V515Z" transform="translate(-2015.95 -160.53)"/><path d="M2266.55,515V554.1h-8.93l-5.29-17.8v17.8h-8.52V515h8.52l5.71,17.63V515Z" transform="translate(-2015.95 -160.53)"/><path d="M2294.9,515l-5.84,17.67,6.4,21.48h-10.52l-4.12-16.78V554.1h-10.19V515h10.19v15.21l4.53-15.21Z" transform="translate(-2015.95 -160.53)"/><path class="cls-6" d="M2046.87,338.64c-2.52,11.07-2.21,22.71-1.87,34.17l5.7,197.64c.38,13,2.51,28.93,13.52,33.72,9.29,4.05,19.9-3.27,24.16-13.1s3.87-21.3,3.47-32.27q-3.45-94.24,1.41-188.39c.56-10.67,1.12-21.82-2.78-31.7C2082.17,317.66,2052.34,314.59,2046.87,338.64Z" transform="translate(-2015.95 -160.53)"/><path class="cls-6" d="M2060.57,241.58c-.86-1.73-2.36-1.11-3.5-.1-7.07,6.26-10.85,23.66-8.19,37.74S2060.24,302,2067.75,298s12.72-19.91,11.3-34.64-9.26-26-17-24.53Z" transform="translate(-2015.95 -160.53)"/></svg>