<svg xmlns="http://www.w3.org/2000/svg" xmlns:xlink="http://www.w3.org/1999/xlink" viewBox="0 0 261.49 227.05"><defs><style>.cls-1{fill:none;}.cls-2{isolation:isolate;}.cls-3{clip-path:url(#clip-path);}.cls-4{fill:#eef9fb;}.cls-5{fill:#fb0f0f;}.cls-6{opacity:0.5;}.cls-12,.cls-6,.cls-8,.cls-9{mix-blend-mode:multiply;}.cls-7,.cls-9{fill:#939393;}.cls-10,.cls-12{fill:#d37b04;}.cls-11{fill:#ffc502;}.cls-13{fill:#006ad0;}.cls-14{fill:#fff;}.cls-15{fill:#935205;}.cls-16{fill:#a56003;}.cls-17{fill:#734004;}</style><clipPath id="clip-path" transform="translate(-29.6 -196.53)"><rect class="cls-1" width="878" height="439"/></clipPath></defs><title>stand</title><g class="cls-2"><g id="Layer_1" data-name="Layer 1"><g class="cls-3"><rect class="cls-4" x="7.75" y="150.24" width="245.56" height="76.81"/><rect class="cls-5" x="7.75" y="150.24" width="14.69" height="76.81"/><rect class="cls-5" x="37.74" y="150.24" width="14.69" height="76.81"/><rect class="cls-5" x="67.72" y="150.24" width="14.69" height="76.81"/><rect class="cls-5" x="97.7" y="150.24" width="14.69" height="76.81"/><rect class="cls-5" x="127.69" y="150.24" width="14.69" height="76.81"/><rect class="cls-5" x="157.67" y="150.24" width="14.69" height="76.81"/><rect class="cls-5" x="187.66" y="150.24" width="14.69" height="76.81"/><rect class="cls-5" x="217.64" y="150.24" width="14.69" height="76.81"/><rect class="cls-5" x="245.98" y="150.24" width="7.34" height="76.81"/><g class="cls-6"><path class="cls-7" d="M282.85,355.41S257.26,411.53,164,411.53,37.57,358.78,37.57,358.78l-.21.17v64.63H282.92v-68.1Z" transform="translate(-29.6 -196.53)"/></g><g class="cls-8"><rect class="cls-7" x="7.75" y="150.24" width="245.56" height="6.08"/></g><path class="cls-9" d="M115.09,355.29c-37-1.78-65.63-4.92-77.58-6.38v6.65l.7,11.79L49,350.75l4.65.48,2,17.22,10.9-16,4.86.43,4.22,18.29,10-17.17c1.5.12,3,.22,4.59.33l4.49,18,9.25-17.16,7.48.4,5.66,17.87,8.66-17.22c3.14.12,6.23.22,9.3.32l6.26,16.9,8.2-16.55,7.61.11,4.6,15.33,7.55-15.26h4.42l5.91,16.38L186.14,357c2.45,0,4.89-.09,7.29-.15l5.21,15.56,6.92-15.93c2-.07,4.05-.16,6-.24l6,16.17L224,355.6l5.59-.34,6.57,15.08,5.36-15.93c1.66-.12,3.29-.26,4.9-.39l7.14,15.53,6.56-16.8,3.46-.36,7.53,15.27,5.9-16.84,2.25-.28,3.33,7.32v-8.29C221.09,357.92,158.07,357.35,115.09,355.29Z" transform="translate(-29.6 -196.53)"/><path class="cls-10" d="M281.38,335.66v-113c0-14.84-1.14-26.11-19.09-26.11H58C40.1,196.53,39,207.8,39,222.64v113Z" transform="translate(-29.6 -196.53)"/><path class="cls-11" d="M281.38,337.23v-113c0-14.84-1.14-26.11-19.09-26.11H58C40.1,198.1,39,209.37,39,224.21v113Z" transform="translate(-29.6 -196.53)"/><g class="cls-8"><path class="cls-11" d="M278.51,205.5C269.67,233.07,228.39,293,39,324.8v12.43H281.38v-113C281.38,216.75,281.09,210.18,278.51,205.5Z" transform="translate(-29.6 -196.53)"/></g><path class="cls-10" d="M274.42,337.23V240.11c0-12.74-1-22.43-16.4-22.43H61.8c-15.42,0-16.4,9.69-16.4,22.43v97.12Z" transform="translate(-29.6 -196.53)"/><path class="cls-12" d="M273.05,337.23v-96c0-12.59-1-22.16-16.2-22.16H63c-15.24,0-16.2,9.57-16.2,22.16v96Z" transform="translate(-29.6 -196.53)"/><polygon class="cls-13" points="5.98 150.98 7.05 169.19 17.99 152.36 5.98 150.98"/><polygon class="cls-13" points="40.14 154.48 44.43 173.03 54.57 155.62 40.14 154.48"/><polygon class="cls-13" points="80.14 157.21 85.9 175.34 94.69 157.86 80.14 157.21"/><polygon class="cls-13" points="125.86 158.65 130.54 174.24 138.22 158.72 125.86 158.65"/><polygon class="cls-13" points="162.19 158.44 167.49 174.24 174.45 158.18 162.19 158.44"/><polygon class="cls-13" points="198.36 156.88 205.02 172.19 210.47 156.03 198.36 156.88"/><polygon class="cls-13" points="232.34 154.01 239.98 169.51 245.97 152.4 232.34 154.01"/><polygon class="cls-11" points="22.45 152.82 24.45 170.29 35.51 154.07 22.45 152.82"/><polygon class="cls-11" points="58.95 155.93 63.5 174.24 72.9 156.82 58.95 155.93"/><polygon class="cls-11" points="103.76 158.18 110.12 175.34 118.44 158.54 103.76 158.18"/><polygon class="cls-11" points="142.38 158.65 148.42 175.34 155.08 158.58 142.38 158.65"/><polygon class="cls-11" points="180.34 157.84 186.41 174.24 192.96 157.21 180.34 157.84"/><polygon class="cls-11" points="215.19 155.64 222.43 171.4 229.09 154.34 215.19 155.64"/><polygon class="cls-11" points="248.02 152.14 255.27 168.09 260.26 150.41 248.02 152.14"/><path d="M167.27,355.51q-25.05,0-53.78-1.32c-49.1-2.36-83.35-7.11-83.7-7.15l.07-.53c.34,0,34.59,4.8,83.67,7.15,45.3,2.18,112.87,2.7,177.49-7.15l.08.53C263.72,351.2,222.17,355.51,167.27,355.51Z" transform="translate(-29.6 -196.53)"/><path class="cls-14" d="M49.71,206.22a3.15,3.15,0,0,1,2-1.41,3.13,3.13,0,0,0-2.78,1.34Z" transform="translate(-29.6 -196.53)"/><path class="cls-14" d="M49.44,206.76l-.83-.07a3.86,3.86,0,0,0,.66,3.7A6.27,6.27,0,0,1,49.44,206.76Z" transform="translate(-29.6 -196.53)"/><rect class="cls-15" x="0.22" y="146.98" width="261.23" height="3.25"/><polygon class="cls-10" points="251.35 138.73 9.82 138.73 0.22 146.98 261.45 146.98 251.35 138.73"/><path class="cls-14" d="M40.63,220.78S40,201.29,54.89,200C47.91,198.6,39.06,206.13,40.63,220.78Z" transform="translate(-29.6 -196.53)"/><path class="cls-14" d="M39.65,221.89l-.11,74.95S42,251.62,39.65,221.89Z" transform="translate(-29.6 -196.53)"/><path class="cls-14" d="M58.61,199.53H93A209.31,209.31,0,0,1,58.61,199.53Z" transform="translate(-29.6 -196.53)"/><rect class="cls-16" x="17.15" y="24.6" width="226.5" height="113.87"/><rect class="cls-17" x="17.15" y="23.82" width="226.5" height="2.83"/><g class="cls-6"><path class="cls-16" d="M159.61,315.08c-59.13,0-112.86-1.47-112.86-1.47V335h226.5V313.51S223,315.08,159.61,315.08Z" transform="translate(-29.6 -196.53)"/></g><rect class="cls-15" y="28.88" width="261.23" height="3.25"/><polygon class="cls-10" points="251.13 20.63 9.6 20.63 0 28.88 261.23 28.88 251.13 20.63"/></g><rect class="cls-15" x="19.65" y="123.78" width="220.75" height="2.68"/><polygon class="cls-10" points="231.86 116.97 27.75 116.97 19.65 123.78 240.4 123.78 231.86 116.97"/></g></g></svg>